  0
SECTION
  2
HEADER
  9
$ACADVER
  1
AC1009
  9
$INSBASE
 10
0.0
 20
0.0
 30
0.0
  9
$EXTMIN
 10
0.0
 20
0.0
 30
0.0
  9
$EXTMAX
 10
0.0
 20
0.0
 30
0.0
  0
ENDSEC
  0
SECTION
  2
TABLES
  0
TABLE
  2
VPORT
 70
0
  0
ENDTAB
  0
TABLE
  2
LTYPE
 70
1
  0
LTYPE
  2
CONTINUOUS
 70
0
  3
Solid line
 72
65
 73
0
 40
0.0
  0
ENDTAB
  0
TABLE
  2
LAYER
 70
1
  0
LAYER
  2
0
 70
64
 62
7
  6
continuous
  0
ENDTAB
  0
TABLE
  2
STYLE
 70
1
  0
STYLE
  2
STANDARD
 70
0
 40
0
 41
1.0
 50
0.0
 71
0
 42
1
 3
ARIAL.TTF
 4

  0
ENDTAB
  0
TABLE
  2
VIEW
 70
0
  0
ENDTAB
  0
ENDSEC
  0
SECTION
  2
BLOCKS
  0
BLOCK
  8
0
  2
BODY
 70
0
 10
0.0
 20
0.0
 30
0.0
  3
BODY
  0
LINE
  8
0
 62
0
 10
-63.5
 20
32.5
 30
0.0
 11
63.5
 21
32.5
 31
0.0
  0
LINE
  8
0
 62
0
 10
63.5
 20
32.5
 30
0.0
 11
63.5
 21
-32.5
 31
0.0
  0
LINE
  8
0
 62
0
 10
63.5
 20
-32.5
 30
0.0
 11
-63.5
 21
-32.5
 31
0.0
  0
LINE
  8
0
 62
0
 10
-63.5
 20
-32.5
 30
0.0
 11
-63.5
 21
32.5
 31
0.0
  0
ARC
  8
0
 62
0
 10
-53.0968106005116
 20
15.0
 30
0.0
 40
1.5
 50
90.0
 51
-89.99999999999865
  0
LINE
  8
0
 62
0
 10
-53.09681060051157
 20
13.499999999999963
 30
0.0
 11
-19.096810600511603
 21
13.499999999999963
 31
0.0
  0
ARC
  8
0
 62
0
 10
-19.096810600511603
 20
14.999999999999963
 30
0.0
 40
1.5
 50
-90.0
 51
90.0
  0
LINE
  8
0
 62
0
 10
-53.0968106005116
 20
16.5
 30
0.0
 11
-19.096810600511603
 21
16.499999999999964
 31
0.0
  0
LINE
  8
0
 62
0
 10
-51.88770099605355
 20
-16.5
 30
0.0
 11
-17.887700996053553
 21
-16.5
 31
0.0
  0
ARC
  8
0
 62
0
 10
-17.887700996053557
 20
-15.0
 30
0.0
 40
1.4999999999999996
 50
-90.0
 51
90.0
  0
LINE
  8
0
 62
0
 10
-51.88770099605356
 20
-13.5
 30
0.0
 11
-17.88770099605356
 21
-13.5
 31
0.0
  0
ARC
  8
0
 62
0
 10
-51.88770099605355
 20
-15.0
 30
0.0
 40
1.4999999999999996
 50
90.00000000000028
 51
-90.0
  0
LINE
  8
0
 62
0
 10
16.751783031747724
 20
-16.499999999999996
 30
0.0
 11
50.75178303174772
 21
-16.499999999999996
 31
0.0
  0
ARC
  8
0
 62
0
 10
50.75178303174773
 20
-15.0
 30
0.0
 40
1.499999999999998
 50
-90.0
 51
90.0
  0
LINE
  8
0
 62
0
 10
16.751783031747724
 20
-13.500000000000004
 30
0.0
 11
50.75178303174772
 21
-13.500000000000002
 31
0.0
  0
ARC
  8
0
 62
0
 10
16.751783031747724
 20
-15.000000000000002
 30
0.0
 40
1.499999999999998
 50
90.0
 51
-90.0
  0
ARC
  8
0
 62
0
 10
18.06521210629363
 20
15.0
 30
0.0
 40
1.5
 50
90.00000000000014
 51
-90.0
  0
LINE
  8
0
 62
0
 10
18.06521210629363
 20
13.5
 30
0.0
 11
52.06521210629363
 21
13.5
 31
0.0
  0
ARC
  8
0
 62
0
 10
52.06521210629363
 20
15.0
 30
0.0
 40
1.5
 50
-90.0
 51
90.0
  0
LINE
  8
0
 62
0
 10
18.065212106293625
 20
16.5
 30
0.0
 11
52.06521210629363
 21
16.5
 31
0.0
  0
CIRCLE
  8
0
 62
0
 10
-37.85277757765112
 20
-26.013504915024367
 30
0.0
 40
1.5
  0
CIRCLE
  8
0
 62
0
 10
-37.75230074814371
 20
29.0
 30
0.0
 40
1.5
  0
CIRCLE
  8
0
 62
0
 10
38.17767726100149
 20
-26.39611420700738
 30
0.0
 40
1.5
  0
CIRCLE
  8
0
 62
0
 10
38.24603711337111
 20
29.502635342017104
 30
0.0
 40
1.5
  0
CIRCLE
  8
0
 62
0
 10
-58.85925279720738
 20
-27.78592285689345
 30
0.0
 40
1.5
  0
CIRCLE
  8
0
 62
0
 10
59.24044970577019
 20
-27.37719696491511
 30
0.0
 40
1.5
  0
CIRCLE
  8
0
 62
0
 10
59.26136243062213
 20
29.518838077830242
 30
0.0
 40
1.5
  0
CIRCLE
  8
0
 62
0
 10
-58.765167082246094
 20
29.532957256428137
 30
0.0
 40
1.5
  0
CIRCLE
  8
0
 62
0
 10
-11.0710903410479
 20
-14.835072637915546
 30
0.0
 40
1.5
  0
ENDBLK
  0
ENDSEC
  0
SECTION
  2
ENTITIES
  0
INSERT
  2
BODY
  8
0
 62
0
 10
0.0
 20
0.0
 30
0.0
  0
ENDSEC
  0
EOF
