  0
SECTION
  2
HEADER
  9
$ACADVER
  1
AC1009
  9
$INSBASE
 10
0.0
 20
0.0
 30
0.0
  9
$EXTMIN
 10
0.0
 20
0.0
 30
0.0
  9
$EXTMAX
 10
0.0
 20
0.0
 30
0.0
  0
ENDSEC
  0
SECTION
  2
TABLES
  0
TABLE
  2
VPORT
 70
0
  0
ENDTAB
  0
TABLE
  2
LTYPE
 70
1
  0
LTYPE
  2
CONTINUOUS
 70
0
  3
Solid line
 72
65
 73
0
 40
0.0
  0
ENDTAB
  0
TABLE
  2
LAYER
 70
1
  0
LAYER
  2
0
 70
64
 62
7
  6
continuous
  0
ENDTAB
  0
TABLE
  2
STYLE
 70
1
  0
STYLE
  2
STANDARD
 70
0
 40
0
 41
1.0
 50
0.0
 71
0
 42
1
 3
ARIAL.TTF
 4

  0
ENDTAB
  0
TABLE
  2
VIEW
 70
0
  0
ENDTAB
  0
ENDSEC
  0
SECTION
  2
BLOCKS
  0
BLOCK
  8
0
  2
PAD001
 70
0
 10
0.0
 20
0.0
 30
0.0
  3
PAD001
  0
LINE
  8
0
 62
0
 10
-63.49999999999999
 20
32.5
 30
0.0
 11
63.50000000000001
 21
32.5
 31
0.0
  0
LINE
  8
0
 62
0
 10
63.50000000000001
 20
32.5
 30
0.0
 11
63.50000000000001
 21
-32.5
 31
0.0
  0
LINE
  8
0
 62
0
 10
63.50000000000001
 20
-32.5
 30
0.0
 11
-63.49999999999999
 21
-32.5
 31
0.0
  0
LINE
  8
0
 62
0
 10
-63.49999999999999
 20
-32.5
 30
0.0
 11
-63.49999999999999
 21
32.5
 31
0.0
  0
ARC
  8
0
 62
0
 10
-53.0968106005116
 20
15.0
 30
0.0
 40
1.5
 50
90.0
 51
-89.99999999999865
  0
LINE
  8
0
 62
0
 10
-53.09681060051157
 20
13.499999999999963
 30
0.0
 11
-19.096810600511603
 21
13.499999999999963
 31
0.0
  0
ARC
  8
0
 62
0
 10
-19.096810600511603
 20
14.999999999999963
 30
0.0
 40
1.5
 50
-90.0
 51
90.0
  0
LINE
  8
0
 62
0
 10
-53.0968106005116
 20
16.5
 30
0.0
 11
-19.096810600511603
 21
16.499999999999964
 31
0.0
  0
LINE
  8
0
 62
0
 10
-51.88770099605355
 20
-16.5
 30
0.0
 11
-17.887700996053553
 21
-16.5
 31
0.0
  0
ARC
  8
0
 62
0
 10
-17.887700996053557
 20
-15.0
 30
0.0
 40
1.4999999999999996
 50
-90.0
 51
90.0
  0
LINE
  8
0
 62
0
 10
-51.88770099605356
 20
-13.5
 30
0.0
 11
-17.88770099605356
 21
-13.5
 31
0.0
  0
ARC
  8
0
 62
0
 10
-51.88770099605355
 20
-15.0
 30
0.0
 40
1.4999999999999996
 50
90.00000000000028
 51
-90.0
  0
LINE
  8
0
 62
0
 10
16.751783031747724
 20
-16.499999999999996
 30
0.0
 11
50.75178303174772
 21
-16.499999999999996
 31
0.0
  0
ARC
  8
0
 62
0
 10
50.75178303174773
 20
-15.0
 30
0.0
 40
1.499999999999998
 50
-90.0
 51
90.0
  0
LINE
  8
0
 62
0
 10
16.751783031747724
 20
-13.500000000000004
 30
0.0
 11
50.75178303174772
 21
-13.500000000000002
 31
0.0
  0
ARC
  8
0
 62
0
 10
16.751783031747724
 20
-15.000000000000002
 30
0.0
 40
1.499999999999998
 50
90.0
 51
-90.0
  0
ARC
  8
0
 62
0
 10
18.06521210629363
 20
15.0
 30
0.0
 40
1.5
 50
90.00000000000014
 51
-90.0
  0
LINE
  8
0
 62
0
 10
18.06521210629363
 20
13.5
 30
0.0
 11
52.06521210629363
 21
13.5
 31
0.0
  0
ARC
  8
0
 62
0
 10
52.06521210629363
 20
15.0
 30
0.0
 40
1.5
 50
-90.0
 51
90.0
  0
LINE
  8
0
 62
0
 10
18.065212106293625
 20
16.5
 30
0.0
 11
52.06521210629363
 21
16.5
 31
0.0
  0
LINE
  8
0
 62
0
 10
-13.140714
 20
-28.365073
 30
0.0
 11
-13.140714
 21
-13.002631
 31
0.0
  0
LINE
  8
0
 62
0
 10
12.286177
 20
-28.365073
 30
0.0
 11
-13.140713999999997
 21
-28.365073
 31
0.0
  0
LINE
  8
0
 62
0
 10
12.286177
 20
-13.002631
 30
0.0
 11
12.286177
 21
-28.365073
 31
0.0
  0
LINE
  8
0
 62
0
 10
-13.140714
 20
-13.002631
 30
0.0
 11
12.286176999999999
 21
-13.002631
 31
0.0
  0
CIRCLE
  8
0
 62
0
 10
-39.584538
 20
-26.839647000000006
 30
0.0
 40
1.5
  0
CIRCLE
  8
0
 62
0
 10
-37.20873972721589
 20
29.0
 30
0.0
 40
1.5
  0
CIRCLE
  8
0
 62
0
 10
39.248066
 20
-26.608467
 30
0.0
 40
1.5
  0
CIRCLE
  8
0
 62
0
 10
38.791260272784115
 20
29.0
 30
0.0
 40
1.5
  0
CIRCLE
  8
0
 62
0
 10
-58.76156173765024
 20
-27.303495479952225
 30
0.0
 40
1.5
  0
CIRCLE
  8
0
 62
0
 10
59.74249197939105
 20
-26.75172032246872
 30
0.0
 40
1.5
  0
CIRCLE
  8
0
 62
0
 10
59.938732
 20
29.799616
 30
0.0
 40
1.5
  0
CIRCLE
  8
0
 62
0
 10
-59.581665
 20
29.106075
 30
0.0
 40
1.5
  0
ENDBLK
  0
ENDSEC
  0
SECTION
  2
ENTITIES
  0
INSERT
  2
PAD001
  8
0
 62
0
 10
0.0
 20
0.0
 30
0.0
  0
ENDSEC
  0
EOF
