M48
; DRILL file {KiCad (5.99.0-3293-g62433736b)} date 10/14/20 19:58:08
; FORMAT={-:-/ absolute / metric / decimal}
; #@! TF.CreationDate,2020-10-14T19:58:08+07:00
; #@! TF.GenerationSoftware,Kicad,Pcbnew,(5.99.0-3293-g62433736b)
; #@! TF.FileFunction,Plated,1,2,PTH
FMAT,2
METRIC
T1C0.400
T2C0.762
T3C0.800
T4C1.000
T5C1.100
T6C1.320
T7C3.000
%
G90
G05
T1
X98.575Y-78.35
X98.575Y-81.025
X98.65Y-83.65
X98.675Y-86.45
X98.675Y-89.35
X98.7Y-91.975
X98.975Y-106.725
X99.05Y-61.925
X99.05Y-64.475
X99.05Y-66.9
X99.2Y-115.35
X101.85Y-61.85
X101.875Y-64.475
X101.875Y-66.95
X102.075Y-104.15
X102.15Y-101.275
X102.425Y-115.5
X102.575Y-109.7
X102.575Y-111.85
X103.6Y-94.175
X104.275Y-104.25
X104.425Y-64.475
X104.425Y-66.925
X104.45Y-101.125
X104.475Y-61.825
X105.25Y-79.5
X105.675Y-89.025
X105.675Y-94.175
X106.4Y-101.9
X106.775Y-109.825
X106.775Y-111.775
X106.95Y-116.05
X107.025Y-119.125
X107.75Y-89.0
X107.825Y-94.175
X107.95Y-106.075
X108.225Y-78.2
X108.93Y-62.295
X110.025Y-106.05
X110.175Y-94.2
X110.2Y-62.265
X111.34Y-62.265
X111.57Y-84.295
X111.825Y-111.625
X112.05Y-115.95
X112.175Y-119.35
X112.6Y-94.225
X112.825Y-106.025
X114.17Y-79.425
X114.25Y-62.75
X114.975Y-94.275
X115.65Y-95.875
X116.625Y-111.55
X116.775Y-115.975
X116.95Y-119.55
X117.0Y-74.5
X117.025Y-64.025
X117.65Y-95.875
X117.805Y-84.51
X117.99Y-86.505
X120.025Y-72.731
X120.76Y-89.86
X121.5Y-103.025
X121.675Y-115.75
X123.275Y-104.025
X124.05Y-71.856
X124.5Y-95.075
X124.775Y-104.625
X125.675Y-87.85
X125.855Y-65.245
X126.175Y-94.55
X126.37Y-120.195
X127.025Y-74.6
X128.15Y-75.85
X128.25Y-66.75
X128.625Y-82.875
X129.3Y-74.5
X129.6Y-120.195
X129.7Y-84.0
X129.725Y-90.35
X129.99Y-81.375
X130.2Y-103.155
X130.2Y-110.925
X130.25Y-68.5
X130.95Y-92.1
X131.35Y-76.05
X131.375Y-74.55
X131.4Y-84.975
X131.775Y-112.9
X132.175Y-87.125
X132.275Y-63.975
X132.275Y-69.525
X132.35Y-83.9
X132.825Y-76.05
X133.025Y-96.275
X133.1Y-120.175
X133.8Y-65.675
X134.15Y-73.375
X134.275Y-95.05
X134.45Y-76.025
X134.503Y-70.522
X134.9Y-64.375
X134.975Y-66.825
X135.425Y-93.875
X135.525Y-73.95
X135.6Y-67.85
X135.65Y-62.05
X135.75Y-71.475
X136.05Y-81.85
X136.35Y-120.195
X136.575Y-64.375
X136.7Y-92.175
X136.875Y-111.4
X136.875Y-114.075
X136.88Y-81.18
X137.15Y-69.6
X137.188Y-68.312
X137.25Y-84.025
X137.7Y-103.455
X137.7Y-82.2
X137.725Y-72.575
X137.875Y-73.8
X137.975Y-92.15
X138.0Y-85.0
X138.15Y-83.125
X138.875Y-80.275
X139.225Y-92.15
X139.4Y-81.3
X139.425Y-73.825
X139.54Y-120.175
X139.55Y-72.075
X139.7Y-66.05
X140.35Y-80.478
X140.475Y-92.15
X140.9Y-103.405
X141.0Y-83.75
X141.075Y-72.075
X141.325Y-111.375
X141.375Y-114.1
X141.5Y-81.525
X141.65Y-92.15
X141.825Y-95.1
X142.225Y-82.375
X142.8Y-66.85
X142.825Y-65.85
X142.87Y-120.145
X143.125Y-96.35
X143.2Y-76.925
X143.35Y-63.9
X143.375Y-72.9
X143.375Y-74.225
X143.375Y-75.575
X143.45Y-71.475
X144.075Y-64.925
X144.85Y-69.1
X145.3Y-64.325
X145.7Y-74.275
X145.7Y-75.775
X146.05Y-77.075
X146.29Y-120.175
X146.525Y-85.625
X147.025Y-72.975
X147.275Y-77.75
X147.4Y-84.675
X147.825Y-86.875
X148.275Y-79.325
X148.325Y-103.355
X148.325Y-76.275
X148.395Y-81.3
X148.5Y-71.5
X148.7Y-77.75
X149.05Y-85.975
X149.2Y-88.325
X149.41Y-120.175
X149.875Y-70.125
X149.975Y-63.4
X150.35Y-87.375
X150.4Y-89.6
X150.45Y-77.825
X150.45Y-82.775
X150.75Y-73.7
X151.3Y-84.225
X151.325Y-68.55
X151.55Y-88.525
X151.775Y-90.95
X151.955Y-63.4
X152.0Y-115.7
X152.275Y-100.805
X152.425Y-78.725
X152.425Y-82.075
X152.525Y-67.75
X152.79Y-120.175
X152.85Y-103.33
X152.9Y-89.925
X153.05Y-92.275
X153.1Y-86.3
X153.3Y-84.25
X153.85Y-113.5
X154.025Y-115.7
X154.075Y-90.95
X154.425Y-75.7
X154.5Y-73.925
X154.575Y-70.475
X154.575Y-72.15
X154.775Y-104.9
X155.0Y-92.275
X155.1Y-88.375
X155.2Y-86.275
X155.2Y-101.175
X155.225Y-64.375
X155.35Y-84.275
X155.825Y-111.45
X155.95Y-113.45
X156.275Y-75.7
X156.325Y-70.525
X156.325Y-72.225
X156.325Y-73.975
X156.575Y-68.825
X156.575Y-91.075
X156.6Y-92.375
X156.85Y-88.35
X156.875Y-86.25
X157.675Y-68.05
X157.85Y-111.5
X157.9Y-109.4
X158.55Y-104.275
X158.55Y-105.725
X159.025Y-64.725
X160.0Y-107.2
X160.062Y-105.787
X160.075Y-109.375
X161.025Y-118.875
X161.075Y-112.725
X161.075Y-116.225
X162.425Y-107.125
X162.875Y-101.6
X162.975Y-71.0
X163.05Y-84.825
X163.05Y-90.975
X163.075Y-83.3
X163.075Y-86.9
X163.1Y-89.125
X163.7Y-66.825
X163.7Y-68.975
X164.15Y-110.15
X164.15Y-112.725
X164.15Y-118.95
X164.275Y-116.3
X164.75Y-62.575
X164.95Y-73.575
X165.175Y-66.825
X165.575Y-106.125
X166.25Y-94.75
X166.35Y-72.1
X166.625Y-77.025
X166.625Y-78.5
X166.8Y-84.5
X166.8Y-86.2
X166.8Y-96.8
X167.5Y-110.35
X167.5Y-112.725
X167.65Y-116.275
X167.75Y-119.025
X169.825Y-62.975
X169.825Y-66.1
X169.925Y-79.375
X170.125Y-110.325
X170.125Y-112.725
X170.3Y-116.275
X170.5Y-118.95
X171.2Y-95.925
X171.375Y-93.85
X171.525Y-92.325
X171.65Y-71.2
X171.9Y-100.1
X172.45Y-69.6
X172.775Y-67.95
X173.125Y-106.1
X173.2Y-109.225
X173.2Y-116.2
X173.225Y-112.725
X173.325Y-119.0
X174.325Y-84.0
X174.325Y-85.55
X174.375Y-82.575
X174.45Y-67.975
X175.075Y-66.725
X175.4Y-107.435
X175.475Y-109.225
X175.5Y-112.7
X175.525Y-119.0
X175.575Y-116.25
X175.6Y-102.825
X177.875Y-66.15
X178.0Y-107.41
X178.2Y-109.225
X178.225Y-112.675
X178.3Y-102.8
X179.9Y-84.225
X180.45Y-107.41
X180.56Y-62.075
X180.625Y-64.85
X180.7Y-102.8
X180.7Y-109.225
X180.75Y-73.525
X180.75Y-112.675
X180.925Y-68.0
X180.925Y-69.6
X181.15Y-66.275
T2
X166.1Y-61.685
X166.1Y-64.225
X168.64Y-61.685
X168.64Y-64.225
X171.18Y-61.685
X171.18Y-64.225
X173.72Y-61.685
X173.72Y-64.225
T3
X176.75Y-82.075
X179.25Y-82.075
T4
X151.04Y-61.775
X111.53Y-98.295
X148.5Y-61.775
X179.7Y-87.825
X179.7Y-90.365
X168.65Y-70.325
X168.65Y-72.865
X168.65Y-75.405
X168.65Y-77.945
X98.83Y-98.295
X179.7Y-92.905
X179.7Y-95.445
X179.7Y-97.985
X179.7Y-100.525
X101.37Y-98.295
X103.91Y-98.295
X106.45Y-98.295
X108.99Y-98.295
X156.12Y-61.775
X116.61Y-98.295
X162.715Y-104.225
X165.255Y-104.225
X167.795Y-104.225
X170.335Y-104.225
X153.58Y-61.775
X119.15Y-98.295
X121.69Y-98.295
X172.875Y-104.225
X152.375Y-70.175
X152.375Y-72.715
X114.07Y-98.295
X126.07Y-61.99
X128.61Y-61.99
X131.15Y-61.99
X133.69Y-61.99
X158.66Y-61.775
X161.2Y-61.775
X176.925Y-87.82
X176.925Y-90.36
X176.925Y-92.9
X176.925Y-95.44
X176.925Y-97.98
X176.925Y-100.52
X125.74Y-89.63
X152.375Y-75.255
X125.74Y-92.17
X162.575Y-99.855
X165.115Y-99.855
X168.64Y-81.385
X168.64Y-83.925
X168.64Y-86.465
X168.64Y-89.005
X160.05Y-96.975
X162.59Y-96.975
X165.13Y-96.975
X107.075Y-104.15
X109.615Y-104.15
X112.155Y-104.15
X114.695Y-104.15
X117.235Y-104.15
X160.75Y-66.5
X160.75Y-69.04
X160.75Y-71.58
X160.75Y-74.12
X160.75Y-76.66
X160.75Y-79.2
X160.75Y-81.74
X160.75Y-84.28
X160.75Y-86.82
X160.75Y-89.36
X160.75Y-91.9
X168.55Y-97.48
X168.55Y-100.02
X120.39Y-62.0
X122.93Y-62.0
X168.55Y-92.4
X168.55Y-94.94
X174.1Y-87.8
X174.1Y-90.34
X174.1Y-92.88
X174.1Y-95.42
X174.1Y-97.96
X174.1Y-100.5
X117.85Y-62.0
X160.035Y-99.855
T5
X140.825Y-99.905
X140.825Y-106.405
X145.325Y-99.905
X145.325Y-106.405
X125.75Y-99.93
X148.35Y-99.905
X148.35Y-106.405
X152.85Y-99.905
X152.85Y-106.405
X133.275Y-99.905
X133.275Y-106.405
X137.775Y-99.905
X137.775Y-106.405
X125.75Y-106.43
X130.25Y-99.93
X130.25Y-106.43
T6
X177.85Y-69.175
X177.85Y-74.175
T7
X178.375Y-62.875
X99.19Y-109.07
X121.64Y-109.12
X157.515Y-118.375
X178.105Y-118.315
X101.875Y-118.3
X122.465Y-118.24
T3
G00X98.51Y-71.265
M15
G01X98.51Y-73.465
M16
G05
G00X104.41Y-69.565
M15
G01X102.21Y-69.565
M16
G05
G00X104.61Y-75.365
M15
G01X102.01Y-75.365
M16
G05
T0
M30
