%TF.GenerationSoftware,KiCad,Pcbnew,(5.99.0-3293-g62433736b)*%
%TF.CreationDate,2020-10-14T19:58:00+07:00*%
%TF.ProjectId,C21_board,4332315f-626f-4617-9264-2e6b69636164,rev?*%
%TF.SameCoordinates,Original*%
%TF.FileFunction,Soldermask,Bot*%
%TF.FilePolarity,Negative*%
%FSLAX46Y46*%
G04 Gerber Fmt 4.6, Leading zero omitted, Abs format (unit mm)*
G04 Created by KiCad (PCBNEW (5.99.0-3293-g62433736b)) date 2020-10-14 19:58:00*
%MOMM*%
%LPD*%
G01*
G04 APERTURE LIST*
%ADD10O,1.800000X1.800000*%
%ADD11C,3.300000*%
%ADD12C,3.400000*%
%ADD13C,1.000000*%
%ADD14C,1.624000*%
%ADD15O,4.100000X1.900000*%
%ADD16O,1.900000X4.100000*%
%ADD17O,4.060000X2.080000*%
%ADD18C,2.100000*%
%ADD19C,1.700000*%
G04 APERTURE END LIST*
%TO.C,BOOT0*%
G36*
G01*
X118697059Y-62900000D02*
X117002941Y-62900000D01*
G75*
G02*
X116950000Y-62847059I0J52941D01*
G01*
X116950000Y-61152941D01*
G75*
G02*
X117002941Y-61100000I52941J0D01*
G01*
X118697059Y-61100000D01*
G75*
G02*
X118750000Y-61152941I0J-52941D01*
G01*
X118750000Y-62847059D01*
G75*
G02*
X118697059Y-62900000I-52941J0D01*
G01*
G37*
D10*
X120390000Y-62000000D03*
X122930000Y-62000000D03*
%TD*%
%TO.C,MPU9250*%
G36*
G01*
X120842941Y-97395000D02*
X122537059Y-97395000D01*
G75*
G02*
X122590000Y-97447941I0J-52941D01*
G01*
X122590000Y-99142059D01*
G75*
G02*
X122537059Y-99195000I-52941J0D01*
G01*
X120842941Y-99195000D01*
G75*
G02*
X120790000Y-99142059I0J52941D01*
G01*
X120790000Y-97447941D01*
G75*
G02*
X120842941Y-97395000I52941J0D01*
G01*
G37*
X119150000Y-98295000D03*
X116610000Y-98295000D03*
X114070000Y-98295000D03*
X111530000Y-98295000D03*
X108990000Y-98295000D03*
X106450000Y-98295000D03*
X103910000Y-98295000D03*
X101370000Y-98295000D03*
X98830000Y-98295000D03*
D11*
X121640000Y-109120000D03*
X99190000Y-109070000D03*
%TD*%
%TO.C,J4*%
G36*
G01*
X163562059Y-105125000D02*
X161867941Y-105125000D01*
G75*
G02*
X161815000Y-105072059I0J52941D01*
G01*
X161815000Y-103377941D01*
G75*
G02*
X161867941Y-103325000I52941J0D01*
G01*
X163562059Y-103325000D01*
G75*
G02*
X163615000Y-103377941I0J-52941D01*
G01*
X163615000Y-105072059D01*
G75*
G02*
X163562059Y-105125000I-52941J0D01*
G01*
G37*
D10*
X165255000Y-104225000D03*
X167795000Y-104225000D03*
X170335000Y-104225000D03*
X172875000Y-104225000D03*
D12*
X157515000Y-118375000D03*
X178105000Y-118315000D03*
%TD*%
%TO.C,3.3v CLK DIO GND*%
G36*
G01*
X126917059Y-62890000D02*
X125222941Y-62890000D01*
G75*
G02*
X125170000Y-62837059I0J52941D01*
G01*
X125170000Y-61142941D01*
G75*
G02*
X125222941Y-61090000I52941J0D01*
G01*
X126917059Y-61090000D01*
G75*
G02*
X126970000Y-61142941I0J-52941D01*
G01*
X126970000Y-62837059D01*
G75*
G02*
X126917059Y-62890000I-52941J0D01*
G01*
G37*
D10*
X128610000Y-61990000D03*
X131150000Y-61990000D03*
X133690000Y-61990000D03*
%TD*%
%TO.C,HC05*%
G36*
G01*
X160352941Y-60875000D02*
X162047059Y-60875000D01*
G75*
G02*
X162100000Y-60927941I0J-52941D01*
G01*
X162100000Y-62622059D01*
G75*
G02*
X162047059Y-62675000I-52941J0D01*
G01*
X160352941Y-62675000D01*
G75*
G02*
X160300000Y-62622059I0J52941D01*
G01*
X160300000Y-60927941D01*
G75*
G02*
X160352941Y-60875000I52941J0D01*
G01*
G37*
X158660000Y-61775000D03*
X156120000Y-61775000D03*
X153580000Y-61775000D03*
X151040000Y-61775000D03*
X148500000Y-61775000D03*
%TD*%
%TO.C,J7*%
G36*
G01*
X107922059Y-105050000D02*
X106227941Y-105050000D01*
G75*
G02*
X106175000Y-104997059I0J52941D01*
G01*
X106175000Y-103302941D01*
G75*
G02*
X106227941Y-103250000I52941J0D01*
G01*
X107922059Y-103250000D01*
G75*
G02*
X107975000Y-103302941I0J-52941D01*
G01*
X107975000Y-104997059D01*
G75*
G02*
X107922059Y-105050000I-52941J0D01*
G01*
G37*
X109615000Y-104150000D03*
X112155000Y-104150000D03*
X114695000Y-104150000D03*
X117235000Y-104150000D03*
D12*
X101875000Y-118300000D03*
X122465000Y-118240000D03*
%TD*%
%TO.C,LCD*%
G36*
G01*
X159850000Y-67347059D02*
X159850000Y-65652941D01*
G75*
G02*
X159902941Y-65600000I52941J0D01*
G01*
X161597059Y-65600000D01*
G75*
G02*
X161650000Y-65652941I0J-52941D01*
G01*
X161650000Y-67347059D01*
G75*
G02*
X161597059Y-67400000I-52941J0D01*
G01*
X159902941Y-67400000D01*
G75*
G02*
X159850000Y-67347059I0J52941D01*
G01*
G37*
D10*
X160750000Y-69040000D03*
X160750000Y-71580000D03*
X160750000Y-74120000D03*
X160750000Y-76660000D03*
X160750000Y-79200000D03*
X160750000Y-81740000D03*
X160750000Y-84280000D03*
X160750000Y-86820000D03*
X160750000Y-89360000D03*
X160750000Y-91900000D03*
%TD*%
D13*
%TO.C,SD CARD*%
X102060000Y-90625000D03*
X102060000Y-82625000D03*
%TD*%
%TO.C,nRF24*%
G36*
G01*
X166858719Y-65037000D02*
X165341281Y-65037000D01*
G75*
G02*
X165288000Y-64983719I0J53281D01*
G01*
X165288000Y-63466281D01*
G75*
G02*
X165341281Y-63413000I53281J0D01*
G01*
X166858719Y-63413000D01*
G75*
G02*
X166912000Y-63466281I0J-53281D01*
G01*
X166912000Y-64983719D01*
G75*
G02*
X166858719Y-65037000I-53281J0D01*
G01*
G37*
D14*
X166100000Y-61685000D03*
X168640000Y-64225000D03*
X168640000Y-61685000D03*
X171180000Y-64225000D03*
X171180000Y-61685000D03*
X173720000Y-64225000D03*
X173720000Y-61685000D03*
%TD*%
%TO.C,J9*%
G36*
G01*
X160882059Y-100755000D02*
X159187941Y-100755000D01*
G75*
G02*
X159135000Y-100702059I0J52941D01*
G01*
X159135000Y-99007941D01*
G75*
G02*
X159187941Y-98955000I52941J0D01*
G01*
X160882059Y-98955000D01*
G75*
G02*
X160935000Y-99007941I0J-52941D01*
G01*
X160935000Y-100702059D01*
G75*
G02*
X160882059Y-100755000I-52941J0D01*
G01*
G37*
D10*
X162575000Y-99855000D03*
X165115000Y-99855000D03*
%TD*%
%TO.C,J10*%
G36*
G01*
X160897059Y-97875000D02*
X159202941Y-97875000D01*
G75*
G02*
X159150000Y-97822059I0J52941D01*
G01*
X159150000Y-96127941D01*
G75*
G02*
X159202941Y-96075000I52941J0D01*
G01*
X160897059Y-96075000D01*
G75*
G02*
X160950000Y-96127941I0J-52941D01*
G01*
X160950000Y-97822059D01*
G75*
G02*
X160897059Y-97875000I-52941J0D01*
G01*
G37*
X162590000Y-96975000D03*
X165130000Y-96975000D03*
%TD*%
%TO.C,L298N*%
G36*
G01*
X167740000Y-82232059D02*
X167740000Y-80537941D01*
G75*
G02*
X167792941Y-80485000I52941J0D01*
G01*
X169487059Y-80485000D01*
G75*
G02*
X169540000Y-80537941I0J-52941D01*
G01*
X169540000Y-82232059D01*
G75*
G02*
X169487059Y-82285000I-52941J0D01*
G01*
X167792941Y-82285000D01*
G75*
G02*
X167740000Y-82232059I0J52941D01*
G01*
G37*
X168640000Y-83925000D03*
X168640000Y-86465000D03*
X168640000Y-89005000D03*
%TD*%
%TO.C,ENC2*%
G36*
G01*
X167750000Y-71172059D02*
X167750000Y-69477941D01*
G75*
G02*
X167802941Y-69425000I52941J0D01*
G01*
X169497059Y-69425000D01*
G75*
G02*
X169550000Y-69477941I0J-52941D01*
G01*
X169550000Y-71172059D01*
G75*
G02*
X169497059Y-71225000I-52941J0D01*
G01*
X167802941Y-71225000D01*
G75*
G02*
X167750000Y-71172059I0J52941D01*
G01*
G37*
X168650000Y-72865000D03*
X168650000Y-75405000D03*
X168650000Y-77945000D03*
%TD*%
%TO.C,ENC1*%
G36*
G01*
X167650000Y-93247059D02*
X167650000Y-91552941D01*
G75*
G02*
X167702941Y-91500000I52941J0D01*
G01*
X169397059Y-91500000D01*
G75*
G02*
X169450000Y-91552941I0J-52941D01*
G01*
X169450000Y-93247059D01*
G75*
G02*
X169397059Y-93300000I-52941J0D01*
G01*
X167702941Y-93300000D01*
G75*
G02*
X167650000Y-93247059I0J52941D01*
G01*
G37*
X168550000Y-94940000D03*
X168550000Y-97480000D03*
X168550000Y-100020000D03*
%TD*%
%TO.C,6  5  4  3  2  1*%
G36*
G01*
X175000000Y-99652941D02*
X175000000Y-101347059D01*
G75*
G02*
X174947059Y-101400000I-52941J0D01*
G01*
X173252941Y-101400000D01*
G75*
G02*
X173200000Y-101347059I0J52941D01*
G01*
X173200000Y-99652941D01*
G75*
G02*
X173252941Y-99600000I52941J0D01*
G01*
X174947059Y-99600000D01*
G75*
G02*
X175000000Y-99652941I0J-52941D01*
G01*
G37*
X174100000Y-97960000D03*
X174100000Y-95420000D03*
X174100000Y-92880000D03*
X174100000Y-90340000D03*
X174100000Y-87800000D03*
%TD*%
%TO.C,PWM PWR*%
G36*
G01*
X176025000Y-88667059D02*
X176025000Y-86972941D01*
G75*
G02*
X176077941Y-86920000I52941J0D01*
G01*
X177772059Y-86920000D01*
G75*
G02*
X177825000Y-86972941I0J-52941D01*
G01*
X177825000Y-88667059D01*
G75*
G02*
X177772059Y-88720000I-52941J0D01*
G01*
X176077941Y-88720000D01*
G75*
G02*
X176025000Y-88667059I0J52941D01*
G01*
G37*
X176925000Y-90360000D03*
X176925000Y-92900000D03*
X176925000Y-95440000D03*
X176925000Y-97980000D03*
X176925000Y-100520000D03*
%TD*%
%TO.C,GND*%
G36*
G01*
X178800000Y-88672059D02*
X178800000Y-86977941D01*
G75*
G02*
X178852941Y-86925000I52941J0D01*
G01*
X180547059Y-86925000D01*
G75*
G02*
X180600000Y-86977941I0J-52941D01*
G01*
X180600000Y-88672059D01*
G75*
G02*
X180547059Y-88725000I-52941J0D01*
G01*
X178852941Y-88725000D01*
G75*
G02*
X178800000Y-88672059I0J52941D01*
G01*
G37*
X179700000Y-90365000D03*
X179700000Y-92905000D03*
X179700000Y-95445000D03*
X179700000Y-97985000D03*
X179700000Y-100525000D03*
%TD*%
%TO.C,JACK DC*%
G36*
G01*
X105560000Y-74467778D02*
X105560000Y-76262222D01*
G75*
G02*
X105507222Y-76315000I-52778J0D01*
G01*
X101112778Y-76315000D01*
G75*
G02*
X101060000Y-76262222I0J52778D01*
G01*
X101060000Y-74467778D01*
G75*
G02*
X101112778Y-74415000I52778J0D01*
G01*
X105507222Y-74415000D01*
G75*
G02*
X105560000Y-74467778I0J-52778D01*
G01*
G37*
D15*
X103310000Y-69565000D03*
D16*
X98510000Y-72365000D03*
%TD*%
%TO.C,BUZZER*%
G36*
G01*
X153275000Y-74407941D02*
X153275000Y-76102059D01*
G75*
G02*
X153222059Y-76155000I-52941J0D01*
G01*
X151527941Y-76155000D01*
G75*
G02*
X151475000Y-76102059I0J52941D01*
G01*
X151475000Y-74407941D01*
G75*
G02*
X151527941Y-74355000I52941J0D01*
G01*
X153222059Y-74355000D01*
G75*
G02*
X153275000Y-74407941I0J-52941D01*
G01*
G37*
D10*
X152375000Y-72715000D03*
X152375000Y-70175000D03*
%TD*%
%TO.C,SERVO*%
G36*
G01*
X175872525Y-68135000D02*
X179827475Y-68135000D01*
G75*
G02*
X179880000Y-68187525I0J-52525D01*
G01*
X179880000Y-70162475D01*
G75*
G02*
X179827475Y-70215000I-52525J0D01*
G01*
X175872525Y-70215000D01*
G75*
G02*
X175820000Y-70162475I0J52525D01*
G01*
X175820000Y-68187525D01*
G75*
G02*
X175872525Y-68135000I52525J0D01*
G01*
G37*
D17*
X177850000Y-74175000D03*
%TD*%
D18*
%TO.C,BTN1*%
X133274999Y-106404999D03*
X133274999Y-99904999D03*
X137774999Y-99904999D03*
X137774999Y-106404999D03*
%TD*%
%TO.C,BTN3*%
X152849999Y-99904999D03*
X152849999Y-106404999D03*
X148349999Y-99904999D03*
X148349999Y-106404999D03*
%TD*%
%TO.C,BTN2*%
X145324999Y-99904999D03*
X145324999Y-106404999D03*
X140824999Y-106404999D03*
X140824999Y-99904999D03*
%TD*%
%TO.C,NRST*%
X125749999Y-106429999D03*
X125749999Y-99929999D03*
X130249999Y-106429999D03*
X130249999Y-99929999D03*
%TD*%
%TO.C,C25*%
G36*
G01*
X175900000Y-82871875D02*
X175900000Y-81278125D01*
G75*
G02*
X175953125Y-81225000I53125J0D01*
G01*
X177546875Y-81225000D01*
G75*
G02*
X177600000Y-81278125I0J-53125D01*
G01*
X177600000Y-82871875D01*
G75*
G02*
X177546875Y-82925000I-53125J0D01*
G01*
X175953125Y-82925000D01*
G75*
G02*
X175900000Y-82871875I0J53125D01*
G01*
G37*
D19*
X179250000Y-82075000D03*
%TD*%
%TO.C,J3*%
G36*
G01*
X124840000Y-90477059D02*
X124840000Y-88782941D01*
G75*
G02*
X124892941Y-88730000I52941J0D01*
G01*
X126587059Y-88730000D01*
G75*
G02*
X126640000Y-88782941I0J-52941D01*
G01*
X126640000Y-90477059D01*
G75*
G02*
X126587059Y-90530000I-52941J0D01*
G01*
X124892941Y-90530000D01*
G75*
G02*
X124840000Y-90477059I0J52941D01*
G01*
G37*
D10*
X125740000Y-92170000D03*
%TD*%
%TO.C,C3*%
G36*
G01*
X128428260Y-103129999D02*
X127471738Y-103129999D01*
G75*
G02*
X127199999Y-102858260I0J271739D01*
G01*
X127199999Y-102151738D01*
G75*
G02*
X127471738Y-101879999I271739J0D01*
G01*
X128428260Y-101879999D01*
G75*
G02*
X128699999Y-102151738I0J-271739D01*
G01*
X128699999Y-102858260D01*
G75*
G02*
X128428260Y-103129999I-271739J0D01*
G01*
G37*
G36*
G01*
X128428260Y-101079999D02*
X127471738Y-101079999D01*
G75*
G02*
X127199999Y-100808260I0J271739D01*
G01*
X127199999Y-100101738D01*
G75*
G02*
X127471738Y-99829999I271739J0D01*
G01*
X128428260Y-99829999D01*
G75*
G02*
X128699999Y-100101738I0J-271739D01*
G01*
X128699999Y-100808260D01*
G75*
G02*
X128428260Y-101079999I-271739J0D01*
G01*
G37*
%TD*%
%TO.C,C14*%
G36*
G01*
X151003260Y-103129999D02*
X150046738Y-103129999D01*
G75*
G02*
X149774999Y-102858260I0J271739D01*
G01*
X149774999Y-102151738D01*
G75*
G02*
X150046738Y-101879999I271739J0D01*
G01*
X151003260Y-101879999D01*
G75*
G02*
X151274999Y-102151738I0J-271739D01*
G01*
X151274999Y-102858260D01*
G75*
G02*
X151003260Y-103129999I-271739J0D01*
G01*
G37*
G36*
G01*
X151003260Y-101079999D02*
X150046738Y-101079999D01*
G75*
G02*
X149774999Y-100808260I0J271739D01*
G01*
X149774999Y-100101738D01*
G75*
G02*
X150046738Y-99829999I271739J0D01*
G01*
X151003260Y-99829999D01*
G75*
G02*
X151274999Y-100101738I0J-271739D01*
G01*
X151274999Y-100808260D01*
G75*
G02*
X151003260Y-101079999I-271739J0D01*
G01*
G37*
%TD*%
%TO.C,C17*%
G36*
G01*
X135978260Y-103429999D02*
X135021738Y-103429999D01*
G75*
G02*
X134749999Y-103158260I0J271739D01*
G01*
X134749999Y-102451738D01*
G75*
G02*
X135021738Y-102179999I271739J0D01*
G01*
X135978260Y-102179999D01*
G75*
G02*
X136249999Y-102451738I0J-271739D01*
G01*
X136249999Y-103158260D01*
G75*
G02*
X135978260Y-103429999I-271739J0D01*
G01*
G37*
G36*
G01*
X135978260Y-101379999D02*
X135021738Y-101379999D01*
G75*
G02*
X134749999Y-101108260I0J271739D01*
G01*
X134749999Y-100401738D01*
G75*
G02*
X135021738Y-100129999I271739J0D01*
G01*
X135978260Y-100129999D01*
G75*
G02*
X136249999Y-100401738I0J-271739D01*
G01*
X136249999Y-101108260D01*
G75*
G02*
X135978260Y-101379999I-271739J0D01*
G01*
G37*
%TD*%
%TO.C,C18*%
G36*
G01*
X143528260Y-103329999D02*
X142571738Y-103329999D01*
G75*
G02*
X142299999Y-103058260I0J271739D01*
G01*
X142299999Y-102351738D01*
G75*
G02*
X142571738Y-102079999I271739J0D01*
G01*
X143528260Y-102079999D01*
G75*
G02*
X143799999Y-102351738I0J-271739D01*
G01*
X143799999Y-103058260D01*
G75*
G02*
X143528260Y-103329999I-271739J0D01*
G01*
G37*
G36*
G01*
X143528260Y-101279999D02*
X142571738Y-101279999D01*
G75*
G02*
X142299999Y-101008260I0J271739D01*
G01*
X142299999Y-100301738D01*
G75*
G02*
X142571738Y-100029999I271739J0D01*
G01*
X143528260Y-100029999D01*
G75*
G02*
X143799999Y-100301738I0J-271739D01*
G01*
X143799999Y-101008260D01*
G75*
G02*
X143528260Y-101279999I-271739J0D01*
G01*
G37*
%TD*%
%TO.C,R2*%
G36*
G01*
X128478260Y-106804999D02*
X127521738Y-106804999D01*
G75*
G02*
X127249999Y-106533260I0J271739D01*
G01*
X127249999Y-105826738D01*
G75*
G02*
X127521738Y-105554999I271739J0D01*
G01*
X128478260Y-105554999D01*
G75*
G02*
X128749999Y-105826738I0J-271739D01*
G01*
X128749999Y-106533260D01*
G75*
G02*
X128478260Y-106804999I-271739J0D01*
G01*
G37*
G36*
G01*
X128478260Y-104754999D02*
X127521738Y-104754999D01*
G75*
G02*
X127249999Y-104483260I0J271739D01*
G01*
X127249999Y-103776738D01*
G75*
G02*
X127521738Y-103504999I271739J0D01*
G01*
X128478260Y-103504999D01*
G75*
G02*
X128749999Y-103776738I0J-271739D01*
G01*
X128749999Y-104483260D01*
G75*
G02*
X128478260Y-104754999I-271739J0D01*
G01*
G37*
%TD*%
%TO.C,R10*%
G36*
G01*
X151028260Y-106854999D02*
X150071738Y-106854999D01*
G75*
G02*
X149799999Y-106583260I0J271739D01*
G01*
X149799999Y-105876738D01*
G75*
G02*
X150071738Y-105604999I271739J0D01*
G01*
X151028260Y-105604999D01*
G75*
G02*
X151299999Y-105876738I0J-271739D01*
G01*
X151299999Y-106583260D01*
G75*
G02*
X151028260Y-106854999I-271739J0D01*
G01*
G37*
G36*
G01*
X151028260Y-104804999D02*
X150071738Y-104804999D01*
G75*
G02*
X149799999Y-104533260I0J271739D01*
G01*
X149799999Y-103826738D01*
G75*
G02*
X150071738Y-103554999I271739J0D01*
G01*
X151028260Y-103554999D01*
G75*
G02*
X151299999Y-103826738I0J-271739D01*
G01*
X151299999Y-104533260D01*
G75*
G02*
X151028260Y-104804999I-271739J0D01*
G01*
G37*
%TD*%
%TO.C,R12*%
G36*
G01*
X136003260Y-107079999D02*
X135046738Y-107079999D01*
G75*
G02*
X134774999Y-106808260I0J271739D01*
G01*
X134774999Y-106101738D01*
G75*
G02*
X135046738Y-105829999I271739J0D01*
G01*
X136003260Y-105829999D01*
G75*
G02*
X136274999Y-106101738I0J-271739D01*
G01*
X136274999Y-106808260D01*
G75*
G02*
X136003260Y-107079999I-271739J0D01*
G01*
G37*
G36*
G01*
X136003260Y-105029999D02*
X135046738Y-105029999D01*
G75*
G02*
X134774999Y-104758260I0J271739D01*
G01*
X134774999Y-104051738D01*
G75*
G02*
X135046738Y-103779999I271739J0D01*
G01*
X136003260Y-103779999D01*
G75*
G02*
X136274999Y-104051738I0J-271739D01*
G01*
X136274999Y-104758260D01*
G75*
G02*
X136003260Y-105029999I-271739J0D01*
G01*
G37*
%TD*%
%TO.C,R13*%
G36*
G01*
X143553260Y-107054999D02*
X142596738Y-107054999D01*
G75*
G02*
X142324999Y-106783260I0J271739D01*
G01*
X142324999Y-106076738D01*
G75*
G02*
X142596738Y-105804999I271739J0D01*
G01*
X143553260Y-105804999D01*
G75*
G02*
X143824999Y-106076738I0J-271739D01*
G01*
X143824999Y-106783260D01*
G75*
G02*
X143553260Y-107054999I-271739J0D01*
G01*
G37*
G36*
G01*
X143553260Y-105004999D02*
X142596738Y-105004999D01*
G75*
G02*
X142324999Y-104733260I0J271739D01*
G01*
X142324999Y-104026738D01*
G75*
G02*
X142596738Y-103754999I271739J0D01*
G01*
X143553260Y-103754999D01*
G75*
G02*
X143824999Y-104026738I0J-271739D01*
G01*
X143824999Y-104733260D01*
G75*
G02*
X143553260Y-105004999I-271739J0D01*
G01*
G37*
%TD*%
%TO.C,D5*%
G36*
G01*
X109427778Y-69835000D02*
X106472222Y-69835000D01*
G75*
G02*
X106200000Y-69562778I0J272222D01*
G01*
X106200000Y-68882222D01*
G75*
G02*
X106472222Y-68610000I272222J0D01*
G01*
X109427778Y-68610000D01*
G75*
G02*
X109700000Y-68882222I0J-272222D01*
G01*
X109700000Y-69562778D01*
G75*
G02*
X109427778Y-69835000I-272222J0D01*
G01*
G37*
G36*
G01*
X109427778Y-65560000D02*
X106472222Y-65560000D01*
G75*
G02*
X106200000Y-65287778I0J272222D01*
G01*
X106200000Y-64607222D01*
G75*
G02*
X106472222Y-64335000I272222J0D01*
G01*
X109427778Y-64335000D01*
G75*
G02*
X109700000Y-64607222I0J-272222D01*
G01*
X109700000Y-65287778D01*
G75*
G02*
X109427778Y-65560000I-272222J0D01*
G01*
G37*
%TD*%
%TO.C,C24*%
G36*
G01*
X157246739Y-65750000D02*
X158203261Y-65750000D01*
G75*
G02*
X158475000Y-66021739I0J-271739D01*
G01*
X158475000Y-66728261D01*
G75*
G02*
X158203261Y-67000000I-271739J0D01*
G01*
X157246739Y-67000000D01*
G75*
G02*
X156975000Y-66728261I0J271739D01*
G01*
X156975000Y-66021739D01*
G75*
G02*
X157246739Y-65750000I271739J0D01*
G01*
G37*
G36*
G01*
X157246739Y-67800000D02*
X158203261Y-67800000D01*
G75*
G02*
X158475000Y-68071739I0J-271739D01*
G01*
X158475000Y-68778261D01*
G75*
G02*
X158203261Y-69050000I-271739J0D01*
G01*
X157246739Y-69050000D01*
G75*
G02*
X156975000Y-68778261I0J271739D01*
G01*
X156975000Y-68071739D01*
G75*
G02*
X157246739Y-67800000I271739J0D01*
G01*
G37*
%TD*%
%TO.C,C23*%
G36*
G01*
X167925000Y-68528261D02*
X167925000Y-67571739D01*
G75*
G02*
X168196739Y-67300000I271739J0D01*
G01*
X168903261Y-67300000D01*
G75*
G02*
X169175000Y-67571739I0J-271739D01*
G01*
X169175000Y-68528261D01*
G75*
G02*
X168903261Y-68800000I-271739J0D01*
G01*
X168196739Y-68800000D01*
G75*
G02*
X167925000Y-68528261I0J271739D01*
G01*
G37*
G36*
G01*
X169975000Y-68528261D02*
X169975000Y-67571739D01*
G75*
G02*
X170246739Y-67300000I271739J0D01*
G01*
X170953261Y-67300000D01*
G75*
G02*
X171225000Y-67571739I0J-271739D01*
G01*
X171225000Y-68528261D01*
G75*
G02*
X170953261Y-68800000I-271739J0D01*
G01*
X170246739Y-68800000D01*
G75*
G02*
X169975000Y-68528261I0J271739D01*
G01*
G37*
%TD*%
%TO.C,C22*%
G36*
G01*
X157900000Y-63896739D02*
X157900000Y-64853261D01*
G75*
G02*
X157628261Y-65125000I-271739J0D01*
G01*
X156921739Y-65125000D01*
G75*
G02*
X156650000Y-64853261I0J271739D01*
G01*
X156650000Y-63896739D01*
G75*
G02*
X156921739Y-63625000I271739J0D01*
G01*
X157628261Y-63625000D01*
G75*
G02*
X157900000Y-63896739I0J-271739D01*
G01*
G37*
G36*
G01*
X155850000Y-63896739D02*
X155850000Y-64853261D01*
G75*
G02*
X155578261Y-65125000I-271739J0D01*
G01*
X154871739Y-65125000D01*
G75*
G02*
X154600000Y-64853261I0J271739D01*
G01*
X154600000Y-63896739D01*
G75*
G02*
X154871739Y-63625000I271739J0D01*
G01*
X155578261Y-63625000D01*
G75*
G02*
X155850000Y-63896739I0J-271739D01*
G01*
G37*
%TD*%
%TO.C,C16*%
G36*
G01*
X122050000Y-95146739D02*
X122050000Y-96103261D01*
G75*
G02*
X121778261Y-96375000I-271739J0D01*
G01*
X121071739Y-96375000D01*
G75*
G02*
X120800000Y-96103261I0J271739D01*
G01*
X120800000Y-95146739D01*
G75*
G02*
X121071739Y-94875000I271739J0D01*
G01*
X121778261Y-94875000D01*
G75*
G02*
X122050000Y-95146739I0J-271739D01*
G01*
G37*
G36*
G01*
X120000000Y-95146739D02*
X120000000Y-96103261D01*
G75*
G02*
X119728261Y-96375000I-271739J0D01*
G01*
X119021739Y-96375000D01*
G75*
G02*
X118750000Y-96103261I0J271739D01*
G01*
X118750000Y-95146739D01*
G75*
G02*
X119021739Y-94875000I271739J0D01*
G01*
X119728261Y-94875000D01*
G75*
G02*
X120000000Y-95146739I0J-271739D01*
G01*
G37*
%TD*%
M02*
