%TF.GenerationSoftware,KiCad,Pcbnew,(5.99.0-3293-g62433736b)*%
%TF.CreationDate,2020-10-14T19:58:00+07:00*%
%TF.ProjectId,C21_board,4332315f-626f-4617-9264-2e6b69636164,rev?*%
%TF.SameCoordinates,Original*%
%TF.FileFunction,Legend,Bot*%
%TF.FilePolarity,Positive*%
%FSLAX46Y46*%
G04 Gerber Fmt 4.6, Leading zero omitted, Abs format (unit mm)*
G04 Created by KiCad (PCBNEW (5.99.0-3293-g62433736b)) date 2020-10-14 19:58:00*
%MOMM*%
%LPD*%
G01*
G04 APERTURE LIST*
%ADD10C,0.150000*%
%ADD11C,0.120000*%
%ADD12C,0.010000*%
G04 APERTURE END LIST*
D10*
%TO.C,C3*%
X129957141Y-101883333D02*
X130004760Y-101835714D01*
X130052379Y-101692857D01*
X130052379Y-101597619D01*
X130004760Y-101454761D01*
X129909522Y-101359523D01*
X129814284Y-101311904D01*
X129623808Y-101264285D01*
X129480951Y-101264285D01*
X129290475Y-101311904D01*
X129195237Y-101359523D01*
X129099999Y-101454761D01*
X129052379Y-101597619D01*
X129052379Y-101692857D01*
X129099999Y-101835714D01*
X129147618Y-101883333D01*
X129052379Y-102216666D02*
X129052379Y-102835714D01*
X129433332Y-102502380D01*
X129433332Y-102645238D01*
X129480951Y-102740476D01*
X129528570Y-102788095D01*
X129623808Y-102835714D01*
X129861903Y-102835714D01*
X129957141Y-102788095D01*
X130004760Y-102740476D01*
X130052379Y-102645238D01*
X130052379Y-102359523D01*
X130004760Y-102264285D01*
X129957141Y-102216666D01*
%TO.C,C14*%
X152532141Y-101915142D02*
X152579760Y-101867523D01*
X152627379Y-101724666D01*
X152627379Y-101629428D01*
X152579760Y-101486571D01*
X152484522Y-101391333D01*
X152389284Y-101343714D01*
X152198808Y-101296095D01*
X152055951Y-101296095D01*
X151865475Y-101343714D01*
X151770237Y-101391333D01*
X151674999Y-101486571D01*
X151627379Y-101629428D01*
X151627379Y-101724666D01*
X151674999Y-101867523D01*
X151722618Y-101915142D01*
X152627379Y-102867523D02*
X152627379Y-102296095D01*
X152627379Y-102581809D02*
X151627379Y-102581809D01*
X151770237Y-102486571D01*
X151865475Y-102391333D01*
X151913094Y-102296095D01*
X151960713Y-103724666D02*
X152627379Y-103724666D01*
X151579760Y-103486571D02*
X152294046Y-103248476D01*
X152294046Y-103867523D01*
%TO.C,C17*%
X137507141Y-101661142D02*
X137554760Y-101613523D01*
X137602379Y-101470666D01*
X137602379Y-101375428D01*
X137554760Y-101232571D01*
X137459522Y-101137333D01*
X137364284Y-101089714D01*
X137173808Y-101042095D01*
X137030951Y-101042095D01*
X136840475Y-101089714D01*
X136745237Y-101137333D01*
X136649999Y-101232571D01*
X136602379Y-101375428D01*
X136602379Y-101470666D01*
X136649999Y-101613523D01*
X136697618Y-101661142D01*
X137602379Y-102613523D02*
X137602379Y-102042095D01*
X137602379Y-102327809D02*
X136602379Y-102327809D01*
X136745237Y-102232571D01*
X136840475Y-102137333D01*
X136888094Y-102042095D01*
X136602379Y-102946857D02*
X136602379Y-103613523D01*
X137602379Y-103184952D01*
%TO.C,C18*%
X144855142Y-101661142D02*
X144902761Y-101613523D01*
X144950380Y-101470666D01*
X144950380Y-101375428D01*
X144902761Y-101232571D01*
X144807523Y-101137333D01*
X144712285Y-101089714D01*
X144521809Y-101042095D01*
X144378952Y-101042095D01*
X144188476Y-101089714D01*
X144093238Y-101137333D01*
X143998000Y-101232571D01*
X143950380Y-101375428D01*
X143950380Y-101470666D01*
X143998000Y-101613523D01*
X144045619Y-101661142D01*
X144950380Y-102613523D02*
X144950380Y-102042095D01*
X144950380Y-102327809D02*
X143950380Y-102327809D01*
X144093238Y-102232571D01*
X144188476Y-102137333D01*
X144236095Y-102042095D01*
X144378952Y-103184952D02*
X144331333Y-103089714D01*
X144283714Y-103042095D01*
X144188476Y-102994476D01*
X144140857Y-102994476D01*
X144045619Y-103042095D01*
X143998000Y-103089714D01*
X143950380Y-103184952D01*
X143950380Y-103375428D01*
X143998000Y-103470666D01*
X144045619Y-103518285D01*
X144140857Y-103565904D01*
X144188476Y-103565904D01*
X144283714Y-103518285D01*
X144331333Y-103470666D01*
X144378952Y-103375428D01*
X144378952Y-103184952D01*
X144426571Y-103089714D01*
X144474190Y-103042095D01*
X144569428Y-102994476D01*
X144759904Y-102994476D01*
X144855142Y-103042095D01*
X144902761Y-103089714D01*
X144950380Y-103184952D01*
X144950380Y-103375428D01*
X144902761Y-103470666D01*
X144855142Y-103518285D01*
X144759904Y-103565904D01*
X144569428Y-103565904D01*
X144474190Y-103518285D01*
X144426571Y-103470666D01*
X144378952Y-103375428D01*
%TO.C,R2*%
X126662380Y-103915333D02*
X126186190Y-103582000D01*
X126662380Y-103343904D02*
X125662380Y-103343904D01*
X125662380Y-103724857D01*
X125710000Y-103820095D01*
X125757619Y-103867714D01*
X125852857Y-103915333D01*
X125995714Y-103915333D01*
X126090952Y-103867714D01*
X126138571Y-103820095D01*
X126186190Y-103724857D01*
X126186190Y-103343904D01*
X125757619Y-104296285D02*
X125710000Y-104343904D01*
X125662380Y-104439142D01*
X125662380Y-104677238D01*
X125710000Y-104772476D01*
X125757619Y-104820095D01*
X125852857Y-104867714D01*
X125948095Y-104867714D01*
X126090952Y-104820095D01*
X126662380Y-104248666D01*
X126662380Y-104867714D01*
%TO.C,R10*%
X149268380Y-103185142D02*
X148792190Y-102851809D01*
X149268380Y-102613714D02*
X148268380Y-102613714D01*
X148268380Y-102994666D01*
X148316000Y-103089904D01*
X148363619Y-103137523D01*
X148458857Y-103185142D01*
X148601714Y-103185142D01*
X148696952Y-103137523D01*
X148744571Y-103089904D01*
X148792190Y-102994666D01*
X148792190Y-102613714D01*
X149268380Y-104137523D02*
X149268380Y-103566095D01*
X149268380Y-103851809D02*
X148268380Y-103851809D01*
X148411238Y-103756571D01*
X148506476Y-103661333D01*
X148554095Y-103566095D01*
X148268380Y-104756571D02*
X148268380Y-104851809D01*
X148316000Y-104947047D01*
X148363619Y-104994666D01*
X148458857Y-105042285D01*
X148649333Y-105089904D01*
X148887428Y-105089904D01*
X149077904Y-105042285D01*
X149173142Y-104994666D01*
X149220761Y-104947047D01*
X149268380Y-104851809D01*
X149268380Y-104756571D01*
X149220761Y-104661333D01*
X149173142Y-104613714D01*
X149077904Y-104566095D01*
X148887428Y-104518476D01*
X148649333Y-104518476D01*
X148458857Y-104566095D01*
X148363619Y-104613714D01*
X148316000Y-104661333D01*
X148268380Y-104756571D01*
%TO.C,R12*%
X134028380Y-103185142D02*
X133552190Y-102851809D01*
X134028380Y-102613714D02*
X133028380Y-102613714D01*
X133028380Y-102994666D01*
X133076000Y-103089904D01*
X133123619Y-103137523D01*
X133218857Y-103185142D01*
X133361714Y-103185142D01*
X133456952Y-103137523D01*
X133504571Y-103089904D01*
X133552190Y-102994666D01*
X133552190Y-102613714D01*
X134028380Y-104137523D02*
X134028380Y-103566095D01*
X134028380Y-103851809D02*
X133028380Y-103851809D01*
X133171238Y-103756571D01*
X133266476Y-103661333D01*
X133314095Y-103566095D01*
X133123619Y-104518476D02*
X133076000Y-104566095D01*
X133028380Y-104661333D01*
X133028380Y-104899428D01*
X133076000Y-104994666D01*
X133123619Y-105042285D01*
X133218857Y-105089904D01*
X133314095Y-105089904D01*
X133456952Y-105042285D01*
X134028380Y-104470857D01*
X134028380Y-105089904D01*
%TO.C,R13*%
X141648380Y-103185142D02*
X141172190Y-102851809D01*
X141648380Y-102613714D02*
X140648380Y-102613714D01*
X140648380Y-102994666D01*
X140696000Y-103089904D01*
X140743619Y-103137523D01*
X140838857Y-103185142D01*
X140981714Y-103185142D01*
X141076952Y-103137523D01*
X141124571Y-103089904D01*
X141172190Y-102994666D01*
X141172190Y-102613714D01*
X141648380Y-104137523D02*
X141648380Y-103566095D01*
X141648380Y-103851809D02*
X140648380Y-103851809D01*
X140791238Y-103756571D01*
X140886476Y-103661333D01*
X140934095Y-103566095D01*
X140648380Y-104470857D02*
X140648380Y-105089904D01*
X141029333Y-104756571D01*
X141029333Y-104899428D01*
X141076952Y-104994666D01*
X141124571Y-105042285D01*
X141219809Y-105089904D01*
X141457904Y-105089904D01*
X141553142Y-105042285D01*
X141600761Y-104994666D01*
X141648380Y-104899428D01*
X141648380Y-104613714D01*
X141600761Y-104518476D01*
X141553142Y-104470857D01*
%TO.C,D5*%
X111052380Y-66346904D02*
X110052380Y-66346904D01*
X110052380Y-66585000D01*
X110100000Y-66727857D01*
X110195238Y-66823095D01*
X110290476Y-66870714D01*
X110480952Y-66918333D01*
X110623809Y-66918333D01*
X110814285Y-66870714D01*
X110909523Y-66823095D01*
X111004761Y-66727857D01*
X111052380Y-66585000D01*
X111052380Y-66346904D01*
X110052380Y-67823095D02*
X110052380Y-67346904D01*
X110528571Y-67299285D01*
X110480952Y-67346904D01*
X110433333Y-67442142D01*
X110433333Y-67680238D01*
X110480952Y-67775476D01*
X110528571Y-67823095D01*
X110623809Y-67870714D01*
X110861904Y-67870714D01*
X110957142Y-67823095D01*
X111004761Y-67775476D01*
X111052380Y-67680238D01*
X111052380Y-67442142D01*
X111004761Y-67346904D01*
X110957142Y-67299285D01*
%TO.C,C24*%
X156432142Y-66757142D02*
X156479761Y-66709523D01*
X156527380Y-66566666D01*
X156527380Y-66471428D01*
X156479761Y-66328571D01*
X156384523Y-66233333D01*
X156289285Y-66185714D01*
X156098809Y-66138095D01*
X155955952Y-66138095D01*
X155765476Y-66185714D01*
X155670238Y-66233333D01*
X155575000Y-66328571D01*
X155527380Y-66471428D01*
X155527380Y-66566666D01*
X155575000Y-66709523D01*
X155622619Y-66757142D01*
X155622619Y-67138095D02*
X155575000Y-67185714D01*
X155527380Y-67280952D01*
X155527380Y-67519047D01*
X155575000Y-67614285D01*
X155622619Y-67661904D01*
X155717857Y-67709523D01*
X155813095Y-67709523D01*
X155955952Y-67661904D01*
X156527380Y-67090476D01*
X156527380Y-67709523D01*
X155860714Y-68566666D02*
X156527380Y-68566666D01*
X155479761Y-68328571D02*
X156194047Y-68090476D01*
X156194047Y-68709523D01*
%TO.C,C23*%
X166222857Y-68371142D02*
X166270476Y-68418761D01*
X166413333Y-68466380D01*
X166508571Y-68466380D01*
X166651428Y-68418761D01*
X166746666Y-68323523D01*
X166794285Y-68228285D01*
X166841904Y-68037809D01*
X166841904Y-67894952D01*
X166794285Y-67704476D01*
X166746666Y-67609238D01*
X166651428Y-67514000D01*
X166508571Y-67466380D01*
X166413333Y-67466380D01*
X166270476Y-67514000D01*
X166222857Y-67561619D01*
X165841904Y-67561619D02*
X165794285Y-67514000D01*
X165699047Y-67466380D01*
X165460952Y-67466380D01*
X165365714Y-67514000D01*
X165318095Y-67561619D01*
X165270476Y-67656857D01*
X165270476Y-67752095D01*
X165318095Y-67894952D01*
X165889523Y-68466380D01*
X165270476Y-68466380D01*
X164937142Y-67466380D02*
X164318095Y-67466380D01*
X164651428Y-67847333D01*
X164508571Y-67847333D01*
X164413333Y-67894952D01*
X164365714Y-67942571D01*
X164318095Y-68037809D01*
X164318095Y-68275904D01*
X164365714Y-68371142D01*
X164413333Y-68418761D01*
X164508571Y-68466380D01*
X164794285Y-68466380D01*
X164889523Y-68418761D01*
X164937142Y-68371142D01*
%TO.C,C22*%
X153268857Y-64815142D02*
X153316476Y-64862761D01*
X153459333Y-64910380D01*
X153554571Y-64910380D01*
X153697428Y-64862761D01*
X153792666Y-64767523D01*
X153840285Y-64672285D01*
X153887904Y-64481809D01*
X153887904Y-64338952D01*
X153840285Y-64148476D01*
X153792666Y-64053238D01*
X153697428Y-63958000D01*
X153554571Y-63910380D01*
X153459333Y-63910380D01*
X153316476Y-63958000D01*
X153268857Y-64005619D01*
X152887904Y-64005619D02*
X152840285Y-63958000D01*
X152745047Y-63910380D01*
X152506952Y-63910380D01*
X152411714Y-63958000D01*
X152364095Y-64005619D01*
X152316476Y-64100857D01*
X152316476Y-64196095D01*
X152364095Y-64338952D01*
X152935523Y-64910380D01*
X152316476Y-64910380D01*
X151935523Y-64005619D02*
X151887904Y-63958000D01*
X151792666Y-63910380D01*
X151554571Y-63910380D01*
X151459333Y-63958000D01*
X151411714Y-64005619D01*
X151364095Y-64100857D01*
X151364095Y-64196095D01*
X151411714Y-64338952D01*
X151983142Y-64910380D01*
X151364095Y-64910380D01*
%TO.C,C16*%
X121042857Y-94332142D02*
X121090476Y-94379761D01*
X121233333Y-94427380D01*
X121328571Y-94427380D01*
X121471428Y-94379761D01*
X121566666Y-94284523D01*
X121614285Y-94189285D01*
X121661904Y-93998809D01*
X121661904Y-93855952D01*
X121614285Y-93665476D01*
X121566666Y-93570238D01*
X121471428Y-93475000D01*
X121328571Y-93427380D01*
X121233333Y-93427380D01*
X121090476Y-93475000D01*
X121042857Y-93522619D01*
X120090476Y-94427380D02*
X120661904Y-94427380D01*
X120376190Y-94427380D02*
X120376190Y-93427380D01*
X120471428Y-93570238D01*
X120566666Y-93665476D01*
X120661904Y-93713095D01*
X119233333Y-93427380D02*
X119423809Y-93427380D01*
X119519047Y-93475000D01*
X119566666Y-93522619D01*
X119661904Y-93665476D01*
X119709523Y-93855952D01*
X119709523Y-94236904D01*
X119661904Y-94332142D01*
X119614285Y-94379761D01*
X119519047Y-94427380D01*
X119328571Y-94427380D01*
X119233333Y-94379761D01*
X119185714Y-94332142D01*
X119138095Y-94236904D01*
X119138095Y-93998809D01*
X119185714Y-93903571D01*
X119233333Y-93855952D01*
X119328571Y-93808333D01*
X119519047Y-93808333D01*
X119614285Y-93855952D01*
X119661904Y-93903571D01*
X119709523Y-93998809D01*
D11*
%TO.C,C3*%
X127239999Y-101741251D02*
X127239999Y-101218747D01*
X128659999Y-101741251D02*
X128659999Y-101218747D01*
%TO.C,C14*%
X151234999Y-101741251D02*
X151234999Y-101218747D01*
X149814999Y-101741251D02*
X149814999Y-101218747D01*
%TO.C,C17*%
X136209999Y-102041251D02*
X136209999Y-101518747D01*
X134789999Y-102041251D02*
X134789999Y-101518747D01*
%TO.C,C18*%
X143759999Y-101941251D02*
X143759999Y-101418747D01*
X142339999Y-101941251D02*
X142339999Y-101418747D01*
%TO.C,R2*%
X128709999Y-105416251D02*
X128709999Y-104893747D01*
X127289999Y-105416251D02*
X127289999Y-104893747D01*
%TO.C,R10*%
X151259999Y-105466251D02*
X151259999Y-104943747D01*
X149839999Y-105466251D02*
X149839999Y-104943747D01*
%TO.C,R12*%
X136234999Y-105691251D02*
X136234999Y-105168747D01*
X134814999Y-105691251D02*
X134814999Y-105168747D01*
%TO.C,R13*%
X143784999Y-105666251D02*
X143784999Y-105143747D01*
X142364999Y-105666251D02*
X142364999Y-105143747D01*
%TO.C,D5*%
X109910000Y-64835000D02*
X109910000Y-70045000D01*
X105990000Y-70045000D02*
X105990000Y-64835000D01*
X109910000Y-70045000D02*
X105990000Y-70045000D01*
%TO.C,C24*%
X158435000Y-67138748D02*
X158435000Y-67661252D01*
X157015000Y-67138748D02*
X157015000Y-67661252D01*
%TO.C,G\u002A\u002A\u002A*%
G36*
X145024937Y-83495310D02*
G01*
X144864360Y-83713385D01*
X144631489Y-83868052D01*
X144595553Y-83883126D01*
X144412425Y-83936459D01*
X144239144Y-83958016D01*
X144162820Y-83953833D01*
X143926348Y-83897130D01*
X143706755Y-83788008D01*
X143543426Y-83644231D01*
X143476338Y-83540816D01*
X143384320Y-83288152D01*
X143350660Y-82999327D01*
X143352459Y-82979270D01*
X143733828Y-82979270D01*
X143755374Y-83235191D01*
X143829357Y-83427758D01*
X143960871Y-83573267D01*
X144000201Y-83601119D01*
X144185036Y-83665841D01*
X144379776Y-83640684D01*
X144566198Y-83527039D01*
X144642546Y-83454798D01*
X144689394Y-83388058D01*
X144713893Y-83301221D01*
X144723283Y-83168610D01*
X144724804Y-82964547D01*
X144723287Y-82760641D01*
X144713908Y-82627973D01*
X144689427Y-82541105D01*
X144642604Y-82474358D01*
X144566198Y-82402054D01*
X144485450Y-82339353D01*
X144294579Y-82262646D01*
X144102955Y-82282734D01*
X143914799Y-82399633D01*
X143837614Y-82475690D01*
X143783560Y-82562440D01*
X143754700Y-82679988D01*
X143738363Y-82861500D01*
X143733828Y-82979270D01*
X143352459Y-82979270D01*
X143377211Y-82703367D01*
X143465828Y-82429301D01*
X143472078Y-82416483D01*
X143623339Y-82215536D01*
X143835036Y-82072051D01*
X144085583Y-81993020D01*
X144353395Y-81985439D01*
X144616887Y-82056302D01*
X144702037Y-82099371D01*
X144910157Y-82272434D01*
X145048705Y-82512522D01*
X145118408Y-82820745D01*
X145123690Y-82880809D01*
X145120736Y-82964547D01*
X145111840Y-83216795D01*
X145024937Y-83495310D01*
G37*
G36*
X148406483Y-82041793D02*
G01*
X148662621Y-82746000D01*
X148717144Y-82892720D01*
X148800492Y-83103956D01*
X148870069Y-83264195D01*
X148919828Y-83359856D01*
X148943721Y-83377357D01*
X148948065Y-83364832D01*
X148981311Y-83270358D01*
X149038392Y-83108966D01*
X149112622Y-82899552D01*
X149197310Y-82661009D01*
X149425938Y-82017510D01*
X149798530Y-82017510D01*
X149708900Y-82248199D01*
X149583669Y-82573163D01*
X149428284Y-82987392D01*
X149308329Y-83323878D01*
X149221658Y-83589329D01*
X149166126Y-83790453D01*
X149139586Y-83933956D01*
X149139892Y-84026545D01*
X149143112Y-84042594D01*
X149217039Y-84218885D01*
X149341695Y-84320516D01*
X149506635Y-84338598D01*
X149603698Y-84331501D01*
X149646356Y-84367617D01*
X149654249Y-84474456D01*
X149654180Y-84482023D01*
X149635443Y-84595765D01*
X149593542Y-84656474D01*
X149564933Y-84666405D01*
X149383205Y-84680920D01*
X149193965Y-84631733D01*
X149168469Y-84619385D01*
X149111426Y-84583486D01*
X149056674Y-84531745D01*
X149000383Y-84455737D01*
X148938726Y-84347039D01*
X148867873Y-84197230D01*
X148783996Y-83997884D01*
X148683266Y-83740580D01*
X148561855Y-83416895D01*
X148415933Y-83018405D01*
X148241673Y-82536687D01*
X148052381Y-82011695D01*
X148406483Y-82041793D01*
G37*
G36*
X123531713Y-82018656D02*
G01*
X123715955Y-82103955D01*
X123755369Y-82132943D01*
X123831851Y-82182750D01*
X123861048Y-82176519D01*
X123865721Y-82116096D01*
X123871494Y-82070443D01*
X123918766Y-82028223D01*
X124035702Y-82017510D01*
X124205683Y-82017510D01*
X124205683Y-83911583D01*
X123875036Y-83911583D01*
X123858237Y-83232698D01*
X123855691Y-83131417D01*
X123848282Y-82890620D01*
X123838434Y-82722786D01*
X123822809Y-82609877D01*
X123798067Y-82533856D01*
X123760871Y-82476683D01*
X123707882Y-82420322D01*
X123688163Y-82401242D01*
X123551191Y-82311777D01*
X123380692Y-82286831D01*
X123265229Y-82291604D01*
X123167946Y-82315992D01*
X123099202Y-82372949D01*
X123053525Y-82475387D01*
X123025442Y-82636215D01*
X123009484Y-82868347D01*
X123000176Y-83184692D01*
X122984536Y-83911583D01*
X122651572Y-83911583D01*
X122652288Y-83170952D01*
X122653128Y-82980530D01*
X122659391Y-82707921D01*
X122675085Y-82507004D01*
X122704108Y-82361517D01*
X122750354Y-82255201D01*
X122817721Y-82171796D01*
X122910105Y-82095041D01*
X123089515Y-82014031D01*
X123309926Y-81988538D01*
X123531713Y-82018656D01*
G37*
G36*
X126106762Y-82248199D02*
G01*
X126089359Y-82293869D01*
X126029220Y-82454091D01*
X125947869Y-82672839D01*
X125853766Y-82927329D01*
X125755367Y-83194776D01*
X125492681Y-83910666D01*
X125321212Y-83911124D01*
X125149743Y-83911583D01*
X124802383Y-82976688D01*
X124455024Y-82041793D01*
X124577286Y-82026030D01*
X124667393Y-82021369D01*
X124760775Y-82033762D01*
X124771965Y-82043885D01*
X124819700Y-82126796D01*
X124888618Y-82278005D01*
X124971271Y-82480507D01*
X125060210Y-82717296D01*
X125096430Y-82816881D01*
X125178977Y-83037802D01*
X125248486Y-83215534D01*
X125298535Y-83333940D01*
X125322700Y-83376881D01*
X125330276Y-83366976D01*
X125366710Y-83285990D01*
X125425654Y-83136662D01*
X125500905Y-82934989D01*
X125586263Y-82696968D01*
X125825544Y-82017510D01*
X126195470Y-82017510D01*
X126106762Y-82248199D01*
G37*
G36*
X142394240Y-81995080D02*
G01*
X142474624Y-82029530D01*
X142559900Y-82094683D01*
X142601762Y-82129662D01*
X142675457Y-82184048D01*
X142704337Y-82179348D01*
X142709316Y-82118959D01*
X142711263Y-82088497D01*
X142749041Y-82032230D01*
X142855014Y-82017510D01*
X143000712Y-82017510D01*
X143000712Y-83911583D01*
X142660750Y-83911583D01*
X142660750Y-83277814D01*
X142659426Y-83105451D01*
X142647356Y-82820437D01*
X142620049Y-82613823D01*
X142574301Y-82473426D01*
X142506904Y-82387062D01*
X142414653Y-82342546D01*
X142329669Y-82334821D01*
X142197397Y-82358223D01*
X142152234Y-82372931D01*
X142085954Y-82362577D01*
X142042446Y-82275217D01*
X142036591Y-82260053D01*
X142016758Y-82241549D01*
X141989935Y-82269145D01*
X141952269Y-82352322D01*
X141899905Y-82500564D01*
X141828990Y-82723355D01*
X141735672Y-83030179D01*
X141470884Y-83911097D01*
X141292208Y-83911340D01*
X141232999Y-83910590D01*
X141178189Y-83900605D01*
X141133102Y-83869252D01*
X141092161Y-83804395D01*
X141049788Y-83693897D01*
X141000405Y-83525623D01*
X140938436Y-83287435D01*
X140858302Y-82967198D01*
X140749991Y-82532756D01*
X140575124Y-83210028D01*
X140400256Y-83887300D01*
X140020051Y-83887300D01*
X139764467Y-83061679D01*
X139660964Y-82728395D01*
X139581211Y-82470045D01*
X139525845Y-82282586D01*
X139493281Y-82154786D01*
X139481929Y-82075412D01*
X139490202Y-82033230D01*
X139516513Y-82017008D01*
X139559275Y-82015513D01*
X139616900Y-82017510D01*
X139780254Y-82017510D01*
X139966554Y-82636726D01*
X139981588Y-82686480D01*
X140051844Y-82913263D01*
X140113214Y-83102494D01*
X140159542Y-83235623D01*
X140184674Y-83294101D01*
X140189807Y-83293938D01*
X140218996Y-83236668D01*
X140264408Y-83105921D01*
X140320887Y-82917454D01*
X140383277Y-82687026D01*
X140550062Y-82041793D01*
X140728599Y-82026876D01*
X140796806Y-82022303D01*
X140877735Y-82034019D01*
X140923354Y-82092308D01*
X140962527Y-82221140D01*
X140995803Y-82346115D01*
X141099698Y-82725242D01*
X141184134Y-83014255D01*
X141248731Y-83211972D01*
X141293112Y-83317211D01*
X141316899Y-83328791D01*
X141339497Y-83256750D01*
X141381708Y-83111564D01*
X141437319Y-82914842D01*
X141500253Y-82687817D01*
X141500814Y-82685776D01*
X141563500Y-82462399D01*
X141619109Y-82273005D01*
X141661618Y-82137539D01*
X141685004Y-82075948D01*
X141686691Y-82073904D01*
X141753133Y-82048028D01*
X141887246Y-82021793D01*
X142062098Y-82000581D01*
X142125062Y-81995022D01*
X142287976Y-81985516D01*
X142394240Y-81995080D01*
G37*
G36*
X153745932Y-84099375D02*
G01*
X153756798Y-84093094D01*
X153853132Y-84022369D01*
X153988264Y-83908388D01*
X154136526Y-83772623D01*
X154417848Y-83504327D01*
X154214381Y-83428700D01*
X154170139Y-83410331D01*
X154024126Y-83325615D01*
X153921233Y-83231659D01*
X153865578Y-83123945D01*
X153814242Y-82971413D01*
X153775596Y-82808214D01*
X153757574Y-82667909D01*
X153768113Y-82584058D01*
X153783497Y-82567258D01*
X153873252Y-82550719D01*
X154006296Y-82585117D01*
X154161153Y-82658885D01*
X154316350Y-82760459D01*
X154450413Y-82878274D01*
X154541867Y-83000764D01*
X154624164Y-83158810D01*
X154710619Y-82964547D01*
X154797074Y-82770283D01*
X154641818Y-82730034D01*
X154443452Y-82635026D01*
X154270069Y-82458577D01*
X154148782Y-82220409D01*
X154136226Y-82182742D01*
X154083682Y-81982309D01*
X154083104Y-81862922D01*
X154134459Y-81823721D01*
X154213117Y-81837390D01*
X154370514Y-81900759D01*
X154541130Y-81997331D01*
X154690331Y-82106596D01*
X154783481Y-82208046D01*
X154837930Y-82292542D01*
X154876528Y-82318221D01*
X154904062Y-82273581D01*
X154903230Y-82183593D01*
X154848546Y-82064436D01*
X154803107Y-81991415D01*
X154735708Y-81793602D01*
X154735563Y-81561791D01*
X154801531Y-81276879D01*
X154867075Y-81092977D01*
X154934477Y-80980890D01*
X155002891Y-80962880D01*
X155078690Y-81037683D01*
X155168246Y-81204030D01*
X155247115Y-81422039D01*
X155286279Y-81672760D01*
X155267712Y-81895660D01*
X155190769Y-82066076D01*
X155176743Y-82084755D01*
X155116149Y-82189240D01*
X155091313Y-82273979D01*
X155111989Y-82308906D01*
X155116341Y-82308203D01*
X155182094Y-82285720D01*
X155294111Y-82241445D01*
X155355167Y-82219582D01*
X155528529Y-82173509D01*
X155712853Y-82139756D01*
X155780099Y-82132013D01*
X155908457Y-82132665D01*
X155963318Y-82169192D01*
X155944218Y-82247946D01*
X155850690Y-82375281D01*
X155682271Y-82557549D01*
X155556249Y-82685198D01*
X155452335Y-82778047D01*
X155369297Y-82825397D01*
X155282503Y-82840618D01*
X155167323Y-82837080D01*
X155077118Y-82832693D01*
X154975821Y-82841840D01*
X154918085Y-82886800D01*
X154870085Y-82984326D01*
X154860212Y-83007883D01*
X154819039Y-83108150D01*
X154802437Y-83152245D01*
X154813058Y-83153683D01*
X154896621Y-83156313D01*
X155045230Y-83158131D01*
X155237133Y-83158810D01*
X155276865Y-83158966D01*
X155533350Y-83171219D01*
X155695324Y-83204193D01*
X155763467Y-83259511D01*
X155738458Y-83338795D01*
X155620976Y-83443669D01*
X155411702Y-83575754D01*
X155403175Y-83580611D01*
X155144116Y-83690020D01*
X154912503Y-83708284D01*
X154703526Y-83635809D01*
X154565540Y-83554299D01*
X154349394Y-83793649D01*
X154241624Y-83902129D01*
X154058644Y-84058198D01*
X153885916Y-84178696D01*
X153796961Y-84232953D01*
X153695226Y-84310684D01*
X153648956Y-84385412D01*
X153637622Y-84482233D01*
X153636995Y-84522671D01*
X153622390Y-84603033D01*
X153566885Y-84634597D01*
X153442394Y-84640072D01*
X153326308Y-84634124D01*
X153263361Y-84605139D01*
X153248130Y-84539668D01*
X153231444Y-84470658D01*
X153163140Y-84463271D01*
X153024096Y-84496765D01*
X152845198Y-84522315D01*
X152708747Y-84521315D01*
X152639818Y-84492371D01*
X152634658Y-84482709D01*
X152646559Y-84416284D01*
X152735484Y-84368191D01*
X152883886Y-84348757D01*
X152915841Y-84348315D01*
X153090541Y-84334717D01*
X153191124Y-84291366D01*
X153237137Y-84202315D01*
X153248130Y-84051617D01*
X153244345Y-83920188D01*
X153222974Y-83837023D01*
X153172366Y-83830314D01*
X153081009Y-83888844D01*
X153054219Y-83906847D01*
X152885788Y-83957331D01*
X152684462Y-83942848D01*
X152475041Y-83871249D01*
X152282325Y-83750385D01*
X152131113Y-83588109D01*
X152082712Y-83508656D01*
X152035348Y-83388871D01*
X152008311Y-83235461D01*
X151993996Y-83016738D01*
X151992424Y-82965864D01*
X151998342Y-82865190D01*
X152333384Y-82865190D01*
X152345830Y-83167104D01*
X152420050Y-83404622D01*
X152553989Y-83570862D01*
X152567171Y-83580931D01*
X152740945Y-83662295D01*
X152909568Y-83657185D01*
X153061247Y-83575228D01*
X153184191Y-83426051D01*
X153266604Y-83219282D01*
X153296696Y-82964547D01*
X153270692Y-82725313D01*
X153190259Y-82515947D01*
X153069852Y-82366532D01*
X152924244Y-82279013D01*
X152768204Y-82255336D01*
X152616504Y-82297444D01*
X152483916Y-82407284D01*
X152385209Y-82586799D01*
X152335156Y-82837936D01*
X152333384Y-82865190D01*
X151998342Y-82865190D01*
X152010964Y-82650499D01*
X152085308Y-82405234D01*
X152220799Y-82218373D01*
X152422783Y-82078218D01*
X152469025Y-82055681D01*
X152704597Y-81980658D01*
X152915584Y-81991637D01*
X153119938Y-82088896D01*
X153179246Y-82128680D01*
X153258858Y-82174409D01*
X153290827Y-82168255D01*
X153296696Y-82113179D01*
X153302022Y-82071173D01*
X153349286Y-82028538D01*
X153466677Y-82017510D01*
X153636658Y-82017510D01*
X153636658Y-84157830D01*
X153745932Y-84099375D01*
G37*
G36*
X126925377Y-83911583D02*
G01*
X126536849Y-83911583D01*
X126536849Y-83523055D01*
X126925377Y-83523055D01*
X126925377Y-83911583D01*
G37*
G36*
X133093255Y-82979631D02*
G01*
X133080217Y-83197936D01*
X133007434Y-83476961D01*
X132867828Y-83691560D01*
X132658103Y-83848314D01*
X132630042Y-83862478D01*
X132378950Y-83940429D01*
X132115627Y-83949367D01*
X131864021Y-83894170D01*
X131648083Y-83779712D01*
X131491763Y-83610869D01*
X131432476Y-83505585D01*
X131400960Y-83401783D01*
X131437797Y-83340491D01*
X131546314Y-83302934D01*
X131589648Y-83294591D01*
X131689550Y-83298391D01*
X131748863Y-83358134D01*
X131850644Y-83499703D01*
X132006636Y-83623637D01*
X132170706Y-83668753D01*
X132270324Y-83661963D01*
X132474084Y-83588803D01*
X132626327Y-83434170D01*
X132728802Y-83196586D01*
X132735077Y-83172653D01*
X132736107Y-83137227D01*
X132710890Y-83112925D01*
X132645251Y-83097157D01*
X132525017Y-83087335D01*
X132336015Y-83080869D01*
X132064072Y-83075171D01*
X131369163Y-83061679D01*
X131381091Y-82829474D01*
X131389924Y-82732613D01*
X131393648Y-82719305D01*
X131733408Y-82719305D01*
X131736624Y-82738301D01*
X131768855Y-82766717D01*
X131849107Y-82783877D01*
X131993729Y-82792316D01*
X132219067Y-82794566D01*
X132316372Y-82794495D01*
X132503452Y-82792326D01*
X132618100Y-82783954D01*
X132678044Y-82765188D01*
X132701011Y-82731834D01*
X132704727Y-82679700D01*
X132669401Y-82530051D01*
X132560611Y-82394688D01*
X132400979Y-82304583D01*
X132213634Y-82272246D01*
X132021704Y-82310190D01*
X132010170Y-82315266D01*
X131875605Y-82417671D01*
X131773755Y-82565967D01*
X131733408Y-82719305D01*
X131393648Y-82719305D01*
X131469548Y-82448102D01*
X131619371Y-82223951D01*
X131829948Y-82067961D01*
X132091831Y-81987933D01*
X132395577Y-81991668D01*
X132480243Y-82010755D01*
X132703522Y-82117549D01*
X132896790Y-82285362D01*
X133027640Y-82488710D01*
X133058327Y-82601172D01*
X133069266Y-82679700D01*
X133083566Y-82782366D01*
X133093255Y-82979631D01*
G37*
G36*
X151740053Y-83432683D02*
G01*
X151684140Y-83606861D01*
X151573762Y-83770698D01*
X151435601Y-83881798D01*
X151394309Y-83900368D01*
X151144368Y-83955726D01*
X150873268Y-83935952D01*
X150613178Y-83842578D01*
X150505070Y-83786466D01*
X150425115Y-83755181D01*
X150387316Y-83766582D01*
X150367661Y-83818295D01*
X150356884Y-83847341D01*
X150294317Y-83897491D01*
X150163542Y-83911583D01*
X150060382Y-83906956D01*
X150010284Y-83882669D01*
X150019215Y-83826592D01*
X150025601Y-83801828D01*
X150040852Y-83686569D01*
X150056892Y-83502589D01*
X150072166Y-83269253D01*
X150079161Y-83127046D01*
X150431304Y-83127046D01*
X150449143Y-83281588D01*
X150534768Y-83471800D01*
X150681178Y-83599546D01*
X150857419Y-83660522D01*
X151042087Y-83667701D01*
X151200910Y-83621096D01*
X151312147Y-83527374D01*
X151354058Y-83393202D01*
X151347037Y-83337803D01*
X151275374Y-83230737D01*
X151121037Y-83148629D01*
X150877512Y-83087296D01*
X150728258Y-83058776D01*
X150583622Y-83027555D01*
X150501126Y-83005230D01*
X150487244Y-83001016D01*
X150443961Y-83023760D01*
X150431304Y-83127046D01*
X150079161Y-83127046D01*
X150085119Y-83005922D01*
X150098851Y-82719823D01*
X150118756Y-82477089D01*
X150149274Y-82303795D01*
X150196517Y-82185288D01*
X150266599Y-82106916D01*
X150365630Y-82054023D01*
X150499724Y-82011958D01*
X150537326Y-82002578D01*
X150794978Y-81974591D01*
X151052172Y-82000650D01*
X151285663Y-82073872D01*
X151472204Y-82187376D01*
X151588549Y-82334281D01*
X151622222Y-82415064D01*
X151643308Y-82527648D01*
X151596447Y-82584557D01*
X151475473Y-82600302D01*
X151347998Y-82583449D01*
X151305492Y-82530978D01*
X151304958Y-82524355D01*
X151262199Y-82445819D01*
X151171935Y-82356220D01*
X151083732Y-82298770D01*
X150966675Y-82268377D01*
X150799538Y-82273501D01*
X150738297Y-82281124D01*
X150557347Y-82339100D01*
X150459303Y-82444633D01*
X150441387Y-82600258D01*
X150451783Y-82650922D01*
X150483989Y-82694607D01*
X150555621Y-82727997D01*
X150685559Y-82759311D01*
X150892681Y-82796771D01*
X150978181Y-82812233D01*
X151180017Y-82854803D01*
X151344251Y-82897627D01*
X151441647Y-82933427D01*
X151512789Y-82986791D01*
X151622905Y-83115750D01*
X151708095Y-83264846D01*
X151742113Y-83393202D01*
X151742404Y-83394301D01*
X151740053Y-83432683D01*
G37*
G36*
X145417946Y-81289061D02*
G01*
X145647368Y-81316923D01*
X145801250Y-81401656D01*
X145887660Y-81550944D01*
X145914670Y-81772473D01*
X145916388Y-81895666D01*
X145931352Y-81979988D01*
X145974401Y-82012287D01*
X146060368Y-82017510D01*
X146123726Y-82020410D01*
X146190384Y-82052153D01*
X146206065Y-82138925D01*
X146205553Y-82161300D01*
X146177072Y-82240281D01*
X146084651Y-82260340D01*
X145963236Y-82260340D01*
X145963236Y-83911583D01*
X145574708Y-83911583D01*
X145574708Y-82260340D01*
X145404727Y-82260340D01*
X145304596Y-82254647D01*
X145247446Y-82221033D01*
X145234746Y-82138925D01*
X145241661Y-82070712D01*
X145286839Y-82027272D01*
X145399531Y-82017510D01*
X145432943Y-82016658D01*
X145553396Y-81984041D01*
X145600212Y-81896219D01*
X145580516Y-81742365D01*
X145580476Y-81742217D01*
X145543474Y-81652398D01*
X145474403Y-81608473D01*
X145340787Y-81589766D01*
X145294958Y-81586092D01*
X145189438Y-81567274D01*
X145146044Y-81522918D01*
X145137614Y-81431926D01*
X145137615Y-81429461D01*
X145142573Y-81349070D01*
X145173241Y-81307288D01*
X145253426Y-81291482D01*
X145406935Y-81289021D01*
X145417946Y-81289061D01*
G37*
G36*
X136600939Y-81987646D02*
G01*
X136762193Y-82088152D01*
X136764553Y-82090511D01*
X136842746Y-82163371D01*
X136875056Y-82169326D01*
X136881400Y-82112435D01*
X136886603Y-82071377D01*
X136933861Y-82028624D01*
X137051381Y-82017510D01*
X137221362Y-82017510D01*
X137221362Y-83911583D01*
X136832834Y-83911583D01*
X136832834Y-83229452D01*
X136832814Y-83164055D01*
X136831548Y-82911476D01*
X136826444Y-82734583D01*
X136814918Y-82615703D01*
X136794382Y-82537166D01*
X136762253Y-82481300D01*
X136715946Y-82430432D01*
X136678293Y-82395293D01*
X136570549Y-82337450D01*
X136431143Y-82340792D01*
X136321404Y-82351013D01*
X136257060Y-82319336D01*
X136212595Y-82222792D01*
X136187919Y-82137465D01*
X136201666Y-82071731D01*
X136281136Y-82023244D01*
X136412789Y-81979938D01*
X136600939Y-81987646D01*
G37*
G36*
X146788857Y-81466727D02*
G01*
X146817911Y-81484466D01*
X146893938Y-81549320D01*
X146927207Y-81637282D01*
X146934555Y-81785152D01*
X146935386Y-81866362D01*
X146946942Y-81967225D01*
X146982723Y-82009162D01*
X147055970Y-82017510D01*
X147078345Y-82018023D01*
X147157326Y-82046504D01*
X147177385Y-82138925D01*
X147158395Y-82228867D01*
X147085546Y-82260340D01*
X147078659Y-82260472D01*
X147044831Y-82269851D01*
X147020612Y-82304349D01*
X147003816Y-82378368D01*
X146992258Y-82506308D01*
X146983753Y-82702569D01*
X146976117Y-82981553D01*
X146972404Y-83120261D01*
X146961009Y-83391654D01*
X146942768Y-83587282D01*
X146913498Y-83722236D01*
X146869018Y-83811603D01*
X146805144Y-83870474D01*
X146717694Y-83913937D01*
X146598088Y-83946211D01*
X146434337Y-83952058D01*
X146308766Y-83916052D01*
X146258877Y-83845352D01*
X146269231Y-83746615D01*
X146333228Y-83657484D01*
X146436872Y-83611260D01*
X146570310Y-83595904D01*
X146597334Y-82260340D01*
X146450266Y-82260340D01*
X146384724Y-82257286D01*
X146318678Y-82225409D01*
X146303197Y-82138925D01*
X146305884Y-82091441D01*
X146341988Y-82031753D01*
X146443699Y-82017510D01*
X146450425Y-82017473D01*
X146548273Y-82000696D01*
X146607000Y-81941149D01*
X146635622Y-81820962D01*
X146643159Y-81622265D01*
X146643159Y-81380661D01*
X146788857Y-81466727D01*
G37*
G36*
X147808742Y-83911583D02*
G01*
X147468781Y-83911583D01*
X147468781Y-82017510D01*
X147808742Y-82017510D01*
X147808742Y-83911583D01*
G37*
G36*
X127806941Y-82663253D02*
G01*
X127814309Y-82889445D01*
X127827153Y-83107624D01*
X127846009Y-83260565D01*
X127873283Y-83366204D01*
X127911378Y-83442476D01*
X128010672Y-83552474D01*
X128190530Y-83640662D01*
X128395297Y-83641628D01*
X128477235Y-83612139D01*
X128556948Y-83541190D01*
X128613093Y-83421513D01*
X128649034Y-83241139D01*
X128668133Y-82988101D01*
X128673752Y-82650428D01*
X128673752Y-82017510D01*
X129013714Y-82017510D01*
X129012998Y-82758141D01*
X129011733Y-82990942D01*
X129004314Y-83254782D01*
X128986488Y-83448840D01*
X128954029Y-83589223D01*
X128902709Y-83692042D01*
X128828298Y-83773404D01*
X128726570Y-83849418D01*
X128675617Y-83880476D01*
X128445527Y-83955216D01*
X128204639Y-83941694D01*
X127976323Y-83840198D01*
X127917015Y-83800413D01*
X127837403Y-83754684D01*
X127805433Y-83760838D01*
X127799564Y-83815915D01*
X127794239Y-83857921D01*
X127746975Y-83900555D01*
X127629584Y-83911583D01*
X127459603Y-83911583D01*
X127459603Y-82017510D01*
X127790034Y-82017510D01*
X127806941Y-82663253D01*
G37*
G36*
X136105031Y-83190661D02*
G01*
X136027966Y-83448234D01*
X135892888Y-83670566D01*
X135699458Y-83838037D01*
X135682049Y-83848225D01*
X135432839Y-83943134D01*
X135186269Y-83946879D01*
X134956635Y-83859056D01*
X134855063Y-83801276D01*
X134805068Y-83792696D01*
X134793064Y-83834773D01*
X134791887Y-83848944D01*
X134746325Y-83897109D01*
X134623083Y-83911583D01*
X134453102Y-83911583D01*
X134453323Y-83146669D01*
X134453466Y-83076768D01*
X134455375Y-82885160D01*
X134805590Y-82885160D01*
X134814008Y-83172347D01*
X134887183Y-83404792D01*
X135021676Y-83570862D01*
X135144728Y-83638539D01*
X135278723Y-83668753D01*
X135413492Y-83645405D01*
X135569466Y-83542297D01*
X135683129Y-83368540D01*
X135747011Y-83136853D01*
X135753641Y-82859958D01*
X135749344Y-82817502D01*
X135686301Y-82570898D01*
X135575589Y-82395653D01*
X135433253Y-82291919D01*
X135275335Y-82259845D01*
X135117879Y-82299580D01*
X134976929Y-82411275D01*
X134868529Y-82595078D01*
X134808723Y-82851141D01*
X134805590Y-82885160D01*
X134455375Y-82885160D01*
X134456742Y-82748120D01*
X134463681Y-82407409D01*
X134473402Y-82091033D01*
X134485026Y-81835388D01*
X134516508Y-81289021D01*
X134654786Y-81289021D01*
X134697497Y-81289858D01*
X134762205Y-81307585D01*
X134788253Y-81369001D01*
X134793064Y-81500789D01*
X134793439Y-81536797D01*
X134803617Y-81738109D01*
X134823350Y-81933518D01*
X134853636Y-82154479D01*
X135005472Y-82061893D01*
X135206010Y-81982513D01*
X135422966Y-81987341D01*
X135669102Y-82078218D01*
X135839921Y-82200370D01*
X135991527Y-82402701D01*
X136086472Y-82648274D01*
X136116313Y-82859958D01*
X136124420Y-82917467D01*
X136105031Y-83190661D01*
G37*
G36*
X139291679Y-83573828D02*
G01*
X139211297Y-83734962D01*
X139051627Y-83865434D01*
X138983394Y-83900769D01*
X138749021Y-83956071D01*
X138487820Y-83937557D01*
X138226208Y-83845852D01*
X138118939Y-83792914D01*
X138035377Y-83761760D01*
X137994509Y-83772090D01*
X137971875Y-83821569D01*
X137959551Y-83849382D01*
X137891259Y-83897722D01*
X137753517Y-83911583D01*
X137704529Y-83911361D01*
X137611079Y-83902533D01*
X137586924Y-83867196D01*
X137611092Y-83787006D01*
X137611948Y-83784653D01*
X137630100Y-83685420D01*
X137645039Y-83513623D01*
X137655238Y-83292771D01*
X137659171Y-83046375D01*
X137659185Y-83045040D01*
X138009358Y-83045040D01*
X138025671Y-83164443D01*
X138038894Y-83232161D01*
X138090326Y-83402173D01*
X138167652Y-83513445D01*
X138288841Y-83595401D01*
X138326007Y-83613326D01*
X138527882Y-83668508D01*
X138712013Y-83654792D01*
X138857397Y-83577148D01*
X138943034Y-83440549D01*
X138949553Y-83354758D01*
X138881615Y-83243210D01*
X138720312Y-83155013D01*
X138466321Y-83090662D01*
X138302186Y-83060080D01*
X138153991Y-83028466D01*
X138068334Y-83005267D01*
X138022990Y-82999255D01*
X138009358Y-83045040D01*
X137659185Y-83045040D01*
X137661899Y-82790964D01*
X137674173Y-82560828D01*
X137700916Y-82394310D01*
X137747049Y-82273267D01*
X137817491Y-82179558D01*
X137917163Y-82095041D01*
X137953814Y-82069933D01*
X138058270Y-82023232D01*
X138197684Y-82000357D01*
X138402822Y-81994967D01*
X138596807Y-82004332D01*
X138844414Y-82056688D01*
X139029004Y-82160838D01*
X139165967Y-82323405D01*
X139229110Y-82437453D01*
X139255041Y-82536784D01*
X139210252Y-82586637D01*
X139091151Y-82600302D01*
X139068821Y-82599862D01*
X138963857Y-82583086D01*
X138921171Y-82549528D01*
X138920708Y-82544587D01*
X138882581Y-82473619D01*
X138801963Y-82379547D01*
X138762772Y-82343810D01*
X138638894Y-82278574D01*
X138467382Y-82260340D01*
X138256424Y-82292805D01*
X138103469Y-82393518D01*
X138020383Y-82560383D01*
X138017057Y-82574910D01*
X138011858Y-82655068D01*
X138057479Y-82702192D01*
X138176152Y-82742235D01*
X138198770Y-82748281D01*
X138356590Y-82780866D01*
X138487404Y-82794295D01*
X138544135Y-82798741D01*
X138693398Y-82825567D01*
X138861295Y-82868555D01*
X138932137Y-82892382D01*
X139141035Y-83012445D01*
X139267318Y-83182223D01*
X139300865Y-83354758D01*
X139309698Y-83400189D01*
X139291679Y-83573828D01*
G37*
G36*
X133918876Y-83911583D02*
G01*
X133530348Y-83911583D01*
X133530348Y-83523055D01*
X133918876Y-83523055D01*
X133918876Y-83911583D01*
G37*
G36*
X130989125Y-83532736D02*
G01*
X130859553Y-83713939D01*
X130666349Y-83858498D01*
X130643046Y-83871394D01*
X130410577Y-83946540D01*
X130167762Y-83944005D01*
X129948608Y-83863549D01*
X129862787Y-83814997D01*
X129805449Y-83800959D01*
X129790769Y-83839448D01*
X129790576Y-83844618D01*
X129747040Y-83895506D01*
X129620788Y-83911583D01*
X129450807Y-83911583D01*
X129451200Y-82927213D01*
X129797933Y-82927213D01*
X129810326Y-83203809D01*
X129883839Y-83415101D01*
X130022439Y-83573267D01*
X130119120Y-83631329D01*
X130296184Y-83662914D01*
X130467589Y-83612791D01*
X130613873Y-83488682D01*
X130715569Y-83298306D01*
X130732973Y-83227894D01*
X130753139Y-83048089D01*
X130751347Y-82859958D01*
X130737854Y-82755154D01*
X130663571Y-82524419D01*
X130545976Y-82365485D01*
X130400593Y-82277841D01*
X130242946Y-82260978D01*
X130088560Y-82314388D01*
X129952960Y-82437560D01*
X129851669Y-82629987D01*
X129800211Y-82891158D01*
X129797933Y-82927213D01*
X129451200Y-82927213D01*
X129451229Y-82855273D01*
X129451373Y-82765517D01*
X129453643Y-82439744D01*
X129458313Y-82135907D01*
X129464939Y-81872803D01*
X129473076Y-81669232D01*
X129482277Y-81543992D01*
X129498460Y-81424684D01*
X129524398Y-81333178D01*
X129570158Y-81296026D01*
X129651836Y-81289021D01*
X129790769Y-81289021D01*
X129790769Y-81726114D01*
X129791353Y-81823665D01*
X129795811Y-81997853D01*
X129803701Y-82118257D01*
X129813878Y-82163208D01*
X129820542Y-82161656D01*
X129888184Y-82128665D01*
X129996001Y-82066258D01*
X130000373Y-82063610D01*
X130205589Y-81982705D01*
X130421348Y-81987473D01*
X130664682Y-82078218D01*
X130697449Y-82095623D01*
X130889716Y-82241667D01*
X131016246Y-82436069D01*
X131082382Y-82690527D01*
X131093470Y-83016738D01*
X131090207Y-83048089D01*
X131064348Y-83296593D01*
X130989125Y-83532736D01*
G37*
G36*
X147645910Y-81313320D02*
G01*
X147739019Y-81324441D01*
X147781832Y-81375633D01*
X147799533Y-81495426D01*
X147803193Y-81542203D01*
X147799544Y-81636563D01*
X147753194Y-81672094D01*
X147638761Y-81677549D01*
X147593615Y-81677330D01*
X147503490Y-81665462D01*
X147473409Y-81614411D01*
X147477990Y-81495426D01*
X147478743Y-81486492D01*
X147497177Y-81371256D01*
X147542122Y-81323037D01*
X147638761Y-81313304D01*
X147645910Y-81313320D01*
G37*
%TO.C,C23*%
X169313748Y-68760000D02*
X169836252Y-68760000D01*
X169313748Y-67340000D02*
X169836252Y-67340000D01*
%TO.C,C22*%
X156511252Y-63665000D02*
X155988748Y-63665000D01*
X156511252Y-65085000D02*
X155988748Y-65085000D01*
%TO.C,G\u002A\u002A\u002A*%
G36*
X158934422Y-109654574D02*
G01*
X159015255Y-109706945D01*
X159066477Y-109784255D01*
X159076392Y-109872379D01*
X159041408Y-109955316D01*
X158963300Y-110022283D01*
X158892830Y-110043757D01*
X158818645Y-110029457D01*
X158756989Y-109983904D01*
X158714254Y-109917504D01*
X158696837Y-109840658D01*
X158711129Y-109763770D01*
X158763526Y-109697243D01*
X158848297Y-109652554D01*
X158934422Y-109654574D01*
G37*
D12*
X158934422Y-109654574D02*
X159015255Y-109706945D01*
X159066477Y-109784255D01*
X159076392Y-109872379D01*
X159041408Y-109955316D01*
X158963300Y-110022283D01*
X158892830Y-110043757D01*
X158818645Y-110029457D01*
X158756989Y-109983904D01*
X158714254Y-109917504D01*
X158696837Y-109840658D01*
X158711129Y-109763770D01*
X158763526Y-109697243D01*
X158848297Y-109652554D01*
X158934422Y-109654574D01*
G36*
X157945150Y-109773857D02*
G01*
X158054320Y-109784024D01*
X158122563Y-109806812D01*
X158155628Y-109844664D01*
X158159263Y-109900023D01*
X158158266Y-109906834D01*
X158152035Y-109930026D01*
X158136298Y-109946190D01*
X158102807Y-109957176D01*
X158043313Y-109964832D01*
X157949565Y-109971008D01*
X157813315Y-109977552D01*
X157785748Y-109978870D01*
X157662752Y-109986172D01*
X157560586Y-109994489D01*
X157489231Y-110002897D01*
X157458665Y-110010468D01*
X157444867Y-110018998D01*
X157391742Y-110021920D01*
X157331856Y-110003050D01*
X157289592Y-109968450D01*
X157276489Y-109916285D01*
X157308571Y-109868055D01*
X157385684Y-109828653D01*
X157505097Y-109799016D01*
X157664078Y-109780081D01*
X157859896Y-109772785D01*
X157945150Y-109773857D01*
G37*
X157945150Y-109773857D02*
X158054320Y-109784024D01*
X158122563Y-109806812D01*
X158155628Y-109844664D01*
X158159263Y-109900023D01*
X158158266Y-109906834D01*
X158152035Y-109930026D01*
X158136298Y-109946190D01*
X158102807Y-109957176D01*
X158043313Y-109964832D01*
X157949565Y-109971008D01*
X157813315Y-109977552D01*
X157785748Y-109978870D01*
X157662752Y-109986172D01*
X157560586Y-109994489D01*
X157489231Y-110002897D01*
X157458665Y-110010468D01*
X157444867Y-110018998D01*
X157391742Y-110021920D01*
X157331856Y-110003050D01*
X157289592Y-109968450D01*
X157276489Y-109916285D01*
X157308571Y-109868055D01*
X157385684Y-109828653D01*
X157505097Y-109799016D01*
X157664078Y-109780081D01*
X157859896Y-109772785D01*
X157945150Y-109773857D01*
G36*
X159776037Y-109661944D02*
G01*
X159821997Y-109707823D01*
X159844422Y-109790725D01*
X159846384Y-109813159D01*
X159856676Y-109863069D01*
X159884692Y-109879989D01*
X159946595Y-109877672D01*
X160008473Y-109876280D01*
X160040927Y-109893397D01*
X160058375Y-109939108D01*
X160061648Y-109953804D01*
X160058116Y-110009462D01*
X160015771Y-110057427D01*
X160012728Y-110059856D01*
X159947562Y-110092357D01*
X159865892Y-110090666D01*
X159847108Y-110087499D01*
X159763645Y-110076767D01*
X159696421Y-110077908D01*
X159617303Y-110090954D01*
X159597857Y-110093942D01*
X159519166Y-110087107D01*
X159455929Y-110055029D01*
X159416625Y-110007015D01*
X159409730Y-109952372D01*
X159443723Y-109900407D01*
X159486125Y-109882493D01*
X159551673Y-109878247D01*
X159557718Y-109878865D01*
X159602343Y-109877579D01*
X159622819Y-109852739D01*
X159631579Y-109790725D01*
X159646860Y-109719999D01*
X159688729Y-109669181D01*
X159713797Y-109658751D01*
X159776037Y-109661944D01*
G37*
X159776037Y-109661944D02*
X159821997Y-109707823D01*
X159844422Y-109790725D01*
X159846384Y-109813159D01*
X159856676Y-109863069D01*
X159884692Y-109879989D01*
X159946595Y-109877672D01*
X160008473Y-109876280D01*
X160040927Y-109893397D01*
X160058375Y-109939108D01*
X160061648Y-109953804D01*
X160058116Y-110009462D01*
X160015771Y-110057427D01*
X160012728Y-110059856D01*
X159947562Y-110092357D01*
X159865892Y-110090666D01*
X159847108Y-110087499D01*
X159763645Y-110076767D01*
X159696421Y-110077908D01*
X159617303Y-110090954D01*
X159597857Y-110093942D01*
X159519166Y-110087107D01*
X159455929Y-110055029D01*
X159416625Y-110007015D01*
X159409730Y-109952372D01*
X159443723Y-109900407D01*
X159486125Y-109882493D01*
X159551673Y-109878247D01*
X159557718Y-109878865D01*
X159602343Y-109877579D01*
X159622819Y-109852739D01*
X159631579Y-109790725D01*
X159646860Y-109719999D01*
X159688729Y-109669181D01*
X159713797Y-109658751D01*
X159776037Y-109661944D01*
G36*
X161868875Y-111904506D02*
G01*
X161847378Y-112076404D01*
X161833488Y-112151687D01*
X161816850Y-112242143D01*
X161805347Y-112305004D01*
X161782473Y-112411710D01*
X161714470Y-112624920D01*
X161613424Y-112844007D01*
X161474635Y-113079989D01*
X161459804Y-113102855D01*
X161316152Y-113298470D01*
X161156397Y-113466397D01*
X160963550Y-113624742D01*
X160928232Y-113651177D01*
X160851282Y-113712492D01*
X160806087Y-113758132D01*
X160784757Y-113797285D01*
X160779400Y-113839139D01*
X160779279Y-113845585D01*
X160757244Y-113922085D01*
X160693041Y-114003239D01*
X160634340Y-114054962D01*
X160573566Y-114082776D01*
X160493266Y-114089600D01*
X160387710Y-114073640D01*
X160284687Y-114013611D01*
X160206741Y-113909557D01*
X160168496Y-113835600D01*
X159906174Y-113835600D01*
X159844592Y-113836002D01*
X159709554Y-113839149D01*
X159583482Y-113844742D01*
X159487291Y-113851963D01*
X159421974Y-113859798D01*
X159361558Y-113873217D01*
X159330377Y-113894142D01*
X159315692Y-113928238D01*
X159313340Y-113935896D01*
X159279231Y-113994140D01*
X159225279Y-114051574D01*
X159176638Y-114084582D01*
X159068794Y-114116377D01*
X158956717Y-114103161D01*
X158852850Y-114045150D01*
X158834803Y-114028937D01*
X158785719Y-113972180D01*
X158762497Y-113924500D01*
X158758926Y-113910278D01*
X158748816Y-113898473D01*
X158726723Y-113889369D01*
X158687102Y-113882526D01*
X158624408Y-113877510D01*
X158533095Y-113873882D01*
X158407619Y-113871207D01*
X158242435Y-113869048D01*
X158031997Y-113866967D01*
X157308717Y-113860235D01*
X157226762Y-113962217D01*
X157214795Y-113976915D01*
X157161356Y-114032693D01*
X157111430Y-114058144D01*
X157045599Y-114064200D01*
X156931254Y-114050703D01*
X156837563Y-114002916D01*
X156778514Y-113919656D01*
X156743393Y-113835600D01*
X155895581Y-113835600D01*
X155783012Y-113939362D01*
X155730895Y-113985606D01*
X155677896Y-114021756D01*
X155628697Y-114034355D01*
X155565292Y-114030979D01*
X155485225Y-114007740D01*
X155401415Y-113952151D01*
X155341372Y-113877952D01*
X155318400Y-113797715D01*
X155318334Y-113794595D01*
X155292802Y-113727962D01*
X155224419Y-113652065D01*
X155196465Y-113626838D01*
X155100007Y-113533233D01*
X155005336Y-113432683D01*
X154919476Y-113333559D01*
X154849450Y-113244230D01*
X154802284Y-113173068D01*
X154785000Y-113128441D01*
X154783896Y-113118929D01*
X154764508Y-113099000D01*
X154753433Y-113089810D01*
X154721968Y-113039254D01*
X154675314Y-112948218D01*
X154615564Y-112820872D01*
X154544812Y-112661383D01*
X154525811Y-112616509D01*
X154488694Y-112522163D01*
X154460189Y-112440884D01*
X154444071Y-112383890D01*
X154444121Y-112362400D01*
X154446885Y-112353908D01*
X154432811Y-112317950D01*
X154413333Y-112268169D01*
X154395648Y-112197300D01*
X154389266Y-112161662D01*
X154373456Y-112075594D01*
X154355812Y-111981400D01*
X154346549Y-111929000D01*
X154327991Y-111807187D01*
X154313684Y-111692697D01*
X154310286Y-111662616D01*
X154296961Y-111587560D01*
X154277231Y-111547474D01*
X154245989Y-111530092D01*
X154223319Y-111522225D01*
X154157265Y-111494501D01*
X154066099Y-111453189D01*
X153963106Y-111404224D01*
X154493962Y-111404224D01*
X154515077Y-111653409D01*
X154543179Y-111861337D01*
X154606212Y-112182701D01*
X154691469Y-112473402D01*
X154802387Y-112744324D01*
X154942405Y-113006350D01*
X154952448Y-113022926D01*
X155058837Y-113176258D01*
X155185021Y-113327237D01*
X155317703Y-113461095D01*
X155443589Y-113563063D01*
X155493732Y-113620428D01*
X155519789Y-113713837D01*
X155522238Y-113729751D01*
X155546163Y-113803100D01*
X155580484Y-113834417D01*
X155618098Y-113821175D01*
X155651902Y-113760847D01*
X155684906Y-113697981D01*
X155725802Y-113657263D01*
X155729298Y-113655833D01*
X155776697Y-113648309D01*
X155865556Y-113641862D01*
X155987953Y-113636833D01*
X156135968Y-113633565D01*
X156301679Y-113632400D01*
X156458256Y-113632915D01*
X156621296Y-113635779D01*
X156743629Y-113642270D01*
X156830949Y-113653631D01*
X156888951Y-113671105D01*
X156923331Y-113695937D01*
X156939782Y-113729370D01*
X156944000Y-113772646D01*
X156954286Y-113815938D01*
X156987457Y-113856752D01*
X157028855Y-113873209D01*
X157063109Y-113854718D01*
X157084589Y-113811091D01*
X157109100Y-113746700D01*
X157134500Y-113670500D01*
X158009191Y-113663810D01*
X158078343Y-113663336D01*
X158311268Y-113662647D01*
X158511063Y-113663542D01*
X158674198Y-113665952D01*
X158797142Y-113669806D01*
X158876363Y-113675035D01*
X158908330Y-113681569D01*
X158912228Y-113686407D01*
X158932193Y-113733500D01*
X158948340Y-113802558D01*
X158958921Y-113851861D01*
X158983181Y-113891982D01*
X159028052Y-113906616D01*
X159084765Y-113906227D01*
X159119149Y-113878015D01*
X159128400Y-113810821D01*
X159128460Y-113798682D01*
X159131489Y-113755784D01*
X159143469Y-113722946D01*
X159170376Y-113698567D01*
X159218187Y-113681048D01*
X159292878Y-113668786D01*
X159400426Y-113660181D01*
X159546808Y-113653633D01*
X159738000Y-113647539D01*
X159792083Y-113645963D01*
X159978850Y-113641496D01*
X160122257Y-113640944D01*
X160228215Y-113645586D01*
X160302636Y-113656702D01*
X160351430Y-113675569D01*
X160380509Y-113703469D01*
X160395783Y-113741679D01*
X160403166Y-113791480D01*
X160410445Y-113837298D01*
X160433793Y-113867227D01*
X160487300Y-113873700D01*
X160520215Y-113872479D01*
X160551083Y-113859949D01*
X160567153Y-113822953D01*
X160577883Y-113748406D01*
X160578625Y-113742188D01*
X160600943Y-113646067D01*
X160637839Y-113596006D01*
X160756459Y-113520430D01*
X161010053Y-113318085D01*
X161224759Y-113083860D01*
X161399133Y-112819479D01*
X161531736Y-112526668D01*
X161541824Y-112498067D01*
X161612291Y-112234725D01*
X161657204Y-111935302D01*
X161676653Y-111606739D01*
X161670723Y-111255976D01*
X161639503Y-110889955D01*
X161583081Y-110515616D01*
X161501545Y-110139900D01*
X161427148Y-109861851D01*
X161342561Y-109583037D01*
X161255225Y-109330240D01*
X161166738Y-109106897D01*
X161078701Y-108916450D01*
X160992714Y-108762337D01*
X160910376Y-108647998D01*
X160833289Y-108576872D01*
X160763051Y-108552399D01*
X160739679Y-108553198D01*
X160690640Y-108563257D01*
X160642280Y-108589827D01*
X160587068Y-108639129D01*
X160517470Y-108717384D01*
X160425956Y-108830812D01*
X160403433Y-108859537D01*
X160326980Y-108961663D01*
X160278624Y-109037179D01*
X160253314Y-109094864D01*
X160246001Y-109143492D01*
X160234305Y-109222766D01*
X160191925Y-109273167D01*
X160114814Y-109289000D01*
X160054625Y-109273803D01*
X160008153Y-109218199D01*
X159992000Y-109125569D01*
X159991604Y-109110938D01*
X159976419Y-109070539D01*
X159928500Y-109060400D01*
X159894472Y-109063556D01*
X159870453Y-109086322D01*
X159865000Y-109144220D01*
X159853448Y-109222549D01*
X159811048Y-109273094D01*
X159733814Y-109288999D01*
X159673625Y-109273803D01*
X159627153Y-109218199D01*
X159611000Y-109125569D01*
X159610604Y-109110938D01*
X159595419Y-109070539D01*
X159547500Y-109060400D01*
X159541015Y-109060482D01*
X159496032Y-109073778D01*
X159484000Y-109118248D01*
X159475054Y-109167563D01*
X159444460Y-109232548D01*
X159404646Y-109271867D01*
X159344703Y-109287571D01*
X159288297Y-109264498D01*
X159246404Y-109208193D01*
X159230000Y-109124202D01*
X159229921Y-109117328D01*
X159222112Y-109059240D01*
X159205429Y-109030766D01*
X159191761Y-109018855D01*
X159152799Y-108972040D01*
X159097800Y-108898702D01*
X159033979Y-108808206D01*
X158993271Y-108750549D01*
X158924192Y-108659468D01*
X158863427Y-108587123D01*
X158820659Y-108545442D01*
X158777621Y-108517501D01*
X158736011Y-108511580D01*
X158680133Y-108535081D01*
X158642477Y-108564685D01*
X158580886Y-108629424D01*
X158507764Y-108717566D01*
X158431917Y-108819038D01*
X158363883Y-108912207D01*
X158299414Y-108994980D01*
X158249237Y-109053519D01*
X158220546Y-109078976D01*
X158218522Y-109079568D01*
X158175425Y-109079813D01*
X158094449Y-109072047D01*
X157986405Y-109057520D01*
X157862103Y-109037485D01*
X157699767Y-109009222D01*
X157580375Y-108988797D01*
X157497724Y-108975918D01*
X157445117Y-108970208D01*
X157415858Y-108971288D01*
X157403251Y-108978781D01*
X157400597Y-108992309D01*
X157401200Y-109011496D01*
X157395845Y-109056983D01*
X157353180Y-109154662D01*
X157277356Y-109244316D01*
X157179774Y-109314147D01*
X157071831Y-109352359D01*
X157039730Y-109355908D01*
X156925547Y-109341963D01*
X156817149Y-109293467D01*
X156725791Y-109218918D01*
X156662724Y-109126814D01*
X156639200Y-109025651D01*
X156638687Y-109011623D01*
X156622549Y-108970408D01*
X156577763Y-108958847D01*
X156496210Y-108974009D01*
X156468463Y-108987056D01*
X156443435Y-109026776D01*
X156429153Y-109103563D01*
X156424044Y-109137716D01*
X156378484Y-109265620D01*
X156300882Y-109364048D01*
X156200136Y-109430229D01*
X156085142Y-109461391D01*
X155964797Y-109454765D01*
X155847997Y-109407579D01*
X155743639Y-109317062D01*
X155680226Y-109241701D01*
X155545044Y-109330729D01*
X155457559Y-109390806D01*
X155232299Y-109574443D01*
X155040433Y-109780605D01*
X154877163Y-110015853D01*
X154737692Y-110286751D01*
X154617223Y-110599860D01*
X154566690Y-110763732D01*
X154534570Y-110904493D01*
X154518088Y-110976729D01*
X154494406Y-111184445D01*
X154493962Y-111404224D01*
X153963106Y-111404224D01*
X153962435Y-111403905D01*
X153959849Y-111402646D01*
X153855137Y-111348866D01*
X153768697Y-111296093D01*
X153687589Y-111234527D01*
X153598870Y-111154366D01*
X153517782Y-111073807D01*
X153834475Y-111073807D01*
X153865792Y-111114034D01*
X153939389Y-111167409D01*
X153991284Y-111198569D01*
X154053020Y-111231387D01*
X154087940Y-111244317D01*
X154095420Y-111237136D01*
X154115197Y-111193823D01*
X154139469Y-111124073D01*
X154163911Y-111042715D01*
X154184196Y-110964579D01*
X154196000Y-110904493D01*
X154194997Y-110877287D01*
X154192430Y-110875556D01*
X154161110Y-110854077D01*
X154108007Y-110817494D01*
X154027914Y-110762239D01*
X153940724Y-110895569D01*
X153899419Y-110959126D01*
X153858387Y-111023187D01*
X153835606Y-111059942D01*
X153834475Y-111073807D01*
X153517782Y-111073807D01*
X153489600Y-111045810D01*
X153427060Y-110980650D01*
X153255324Y-110779722D01*
X153129987Y-110592949D01*
X153096317Y-110519583D01*
X153334659Y-110519583D01*
X153353265Y-110567351D01*
X153402804Y-110641915D01*
X153442838Y-110694056D01*
X153485130Y-110741469D01*
X153508897Y-110758174D01*
X153534868Y-110739372D01*
X153585127Y-110693744D01*
X153648731Y-110631204D01*
X153769761Y-110508260D01*
X153702505Y-110406630D01*
X153679545Y-110373863D01*
X153638284Y-110324451D01*
X153611452Y-110305000D01*
X153610169Y-110305072D01*
X153573220Y-110320998D01*
X153512886Y-110357578D01*
X153444405Y-110404425D01*
X153383013Y-110451152D01*
X153343946Y-110487372D01*
X153343103Y-110488414D01*
X153334659Y-110519583D01*
X153096317Y-110519583D01*
X153049856Y-110418346D01*
X153013739Y-110253928D01*
X153016067Y-110121843D01*
X153055673Y-109995380D01*
X153132486Y-109901299D01*
X153243885Y-109842629D01*
X153387247Y-109822400D01*
X153448071Y-109829144D01*
X153523367Y-109860974D01*
X153599740Y-109923785D01*
X153683314Y-110022892D01*
X153780213Y-110163613D01*
X153798836Y-110192025D01*
X153947178Y-110392712D01*
X154055493Y-110508260D01*
X154098550Y-110554193D01*
X154247843Y-110670927D01*
X154300553Y-110702664D01*
X154354443Y-110730484D01*
X154380520Y-110737587D01*
X154371147Y-110720879D01*
X154370300Y-110719853D01*
X154371415Y-110686502D01*
X154392966Y-110631979D01*
X154395990Y-110626060D01*
X154417043Y-110578505D01*
X154419575Y-110559000D01*
X154416416Y-110551894D01*
X154426744Y-110509058D01*
X154453664Y-110435359D01*
X154493005Y-110339928D01*
X154540593Y-110231899D01*
X154592255Y-110120403D01*
X154643818Y-110014572D01*
X154691107Y-109923540D01*
X154729952Y-109856438D01*
X154756177Y-109822400D01*
X154766895Y-109810637D01*
X154801016Y-109765549D01*
X154845970Y-109701326D01*
X154907000Y-109622321D01*
X155023327Y-109499283D01*
X155165219Y-109370460D01*
X155321028Y-109245603D01*
X155479105Y-109134463D01*
X155627803Y-109046792D01*
X155650571Y-109035504D01*
X155754139Y-108990888D01*
X155884951Y-108941385D01*
X156028209Y-108891946D01*
X156169113Y-108847523D01*
X156292865Y-108813070D01*
X156384664Y-108793537D01*
X156416866Y-108788445D01*
X156482711Y-108775511D01*
X156517864Y-108764799D01*
X156543593Y-108761071D01*
X156611423Y-108757755D01*
X156710601Y-108755340D01*
X156830868Y-108753833D01*
X156961962Y-108753240D01*
X157093624Y-108753568D01*
X157215592Y-108754824D01*
X157317608Y-108757014D01*
X157389410Y-108760145D01*
X157420738Y-108764223D01*
X157421192Y-108764471D01*
X157455884Y-108772467D01*
X157525942Y-108782699D01*
X157616730Y-108793017D01*
X157621606Y-108793508D01*
X157710705Y-108803460D01*
X157777467Y-108812670D01*
X157807767Y-108819202D01*
X157816318Y-108822251D01*
X157863820Y-108832288D01*
X157935137Y-108843679D01*
X157964284Y-108847998D01*
X158040931Y-108861163D01*
X158092213Y-108872523D01*
X158099301Y-108874072D01*
X158123720Y-108869802D01*
X158154211Y-108846677D01*
X158196180Y-108798765D01*
X158255034Y-108720135D01*
X158336180Y-108604852D01*
X158392646Y-108529492D01*
X158509757Y-108409516D01*
X158627278Y-108336153D01*
X158742824Y-108310649D01*
X158854012Y-108334250D01*
X158920139Y-108369536D01*
X158989799Y-108423337D01*
X159060878Y-108499330D01*
X159140501Y-108605249D01*
X159235791Y-108748833D01*
X159305082Y-108857199D01*
X159722543Y-108857200D01*
X160140005Y-108857200D01*
X160237453Y-108739308D01*
X160296365Y-108668671D01*
X160400532Y-108549344D01*
X160485514Y-108463397D01*
X160558529Y-108405620D01*
X160626799Y-108370801D01*
X160697542Y-108353732D01*
X160777977Y-108349200D01*
X160792958Y-108349630D01*
X160887904Y-108373648D01*
X160982017Y-108436442D01*
X161077923Y-108540785D01*
X161178250Y-108689452D01*
X161285624Y-108885216D01*
X161298356Y-108910419D01*
X161353743Y-109022965D01*
X161398666Y-109118915D01*
X161428795Y-109188781D01*
X161439800Y-109223073D01*
X161442837Y-109241377D01*
X161461613Y-109300071D01*
X161491852Y-109374813D01*
X161507229Y-109408585D01*
X161538062Y-109461980D01*
X161569093Y-109482639D01*
X161612502Y-109481310D01*
X161704665Y-109467142D01*
X161865393Y-109446218D01*
X162015354Y-109431130D01*
X162144734Y-109422631D01*
X162243719Y-109421475D01*
X162302494Y-109428412D01*
X162302836Y-109428521D01*
X162343529Y-109456790D01*
X162349327Y-109512962D01*
X162347824Y-109523811D01*
X162337533Y-109555597D01*
X162313758Y-109579487D01*
X162269062Y-109597809D01*
X162196011Y-109612890D01*
X162087169Y-109627059D01*
X161935100Y-109642642D01*
X161811649Y-109656285D01*
X161714786Y-109672105D01*
X161654921Y-109690035D01*
X161624764Y-109711697D01*
X161612753Y-109728098D01*
X161600838Y-109748709D01*
X161601622Y-109764875D01*
X161620522Y-109777833D01*
X161662958Y-109788825D01*
X161734345Y-109799089D01*
X161840103Y-109809866D01*
X161985649Y-109822394D01*
X162176400Y-109837914D01*
X162187144Y-109838786D01*
X162291518Y-109848192D01*
X162355761Y-109858389D01*
X162389603Y-109873514D01*
X162402773Y-109897702D01*
X162405000Y-109935088D01*
X162386617Y-110002832D01*
X162332093Y-110040392D01*
X162246529Y-110041357D01*
X162193686Y-110034446D01*
X162105323Y-110027976D01*
X162002169Y-110023704D01*
X161897322Y-110021836D01*
X161803878Y-110022581D01*
X161734936Y-110026146D01*
X161703593Y-110032740D01*
X161701607Y-110041494D01*
X161705673Y-110090493D01*
X161719344Y-110171149D01*
X161740764Y-110271535D01*
X161775069Y-110436986D01*
X161814067Y-110680016D01*
X161844562Y-110937929D01*
X161865922Y-111200031D01*
X161877515Y-111455624D01*
X161878273Y-111606739D01*
X161878710Y-111694015D01*
X161868875Y-111904506D01*
G37*
X161868875Y-111904506D02*
X161847378Y-112076404D01*
X161833488Y-112151687D01*
X161816850Y-112242143D01*
X161805347Y-112305004D01*
X161782473Y-112411710D01*
X161714470Y-112624920D01*
X161613424Y-112844007D01*
X161474635Y-113079989D01*
X161459804Y-113102855D01*
X161316152Y-113298470D01*
X161156397Y-113466397D01*
X160963550Y-113624742D01*
X160928232Y-113651177D01*
X160851282Y-113712492D01*
X160806087Y-113758132D01*
X160784757Y-113797285D01*
X160779400Y-113839139D01*
X160779279Y-113845585D01*
X160757244Y-113922085D01*
X160693041Y-114003239D01*
X160634340Y-114054962D01*
X160573566Y-114082776D01*
X160493266Y-114089600D01*
X160387710Y-114073640D01*
X160284687Y-114013611D01*
X160206741Y-113909557D01*
X160168496Y-113835600D01*
X159906174Y-113835600D01*
X159844592Y-113836002D01*
X159709554Y-113839149D01*
X159583482Y-113844742D01*
X159487291Y-113851963D01*
X159421974Y-113859798D01*
X159361558Y-113873217D01*
X159330377Y-113894142D01*
X159315692Y-113928238D01*
X159313340Y-113935896D01*
X159279231Y-113994140D01*
X159225279Y-114051574D01*
X159176638Y-114084582D01*
X159068794Y-114116377D01*
X158956717Y-114103161D01*
X158852850Y-114045150D01*
X158834803Y-114028937D01*
X158785719Y-113972180D01*
X158762497Y-113924500D01*
X158758926Y-113910278D01*
X158748816Y-113898473D01*
X158726723Y-113889369D01*
X158687102Y-113882526D01*
X158624408Y-113877510D01*
X158533095Y-113873882D01*
X158407619Y-113871207D01*
X158242435Y-113869048D01*
X158031997Y-113866967D01*
X157308717Y-113860235D01*
X157226762Y-113962217D01*
X157214795Y-113976915D01*
X157161356Y-114032693D01*
X157111430Y-114058144D01*
X157045599Y-114064200D01*
X156931254Y-114050703D01*
X156837563Y-114002916D01*
X156778514Y-113919656D01*
X156743393Y-113835600D01*
X155895581Y-113835600D01*
X155783012Y-113939362D01*
X155730895Y-113985606D01*
X155677896Y-114021756D01*
X155628697Y-114034355D01*
X155565292Y-114030979D01*
X155485225Y-114007740D01*
X155401415Y-113952151D01*
X155341372Y-113877952D01*
X155318400Y-113797715D01*
X155318334Y-113794595D01*
X155292802Y-113727962D01*
X155224419Y-113652065D01*
X155196465Y-113626838D01*
X155100007Y-113533233D01*
X155005336Y-113432683D01*
X154919476Y-113333559D01*
X154849450Y-113244230D01*
X154802284Y-113173068D01*
X154785000Y-113128441D01*
X154783896Y-113118929D01*
X154764508Y-113099000D01*
X154753433Y-113089810D01*
X154721968Y-113039254D01*
X154675314Y-112948218D01*
X154615564Y-112820872D01*
X154544812Y-112661383D01*
X154525811Y-112616509D01*
X154488694Y-112522163D01*
X154460189Y-112440884D01*
X154444071Y-112383890D01*
X154444121Y-112362400D01*
X154446885Y-112353908D01*
X154432811Y-112317950D01*
X154413333Y-112268169D01*
X154395648Y-112197300D01*
X154389266Y-112161662D01*
X154373456Y-112075594D01*
X154355812Y-111981400D01*
X154346549Y-111929000D01*
X154327991Y-111807187D01*
X154313684Y-111692697D01*
X154310286Y-111662616D01*
X154296961Y-111587560D01*
X154277231Y-111547474D01*
X154245989Y-111530092D01*
X154223319Y-111522225D01*
X154157265Y-111494501D01*
X154066099Y-111453189D01*
X153963106Y-111404224D01*
X154493962Y-111404224D01*
X154515077Y-111653409D01*
X154543179Y-111861337D01*
X154606212Y-112182701D01*
X154691469Y-112473402D01*
X154802387Y-112744324D01*
X154942405Y-113006350D01*
X154952448Y-113022926D01*
X155058837Y-113176258D01*
X155185021Y-113327237D01*
X155317703Y-113461095D01*
X155443589Y-113563063D01*
X155493732Y-113620428D01*
X155519789Y-113713837D01*
X155522238Y-113729751D01*
X155546163Y-113803100D01*
X155580484Y-113834417D01*
X155618098Y-113821175D01*
X155651902Y-113760847D01*
X155684906Y-113697981D01*
X155725802Y-113657263D01*
X155729298Y-113655833D01*
X155776697Y-113648309D01*
X155865556Y-113641862D01*
X155987953Y-113636833D01*
X156135968Y-113633565D01*
X156301679Y-113632400D01*
X156458256Y-113632915D01*
X156621296Y-113635779D01*
X156743629Y-113642270D01*
X156830949Y-113653631D01*
X156888951Y-113671105D01*
X156923331Y-113695937D01*
X156939782Y-113729370D01*
X156944000Y-113772646D01*
X156954286Y-113815938D01*
X156987457Y-113856752D01*
X157028855Y-113873209D01*
X157063109Y-113854718D01*
X157084589Y-113811091D01*
X157109100Y-113746700D01*
X157134500Y-113670500D01*
X158009191Y-113663810D01*
X158078343Y-113663336D01*
X158311268Y-113662647D01*
X158511063Y-113663542D01*
X158674198Y-113665952D01*
X158797142Y-113669806D01*
X158876363Y-113675035D01*
X158908330Y-113681569D01*
X158912228Y-113686407D01*
X158932193Y-113733500D01*
X158948340Y-113802558D01*
X158958921Y-113851861D01*
X158983181Y-113891982D01*
X159028052Y-113906616D01*
X159084765Y-113906227D01*
X159119149Y-113878015D01*
X159128400Y-113810821D01*
X159128460Y-113798682D01*
X159131489Y-113755784D01*
X159143469Y-113722946D01*
X159170376Y-113698567D01*
X159218187Y-113681048D01*
X159292878Y-113668786D01*
X159400426Y-113660181D01*
X159546808Y-113653633D01*
X159738000Y-113647539D01*
X159792083Y-113645963D01*
X159978850Y-113641496D01*
X160122257Y-113640944D01*
X160228215Y-113645586D01*
X160302636Y-113656702D01*
X160351430Y-113675569D01*
X160380509Y-113703469D01*
X160395783Y-113741679D01*
X160403166Y-113791480D01*
X160410445Y-113837298D01*
X160433793Y-113867227D01*
X160487300Y-113873700D01*
X160520215Y-113872479D01*
X160551083Y-113859949D01*
X160567153Y-113822953D01*
X160577883Y-113748406D01*
X160578625Y-113742188D01*
X160600943Y-113646067D01*
X160637839Y-113596006D01*
X160756459Y-113520430D01*
X161010053Y-113318085D01*
X161224759Y-113083860D01*
X161399133Y-112819479D01*
X161531736Y-112526668D01*
X161541824Y-112498067D01*
X161612291Y-112234725D01*
X161657204Y-111935302D01*
X161676653Y-111606739D01*
X161670723Y-111255976D01*
X161639503Y-110889955D01*
X161583081Y-110515616D01*
X161501545Y-110139900D01*
X161427148Y-109861851D01*
X161342561Y-109583037D01*
X161255225Y-109330240D01*
X161166738Y-109106897D01*
X161078701Y-108916450D01*
X160992714Y-108762337D01*
X160910376Y-108647998D01*
X160833289Y-108576872D01*
X160763051Y-108552399D01*
X160739679Y-108553198D01*
X160690640Y-108563257D01*
X160642280Y-108589827D01*
X160587068Y-108639129D01*
X160517470Y-108717384D01*
X160425956Y-108830812D01*
X160403433Y-108859537D01*
X160326980Y-108961663D01*
X160278624Y-109037179D01*
X160253314Y-109094864D01*
X160246001Y-109143492D01*
X160234305Y-109222766D01*
X160191925Y-109273167D01*
X160114814Y-109289000D01*
X160054625Y-109273803D01*
X160008153Y-109218199D01*
X159992000Y-109125569D01*
X159991604Y-109110938D01*
X159976419Y-109070539D01*
X159928500Y-109060400D01*
X159894472Y-109063556D01*
X159870453Y-109086322D01*
X159865000Y-109144220D01*
X159853448Y-109222549D01*
X159811048Y-109273094D01*
X159733814Y-109288999D01*
X159673625Y-109273803D01*
X159627153Y-109218199D01*
X159611000Y-109125569D01*
X159610604Y-109110938D01*
X159595419Y-109070539D01*
X159547500Y-109060400D01*
X159541015Y-109060482D01*
X159496032Y-109073778D01*
X159484000Y-109118248D01*
X159475054Y-109167563D01*
X159444460Y-109232548D01*
X159404646Y-109271867D01*
X159344703Y-109287571D01*
X159288297Y-109264498D01*
X159246404Y-109208193D01*
X159230000Y-109124202D01*
X159229921Y-109117328D01*
X159222112Y-109059240D01*
X159205429Y-109030766D01*
X159191761Y-109018855D01*
X159152799Y-108972040D01*
X159097800Y-108898702D01*
X159033979Y-108808206D01*
X158993271Y-108750549D01*
X158924192Y-108659468D01*
X158863427Y-108587123D01*
X158820659Y-108545442D01*
X158777621Y-108517501D01*
X158736011Y-108511580D01*
X158680133Y-108535081D01*
X158642477Y-108564685D01*
X158580886Y-108629424D01*
X158507764Y-108717566D01*
X158431917Y-108819038D01*
X158363883Y-108912207D01*
X158299414Y-108994980D01*
X158249237Y-109053519D01*
X158220546Y-109078976D01*
X158218522Y-109079568D01*
X158175425Y-109079813D01*
X158094449Y-109072047D01*
X157986405Y-109057520D01*
X157862103Y-109037485D01*
X157699767Y-109009222D01*
X157580375Y-108988797D01*
X157497724Y-108975918D01*
X157445117Y-108970208D01*
X157415858Y-108971288D01*
X157403251Y-108978781D01*
X157400597Y-108992309D01*
X157401200Y-109011496D01*
X157395845Y-109056983D01*
X157353180Y-109154662D01*
X157277356Y-109244316D01*
X157179774Y-109314147D01*
X157071831Y-109352359D01*
X157039730Y-109355908D01*
X156925547Y-109341963D01*
X156817149Y-109293467D01*
X156725791Y-109218918D01*
X156662724Y-109126814D01*
X156639200Y-109025651D01*
X156638687Y-109011623D01*
X156622549Y-108970408D01*
X156577763Y-108958847D01*
X156496210Y-108974009D01*
X156468463Y-108987056D01*
X156443435Y-109026776D01*
X156429153Y-109103563D01*
X156424044Y-109137716D01*
X156378484Y-109265620D01*
X156300882Y-109364048D01*
X156200136Y-109430229D01*
X156085142Y-109461391D01*
X155964797Y-109454765D01*
X155847997Y-109407579D01*
X155743639Y-109317062D01*
X155680226Y-109241701D01*
X155545044Y-109330729D01*
X155457559Y-109390806D01*
X155232299Y-109574443D01*
X155040433Y-109780605D01*
X154877163Y-110015853D01*
X154737692Y-110286751D01*
X154617223Y-110599860D01*
X154566690Y-110763732D01*
X154534570Y-110904493D01*
X154518088Y-110976729D01*
X154494406Y-111184445D01*
X154493962Y-111404224D01*
X153963106Y-111404224D01*
X153962435Y-111403905D01*
X153959849Y-111402646D01*
X153855137Y-111348866D01*
X153768697Y-111296093D01*
X153687589Y-111234527D01*
X153598870Y-111154366D01*
X153517782Y-111073807D01*
X153834475Y-111073807D01*
X153865792Y-111114034D01*
X153939389Y-111167409D01*
X153991284Y-111198569D01*
X154053020Y-111231387D01*
X154087940Y-111244317D01*
X154095420Y-111237136D01*
X154115197Y-111193823D01*
X154139469Y-111124073D01*
X154163911Y-111042715D01*
X154184196Y-110964579D01*
X154196000Y-110904493D01*
X154194997Y-110877287D01*
X154192430Y-110875556D01*
X154161110Y-110854077D01*
X154108007Y-110817494D01*
X154027914Y-110762239D01*
X153940724Y-110895569D01*
X153899419Y-110959126D01*
X153858387Y-111023187D01*
X153835606Y-111059942D01*
X153834475Y-111073807D01*
X153517782Y-111073807D01*
X153489600Y-111045810D01*
X153427060Y-110980650D01*
X153255324Y-110779722D01*
X153129987Y-110592949D01*
X153096317Y-110519583D01*
X153334659Y-110519583D01*
X153353265Y-110567351D01*
X153402804Y-110641915D01*
X153442838Y-110694056D01*
X153485130Y-110741469D01*
X153508897Y-110758174D01*
X153534868Y-110739372D01*
X153585127Y-110693744D01*
X153648731Y-110631204D01*
X153769761Y-110508260D01*
X153702505Y-110406630D01*
X153679545Y-110373863D01*
X153638284Y-110324451D01*
X153611452Y-110305000D01*
X153610169Y-110305072D01*
X153573220Y-110320998D01*
X153512886Y-110357578D01*
X153444405Y-110404425D01*
X153383013Y-110451152D01*
X153343946Y-110487372D01*
X153343103Y-110488414D01*
X153334659Y-110519583D01*
X153096317Y-110519583D01*
X153049856Y-110418346D01*
X153013739Y-110253928D01*
X153016067Y-110121843D01*
X153055673Y-109995380D01*
X153132486Y-109901299D01*
X153243885Y-109842629D01*
X153387247Y-109822400D01*
X153448071Y-109829144D01*
X153523367Y-109860974D01*
X153599740Y-109923785D01*
X153683314Y-110022892D01*
X153780213Y-110163613D01*
X153798836Y-110192025D01*
X153947178Y-110392712D01*
X154055493Y-110508260D01*
X154098550Y-110554193D01*
X154247843Y-110670927D01*
X154300553Y-110702664D01*
X154354443Y-110730484D01*
X154380520Y-110737587D01*
X154371147Y-110720879D01*
X154370300Y-110719853D01*
X154371415Y-110686502D01*
X154392966Y-110631979D01*
X154395990Y-110626060D01*
X154417043Y-110578505D01*
X154419575Y-110559000D01*
X154416416Y-110551894D01*
X154426744Y-110509058D01*
X154453664Y-110435359D01*
X154493005Y-110339928D01*
X154540593Y-110231899D01*
X154592255Y-110120403D01*
X154643818Y-110014572D01*
X154691107Y-109923540D01*
X154729952Y-109856438D01*
X154756177Y-109822400D01*
X154766895Y-109810637D01*
X154801016Y-109765549D01*
X154845970Y-109701326D01*
X154907000Y-109622321D01*
X155023327Y-109499283D01*
X155165219Y-109370460D01*
X155321028Y-109245603D01*
X155479105Y-109134463D01*
X155627803Y-109046792D01*
X155650571Y-109035504D01*
X155754139Y-108990888D01*
X155884951Y-108941385D01*
X156028209Y-108891946D01*
X156169113Y-108847523D01*
X156292865Y-108813070D01*
X156384664Y-108793537D01*
X156416866Y-108788445D01*
X156482711Y-108775511D01*
X156517864Y-108764799D01*
X156543593Y-108761071D01*
X156611423Y-108757755D01*
X156710601Y-108755340D01*
X156830868Y-108753833D01*
X156961962Y-108753240D01*
X157093624Y-108753568D01*
X157215592Y-108754824D01*
X157317608Y-108757014D01*
X157389410Y-108760145D01*
X157420738Y-108764223D01*
X157421192Y-108764471D01*
X157455884Y-108772467D01*
X157525942Y-108782699D01*
X157616730Y-108793017D01*
X157621606Y-108793508D01*
X157710705Y-108803460D01*
X157777467Y-108812670D01*
X157807767Y-108819202D01*
X157816318Y-108822251D01*
X157863820Y-108832288D01*
X157935137Y-108843679D01*
X157964284Y-108847998D01*
X158040931Y-108861163D01*
X158092213Y-108872523D01*
X158099301Y-108874072D01*
X158123720Y-108869802D01*
X158154211Y-108846677D01*
X158196180Y-108798765D01*
X158255034Y-108720135D01*
X158336180Y-108604852D01*
X158392646Y-108529492D01*
X158509757Y-108409516D01*
X158627278Y-108336153D01*
X158742824Y-108310649D01*
X158854012Y-108334250D01*
X158920139Y-108369536D01*
X158989799Y-108423337D01*
X159060878Y-108499330D01*
X159140501Y-108605249D01*
X159235791Y-108748833D01*
X159305082Y-108857199D01*
X159722543Y-108857200D01*
X160140005Y-108857200D01*
X160237453Y-108739308D01*
X160296365Y-108668671D01*
X160400532Y-108549344D01*
X160485514Y-108463397D01*
X160558529Y-108405620D01*
X160626799Y-108370801D01*
X160697542Y-108353732D01*
X160777977Y-108349200D01*
X160792958Y-108349630D01*
X160887904Y-108373648D01*
X160982017Y-108436442D01*
X161077923Y-108540785D01*
X161178250Y-108689452D01*
X161285624Y-108885216D01*
X161298356Y-108910419D01*
X161353743Y-109022965D01*
X161398666Y-109118915D01*
X161428795Y-109188781D01*
X161439800Y-109223073D01*
X161442837Y-109241377D01*
X161461613Y-109300071D01*
X161491852Y-109374813D01*
X161507229Y-109408585D01*
X161538062Y-109461980D01*
X161569093Y-109482639D01*
X161612502Y-109481310D01*
X161704665Y-109467142D01*
X161865393Y-109446218D01*
X162015354Y-109431130D01*
X162144734Y-109422631D01*
X162243719Y-109421475D01*
X162302494Y-109428412D01*
X162302836Y-109428521D01*
X162343529Y-109456790D01*
X162349327Y-109512962D01*
X162347824Y-109523811D01*
X162337533Y-109555597D01*
X162313758Y-109579487D01*
X162269062Y-109597809D01*
X162196011Y-109612890D01*
X162087169Y-109627059D01*
X161935100Y-109642642D01*
X161811649Y-109656285D01*
X161714786Y-109672105D01*
X161654921Y-109690035D01*
X161624764Y-109711697D01*
X161612753Y-109728098D01*
X161600838Y-109748709D01*
X161601622Y-109764875D01*
X161620522Y-109777833D01*
X161662958Y-109788825D01*
X161734345Y-109799089D01*
X161840103Y-109809866D01*
X161985649Y-109822394D01*
X162176400Y-109837914D01*
X162187144Y-109838786D01*
X162291518Y-109848192D01*
X162355761Y-109858389D01*
X162389603Y-109873514D01*
X162402773Y-109897702D01*
X162405000Y-109935088D01*
X162386617Y-110002832D01*
X162332093Y-110040392D01*
X162246529Y-110041357D01*
X162193686Y-110034446D01*
X162105323Y-110027976D01*
X162002169Y-110023704D01*
X161897322Y-110021836D01*
X161803878Y-110022581D01*
X161734936Y-110026146D01*
X161703593Y-110032740D01*
X161701607Y-110041494D01*
X161705673Y-110090493D01*
X161719344Y-110171149D01*
X161740764Y-110271535D01*
X161775069Y-110436986D01*
X161814067Y-110680016D01*
X161844562Y-110937929D01*
X161865922Y-111200031D01*
X161877515Y-111455624D01*
X161878273Y-111606739D01*
X161878710Y-111694015D01*
X161868875Y-111904506D01*
G36*
X160630932Y-109653725D02*
G01*
X160718717Y-109704080D01*
X160741826Y-109727132D01*
X160783918Y-109808465D01*
X160783810Y-109894699D01*
X160743748Y-109972075D01*
X160665982Y-110026831D01*
X160659631Y-110029390D01*
X160606221Y-110046295D01*
X160562550Y-110041818D01*
X160501817Y-110013839D01*
X160432823Y-109957305D01*
X160398450Y-109877403D01*
X160407209Y-109789848D01*
X160460746Y-109706945D01*
X160464006Y-109703736D01*
X160545052Y-109653622D01*
X160630932Y-109653725D01*
G37*
X160630932Y-109653725D02*
X160718717Y-109704080D01*
X160741826Y-109727132D01*
X160783918Y-109808465D01*
X160783810Y-109894699D01*
X160743748Y-109972075D01*
X160665982Y-110026831D01*
X160659631Y-110029390D01*
X160606221Y-110046295D01*
X160562550Y-110041818D01*
X160501817Y-110013839D01*
X160432823Y-109957305D01*
X160398450Y-109877403D01*
X160407209Y-109789848D01*
X160460746Y-109706945D01*
X160464006Y-109703736D01*
X160545052Y-109653622D01*
X160630932Y-109653725D01*
G36*
X157539228Y-109371721D02*
G01*
X157680600Y-109391050D01*
X157806606Y-109413487D01*
X157980039Y-109454741D01*
X158105556Y-109500241D01*
X158182455Y-109549618D01*
X158210033Y-109602500D01*
X158187589Y-109658518D01*
X158165541Y-109680163D01*
X158135652Y-109691544D01*
X158089074Y-109689963D01*
X158015127Y-109674953D01*
X157903134Y-109646045D01*
X157798477Y-109620808D01*
X157672706Y-109595633D01*
X157566300Y-109579361D01*
X157525468Y-109574394D01*
X157423177Y-109556244D01*
X157361609Y-109531697D01*
X157333061Y-109496410D01*
X157329828Y-109446041D01*
X157341634Y-109407686D01*
X157376406Y-109378995D01*
X157440050Y-109367354D01*
X157539228Y-109371721D01*
G37*
X157539228Y-109371721D02*
X157680600Y-109391050D01*
X157806606Y-109413487D01*
X157980039Y-109454741D01*
X158105556Y-109500241D01*
X158182455Y-109549618D01*
X158210033Y-109602500D01*
X158187589Y-109658518D01*
X158165541Y-109680163D01*
X158135652Y-109691544D01*
X158089074Y-109689963D01*
X158015127Y-109674953D01*
X157903134Y-109646045D01*
X157798477Y-109620808D01*
X157672706Y-109595633D01*
X157566300Y-109579361D01*
X157525468Y-109574394D01*
X157423177Y-109556244D01*
X157361609Y-109531697D01*
X157333061Y-109496410D01*
X157329828Y-109446041D01*
X157341634Y-109407686D01*
X157376406Y-109378995D01*
X157440050Y-109367354D01*
X157539228Y-109371721D01*
D11*
%TO.C,C16*%
X120661252Y-94915000D02*
X120138748Y-94915000D01*
X120661252Y-96335000D02*
X120138748Y-96335000D01*
%TD*%
M02*
