M48
; DRILL file {KiCad (5.1.6)-1} date 09/08/20 21:04:49
; FORMAT={-:-/ absolute / metric / decimal}
; #@! TF.CreationDate,2020-09-08T21:04:49+07:00
; #@! TF.GenerationSoftware,Kicad,Pcbnew,(5.1.6)-1
; #@! TF.FileFunction,Plated,1,2,PTH
FMAT,2
METRIC
T1C0.400
T2C0.600
T3C0.762
T4C0.800
T5C0.850
T6C1.000
T7C1.320
T8C3.000
%
G90
G05
T1
X98.575Y-78.35
X98.575Y-81.025
X98.65Y-83.65
X98.675Y-86.45
X98.675Y-89.35
X98.7Y-91.975
X98.975Y-106.725
X99.05Y-61.925
X99.05Y-64.475
X99.05Y-66.9
X99.2Y-115.35
X101.4Y-78.3
X101.85Y-61.85
X101.875Y-64.475
X101.875Y-66.95
X102.075Y-104.15
X102.15Y-101.275
X102.425Y-115.5
X102.575Y-109.7
X102.575Y-111.85
X103.6Y-94.175
X104.275Y-104.25
X104.425Y-64.475
X104.425Y-66.925
X104.45Y-101.125
X104.475Y-61.825
X105.25Y-79.5
X105.675Y-89.025
X105.675Y-94.175
X106.4Y-101.9
X106.775Y-109.825
X106.775Y-111.775
X106.95Y-116.05
X107.025Y-119.125
X107.75Y-89.0
X107.825Y-94.175
X107.95Y-106.075
X108.225Y-78.2
X109.225Y-62.475
X109.225Y-63.55
X109.575Y-74.625
X110.025Y-106.05
X110.175Y-94.2
X110.325Y-63.55
X110.35Y-62.475
X111.5Y-62.5
X111.525Y-63.575
X111.825Y-111.625
X111.875Y-84.3
X112.05Y-115.95
X112.175Y-119.35
X112.6Y-94.225
X112.825Y-106.025
X114.25Y-62.75
X114.975Y-94.275
X116.305Y-79.745
X116.625Y-111.55
X116.775Y-115.975
X116.95Y-119.55
X117.0Y-74.5
X117.025Y-64.025
X117.25Y-67.25
X117.675Y-86.3
X118.375Y-89.9
X118.55Y-84.5
X118.6Y-80.91
X118.625Y-77.975
X119.275Y-83.425
X119.325Y-91.8
X119.375Y-88.8
X120.3Y-82.425
X120.325Y-72.725
X120.78Y-79.745
X121.125Y-88.775
X121.15Y-87.525
X121.375Y-81.25
X121.5Y-103.025
X121.625Y-111.45
X121.675Y-115.75
X122.025Y-70.675
X122.505Y-79.745
X122.55Y-86.15
X122.575Y-87.55
X122.575Y-88.8
X123.25Y-94.4
X123.45Y-102.975
X123.625Y-108.475
X124.85Y-115.725
X125.55Y-89.975
X125.675Y-87.85
X125.855Y-65.245
X126.025Y-76.475
X126.05Y-69.8
X126.175Y-94.55
X126.3Y-119.7
X126.375Y-103.6
X126.4Y-101.1
X127.025Y-74.6
X128.075Y-115.775
X128.15Y-75.85
X128.15Y-102.775
X128.25Y-66.75
X128.45Y-98.275
X128.625Y-82.875
X129.3Y-74.5
X129.575Y-119.7
X129.7Y-84.0
X129.975Y-80.5
X130.2Y-110.925
X130.25Y-68.5
X130.25Y-90.75
X130.65Y-99.85
X131.35Y-76.05
X131.375Y-74.55
X131.375Y-81.35
X131.775Y-112.9
X132.175Y-87.125
X132.275Y-63.975
X132.275Y-69.525
X132.35Y-83.9
X132.725Y-103.575
X132.825Y-76.05
X133.025Y-96.275
X133.1Y-110.975
X133.15Y-119.75
X133.8Y-65.675
X134.275Y-95.05
X134.375Y-112.925
X134.375Y-115.05
X134.45Y-76.025
X134.503Y-70.522
X134.65Y-73.2
X134.75Y-102.675
X134.9Y-64.375
X134.975Y-66.825
X135.425Y-93.875
X135.525Y-73.95
X135.6Y-67.85
X135.65Y-62.05
X135.75Y-71.475
X136.05Y-81.85
X136.35Y-119.75
X136.375Y-65.75
X136.575Y-64.375
X136.7Y-92.175
X136.88Y-81.18
X137.0Y-99.7
X137.15Y-66.7
X137.15Y-69.6
X137.188Y-68.312
X137.25Y-84.025
X137.7Y-82.2
X137.725Y-72.575
X137.8Y-92.1
X137.85Y-73.95
X138.0Y-85.0
X138.15Y-83.125
X138.275Y-98.175
X138.325Y-70.775
X138.325Y-96.375
X138.375Y-69.575
X138.55Y-66.9
X138.85Y-92.125
X138.875Y-80.275
X139.075Y-73.975
X139.25Y-111.2
X139.25Y-113.875
X139.275Y-116.025
X139.35Y-103.55
X139.4Y-81.3
X139.5Y-119.8
X139.55Y-72.075
X139.7Y-66.05
X139.95Y-92.125
X140.175Y-62.125
X140.35Y-80.478
X141.0Y-83.75
X141.075Y-72.075
X141.075Y-73.55
X141.075Y-92.125
X141.45Y-102.7
X141.5Y-81.525
X142.05Y-62.15
X142.225Y-82.375
X142.8Y-66.85
X142.875Y-119.75
X143.2Y-76.925
X143.225Y-92.725
X143.35Y-94.575
X143.375Y-72.9
X143.375Y-74.225
X143.375Y-75.575
X143.45Y-71.475
X143.7Y-99.75
X143.7Y-111.175
X143.75Y-113.9
X144.575Y-94.25
X144.6Y-66.95
X144.85Y-69.1
X145.3Y-64.325
X145.7Y-74.275
X145.7Y-75.775
X145.825Y-95.625
X146.05Y-77.075
X146.175Y-103.55
X146.25Y-119.775
X146.525Y-85.625
X146.575Y-67.65
X147.025Y-72.975
X147.275Y-77.75
X147.4Y-84.675
X147.825Y-86.875
X148.025Y-102.625
X148.1Y-66.4
X148.275Y-79.325
X148.325Y-76.275
X148.395Y-81.3
X148.5Y-71.5
X148.7Y-77.75
X149.05Y-85.975
X149.2Y-88.325
X149.425Y-119.775
X149.475Y-111.05
X149.7Y-64.95
X149.875Y-70.125
X150.225Y-99.6
X150.35Y-87.375
X150.4Y-89.6
X150.45Y-77.825
X150.45Y-82.775
X150.75Y-73.7
X151.05Y-64.65
X151.3Y-84.225
X151.325Y-68.55
X151.4Y-103.325
X151.55Y-88.525
X151.775Y-90.95
X152.0Y-115.7
X152.425Y-78.725
X152.425Y-82.075
X152.675Y-67.15
X152.75Y-119.775
X152.9Y-89.925
X153.05Y-92.275
X153.1Y-86.3
X153.3Y-84.25
X153.85Y-113.5
X154.025Y-115.7
X154.075Y-90.95
X154.425Y-75.7
X154.5Y-73.925
X154.575Y-70.475
X154.575Y-72.15
X155.0Y-92.275
X155.1Y-88.375
X155.2Y-86.275
X155.2Y-101.175
X155.35Y-84.275
X155.825Y-111.45
X155.95Y-113.45
X156.2Y-104.0
X156.275Y-75.7
X156.325Y-70.525
X156.325Y-72.225
X156.325Y-73.975
X156.575Y-68.825
X156.575Y-91.075
X156.6Y-92.375
X156.85Y-88.35
X156.875Y-86.25
X157.675Y-68.05
X157.85Y-111.5
X157.9Y-109.4
X158.4Y-64.875
X158.55Y-104.275
X158.55Y-105.725
X159.075Y-70.175
X159.35Y-72.425
X160.0Y-107.2
X160.062Y-105.787
X160.075Y-109.375
X161.025Y-118.875
X161.075Y-112.725
X161.075Y-116.225
X162.375Y-62.575
X162.425Y-107.125
X162.875Y-101.6
X162.975Y-71.0
X163.05Y-84.825
X163.05Y-90.975
X163.075Y-83.3
X163.075Y-86.9
X163.1Y-89.125
X163.7Y-66.825
X163.7Y-68.975
X164.15Y-110.15
X164.15Y-112.725
X164.15Y-118.95
X164.275Y-116.3
X164.75Y-62.575
X164.95Y-73.575
X165.175Y-66.825
X165.575Y-106.125
X166.25Y-94.75
X166.35Y-72.1
X166.575Y-81.4
X166.6Y-79.95
X166.625Y-77.025
X166.625Y-78.5
X166.8Y-84.5
X166.8Y-86.2
X166.8Y-96.8
X167.5Y-110.35
X167.5Y-112.725
X167.65Y-116.275
X167.75Y-119.025
X169.825Y-62.975
X169.825Y-66.1
X169.925Y-79.375
X170.05Y-81.9
X170.125Y-110.325
X170.125Y-112.725
X170.3Y-116.275
X170.5Y-118.95
X171.2Y-95.925
X171.375Y-93.85
X171.525Y-92.325
X171.65Y-71.2
X171.9Y-100.1
X172.45Y-69.6
X172.775Y-67.95
X173.125Y-106.1
X173.2Y-109.225
X173.2Y-116.2
X173.225Y-112.725
X173.325Y-119.0
X174.225Y-83.375
X174.225Y-84.925
X174.275Y-81.95
X174.45Y-67.975
X175.075Y-66.725
X175.475Y-109.225
X175.5Y-112.7
X175.525Y-119.0
X175.575Y-116.25
X175.6Y-102.825
X175.625Y-106.15
X176.375Y-67.65
X177.875Y-66.15
X178.2Y-109.225
X178.225Y-106.125
X178.225Y-112.675
X178.3Y-102.8
X178.775Y-67.85
X179.8Y-78.85
X179.8Y-83.6
X180.4Y-62.075
X180.625Y-64.85
X180.675Y-106.125
X180.7Y-102.8
X180.7Y-109.225
X180.75Y-73.525
X180.75Y-112.675
X180.925Y-68.0
X180.925Y-69.6
X181.15Y-66.275
T3
X166.1Y-61.685
X166.1Y-64.225
X168.64Y-61.685
X168.64Y-64.225
X171.18Y-61.685
X171.18Y-64.225
X173.72Y-61.685
X173.72Y-64.225
T4
X177.05Y-81.925
X179.55Y-81.925
T5
X138.525Y-64.487
X143.525Y-64.487
T6
X152.375Y-70.175
X152.375Y-72.715
X152.375Y-75.255
X160.75Y-66.5
X160.75Y-69.04
X160.75Y-71.58
X160.75Y-74.12
X160.75Y-76.66
X160.75Y-79.2
X160.75Y-81.74
X160.75Y-84.28
X160.75Y-86.82
X160.75Y-89.36
X160.75Y-91.9
X174.0Y-86.825
X174.0Y-89.365
X174.0Y-91.905
X174.0Y-94.445
X174.0Y-96.985
X174.0Y-99.525
X176.825Y-86.845
X176.825Y-89.385
X176.825Y-91.925
X176.825Y-94.465
X176.825Y-97.005
X176.825Y-99.545
X98.975Y-98.325
X101.515Y-98.325
X104.055Y-98.325
X106.595Y-98.325
X109.135Y-98.325
X111.675Y-98.325
X114.215Y-98.325
X116.755Y-98.325
X119.295Y-98.325
X121.835Y-98.325
X117.85Y-62.0
X120.39Y-62.0
X122.93Y-62.0
X147.25Y-62.0
X149.79Y-62.0
X152.33Y-62.0
X154.87Y-62.0
X157.41Y-62.0
X159.95Y-62.0
X168.545Y-81.13
X168.545Y-83.67
X168.545Y-86.21
X168.545Y-88.75
X179.6Y-86.85
X179.6Y-89.39
X179.6Y-91.93
X179.6Y-94.47
X179.6Y-97.01
X179.6Y-99.55
X168.55Y-92.4
X168.55Y-94.94
X168.55Y-97.48
X168.55Y-100.02
X107.075Y-104.15
X109.615Y-104.15
X112.155Y-104.15
X114.695Y-104.15
X117.235Y-104.15
X162.715Y-104.225
X165.255Y-104.225
X167.795Y-104.225
X170.335Y-104.225
X172.875Y-104.225
X168.67Y-70.34
X168.67Y-72.88
X168.67Y-75.42
X168.67Y-77.96
X126.07Y-61.99
X128.61Y-61.99
X131.15Y-61.99
X133.69Y-61.99
X160.035Y-99.855
X162.575Y-99.855
X165.115Y-99.855
X160.05Y-96.975
X162.59Y-96.975
X165.13Y-96.975
T7
X177.725Y-69.7
X177.725Y-74.7
T8
X100.075Y-109.625
X101.875Y-118.3
X122.465Y-118.24
X157.515Y-118.375
X178.105Y-118.315
T2
G00X137.525Y-62.137
M15
G01X137.525Y-61.438
M16
G05
G00X144.525Y-61.438
M15
G01X144.525Y-62.137
M16
G05
T4
G00X99.2Y-71.4
M15
G01X99.2Y-73.6
M16
G05
G00X105.1Y-69.7
M15
G01X102.9Y-69.7
M16
G05
G00X105.3Y-75.5
M15
G01X102.7Y-75.5
M16
G05
T0
M30
