%TF.GenerationSoftware,KiCad,Pcbnew,(5.1.6)-1*%
%TF.CreationDate,2020-09-08T21:04:45+07:00*%
%TF.ProjectId,C21_board,4332315f-626f-4617-9264-2e6b69636164,rev?*%
%TF.SameCoordinates,Original*%
%TF.FileFunction,Soldermask,Top*%
%TF.FilePolarity,Negative*%
%FSLAX46Y46*%
G04 Gerber Fmt 4.6, Leading zero omitted, Abs format (unit mm)*
G04 Created by KiCad (PCBNEW (5.1.6)-1) date 2020-09-08 21:04:45*
%MOMM*%
%LPD*%
G01*
G04 APERTURE LIST*
%ADD10C,1.624000*%
%ADD11R,1.624000X1.624000*%
%ADD12R,1.400000X1.650000*%
%ADD13O,1.800000X1.800000*%
%ADD14R,1.800000X1.800000*%
%ADD15C,3.300000*%
%ADD16C,3.400000*%
%ADD17C,1.700000*%
%ADD18R,1.700000X1.700000*%
%ADD19O,4.060000X2.080000*%
%ADD20R,4.060000X2.080000*%
%ADD21R,1.300000X2.000000*%
%ADD22O,1.300000X2.000000*%
%ADD23C,1.550000*%
%ADD24R,0.500000X1.450000*%
%ADD25R,5.900000X6.500000*%
%ADD26R,1.300000X2.300000*%
%ADD27R,4.500000X1.900000*%
%ADD28O,4.100000X1.900000*%
%ADD29O,1.900000X4.100000*%
%ADD30C,0.100000*%
%ADD31R,1.600000X2.100000*%
%ADD32R,3.900000X2.100000*%
%ADD33R,1.700000X0.800000*%
%ADD34R,1.700000X1.500000*%
%ADD35R,2.300000X1.500000*%
%ADD36R,1.500000X1.900000*%
%ADD37C,1.000000*%
G04 APERTURE END LIST*
D10*
%TO.C,nRF24*%
X173720000Y-61685000D03*
X173720000Y-64225000D03*
X171180000Y-61685000D03*
X171180000Y-64225000D03*
X168640000Y-61685000D03*
X168640000Y-64225000D03*
X166100000Y-61685000D03*
D11*
X166100000Y-64225000D03*
%TD*%
D12*
%TO.C,SW2*%
X148025000Y-107825000D03*
X152525000Y-107825000D03*
X152525000Y-99875000D03*
X148025000Y-99875000D03*
%TD*%
%TO.C,SW5*%
X141450000Y-107825000D03*
X145950000Y-107825000D03*
X145950000Y-99875000D03*
X141450000Y-99875000D03*
%TD*%
%TO.C,SW4*%
X134775000Y-107825000D03*
X139275000Y-107825000D03*
X139275000Y-99875000D03*
X134775000Y-99875000D03*
%TD*%
%TO.C,SW1*%
X128100000Y-107825000D03*
X132600000Y-107825000D03*
X132600000Y-99875000D03*
X128100000Y-99875000D03*
%TD*%
D13*
%TO.C,MPU9250*%
X121835000Y-98325000D03*
X119295000Y-98325000D03*
X116755000Y-98325000D03*
X114215000Y-98325000D03*
X111675000Y-98325000D03*
X109135000Y-98325000D03*
X106595000Y-98325000D03*
X104055000Y-98325000D03*
X101515000Y-98325000D03*
D14*
X98975000Y-98325000D03*
D15*
X100075000Y-109625000D03*
%TD*%
D13*
%TO.C,J7*%
X117235000Y-104150000D03*
X114695000Y-104150000D03*
X112155000Y-104150000D03*
X109615000Y-104150000D03*
D14*
X107075000Y-104150000D03*
D16*
X122465000Y-118240000D03*
X101875000Y-118300000D03*
%TD*%
%TO.C,J4*%
X157515000Y-118375000D03*
X178105000Y-118315000D03*
D14*
X162715000Y-104225000D03*
D13*
X165255000Y-104225000D03*
X167795000Y-104225000D03*
X170335000Y-104225000D03*
X172875000Y-104225000D03*
%TD*%
%TO.C,U3*%
G36*
G01*
X134606839Y-82053769D02*
X133634566Y-81081498D01*
G75*
G02*
X133634566Y-80940076I70711J70711D01*
G01*
X133775988Y-80798654D01*
G75*
G02*
X133917410Y-80798654I70711J-70711D01*
G01*
X134889682Y-81770926D01*
G75*
G02*
X134889682Y-81912348I-70711J-70711D01*
G01*
X134748260Y-82053770D01*
G75*
G02*
X134606838Y-82053770I-70711J70711D01*
G01*
G37*
G36*
G01*
X134960393Y-81700215D02*
X133988120Y-80727944D01*
G75*
G02*
X133988120Y-80586522I70711J70711D01*
G01*
X134129542Y-80445100D01*
G75*
G02*
X134270964Y-80445100I70711J-70711D01*
G01*
X135243236Y-81417372D01*
G75*
G02*
X135243236Y-81558794I-70711J-70711D01*
G01*
X135101814Y-81700216D01*
G75*
G02*
X134960392Y-81700216I-70711J70711D01*
G01*
G37*
G36*
G01*
X135313946Y-81346662D02*
X134341673Y-80374391D01*
G75*
G02*
X134341673Y-80232969I70711J70711D01*
G01*
X134483095Y-80091547D01*
G75*
G02*
X134624517Y-80091547I70711J-70711D01*
G01*
X135596789Y-81063819D01*
G75*
G02*
X135596789Y-81205241I-70711J-70711D01*
G01*
X135455367Y-81346663D01*
G75*
G02*
X135313945Y-81346663I-70711J70711D01*
G01*
G37*
G36*
G01*
X135667500Y-80993108D02*
X134695227Y-80020837D01*
G75*
G02*
X134695227Y-79879415I70711J70711D01*
G01*
X134836649Y-79737993D01*
G75*
G02*
X134978071Y-79737993I70711J-70711D01*
G01*
X135950343Y-80710265D01*
G75*
G02*
X135950343Y-80851687I-70711J-70711D01*
G01*
X135808921Y-80993109D01*
G75*
G02*
X135667499Y-80993109I-70711J70711D01*
G01*
G37*
G36*
G01*
X136021053Y-80639555D02*
X135048780Y-79667284D01*
G75*
G02*
X135048780Y-79525862I70711J70711D01*
G01*
X135190202Y-79384440D01*
G75*
G02*
X135331624Y-79384440I70711J-70711D01*
G01*
X136303896Y-80356712D01*
G75*
G02*
X136303896Y-80498134I-70711J-70711D01*
G01*
X136162474Y-80639556D01*
G75*
G02*
X136021052Y-80639556I-70711J70711D01*
G01*
G37*
G36*
G01*
X136374606Y-80286002D02*
X135402333Y-79313731D01*
G75*
G02*
X135402333Y-79172309I70711J70711D01*
G01*
X135543755Y-79030887D01*
G75*
G02*
X135685177Y-79030887I70711J-70711D01*
G01*
X136657449Y-80003159D01*
G75*
G02*
X136657449Y-80144581I-70711J-70711D01*
G01*
X136516027Y-80286003D01*
G75*
G02*
X136374605Y-80286003I-70711J70711D01*
G01*
G37*
G36*
G01*
X136728160Y-79932448D02*
X135755887Y-78960177D01*
G75*
G02*
X135755887Y-78818755I70711J70711D01*
G01*
X135897309Y-78677333D01*
G75*
G02*
X136038731Y-78677333I70711J-70711D01*
G01*
X137011003Y-79649605D01*
G75*
G02*
X137011003Y-79791027I-70711J-70711D01*
G01*
X136869581Y-79932449D01*
G75*
G02*
X136728159Y-79932449I-70711J70711D01*
G01*
G37*
G36*
G01*
X137081713Y-79578895D02*
X136109440Y-78606624D01*
G75*
G02*
X136109440Y-78465202I70711J70711D01*
G01*
X136250862Y-78323780D01*
G75*
G02*
X136392284Y-78323780I70711J-70711D01*
G01*
X137364556Y-79296052D01*
G75*
G02*
X137364556Y-79437474I-70711J-70711D01*
G01*
X137223134Y-79578896D01*
G75*
G02*
X137081712Y-79578896I-70711J70711D01*
G01*
G37*
G36*
G01*
X137435266Y-79225342D02*
X136462993Y-78253071D01*
G75*
G02*
X136462993Y-78111649I70711J70711D01*
G01*
X136604415Y-77970227D01*
G75*
G02*
X136745837Y-77970227I70711J-70711D01*
G01*
X137718109Y-78942499D01*
G75*
G02*
X137718109Y-79083921I-70711J-70711D01*
G01*
X137576687Y-79225343D01*
G75*
G02*
X137435265Y-79225343I-70711J70711D01*
G01*
G37*
G36*
G01*
X137788820Y-78871788D02*
X136816547Y-77899517D01*
G75*
G02*
X136816547Y-77758095I70711J70711D01*
G01*
X136957969Y-77616673D01*
G75*
G02*
X137099391Y-77616673I70711J-70711D01*
G01*
X138071663Y-78588945D01*
G75*
G02*
X138071663Y-78730367I-70711J-70711D01*
G01*
X137930241Y-78871789D01*
G75*
G02*
X137788819Y-78871789I-70711J70711D01*
G01*
G37*
G36*
G01*
X138142373Y-78518235D02*
X137170100Y-77545964D01*
G75*
G02*
X137170100Y-77404542I70711J70711D01*
G01*
X137311522Y-77263120D01*
G75*
G02*
X137452944Y-77263120I70711J-70711D01*
G01*
X138425216Y-78235392D01*
G75*
G02*
X138425216Y-78376814I-70711J-70711D01*
G01*
X138283794Y-78518236D01*
G75*
G02*
X138142372Y-78518236I-70711J70711D01*
G01*
G37*
G36*
G01*
X138495927Y-78164681D02*
X137523654Y-77192410D01*
G75*
G02*
X137523654Y-77050988I70711J70711D01*
G01*
X137665076Y-76909566D01*
G75*
G02*
X137806498Y-76909566I70711J-70711D01*
G01*
X138778770Y-77881838D01*
G75*
G02*
X138778770Y-78023260I-70711J-70711D01*
G01*
X138637348Y-78164682D01*
G75*
G02*
X138495926Y-78164682I-70711J70711D01*
G01*
G37*
G36*
G01*
X139662652Y-78164681D02*
X139521230Y-78023260D01*
G75*
G02*
X139521230Y-77881838I70711J70711D01*
G01*
X140493502Y-76909566D01*
G75*
G02*
X140634924Y-76909566I70711J-70711D01*
G01*
X140776346Y-77050988D01*
G75*
G02*
X140776346Y-77192410I-70711J-70711D01*
G01*
X139804074Y-78164682D01*
G75*
G02*
X139662652Y-78164682I-70711J70711D01*
G01*
G37*
G36*
G01*
X140016206Y-78518235D02*
X139874784Y-78376814D01*
G75*
G02*
X139874784Y-78235392I70711J70711D01*
G01*
X140847056Y-77263120D01*
G75*
G02*
X140988478Y-77263120I70711J-70711D01*
G01*
X141129900Y-77404542D01*
G75*
G02*
X141129900Y-77545964I-70711J-70711D01*
G01*
X140157628Y-78518236D01*
G75*
G02*
X140016206Y-78518236I-70711J70711D01*
G01*
G37*
G36*
G01*
X140369759Y-78871788D02*
X140228337Y-78730367D01*
G75*
G02*
X140228337Y-78588945I70711J70711D01*
G01*
X141200609Y-77616673D01*
G75*
G02*
X141342031Y-77616673I70711J-70711D01*
G01*
X141483453Y-77758095D01*
G75*
G02*
X141483453Y-77899517I-70711J-70711D01*
G01*
X140511181Y-78871789D01*
G75*
G02*
X140369759Y-78871789I-70711J70711D01*
G01*
G37*
G36*
G01*
X140723313Y-79225342D02*
X140581891Y-79083921D01*
G75*
G02*
X140581891Y-78942499I70711J70711D01*
G01*
X141554163Y-77970227D01*
G75*
G02*
X141695585Y-77970227I70711J-70711D01*
G01*
X141837007Y-78111649D01*
G75*
G02*
X141837007Y-78253071I-70711J-70711D01*
G01*
X140864735Y-79225343D01*
G75*
G02*
X140723313Y-79225343I-70711J70711D01*
G01*
G37*
G36*
G01*
X141076866Y-79578895D02*
X140935444Y-79437474D01*
G75*
G02*
X140935444Y-79296052I70711J70711D01*
G01*
X141907716Y-78323780D01*
G75*
G02*
X142049138Y-78323780I70711J-70711D01*
G01*
X142190560Y-78465202D01*
G75*
G02*
X142190560Y-78606624I-70711J-70711D01*
G01*
X141218288Y-79578896D01*
G75*
G02*
X141076866Y-79578896I-70711J70711D01*
G01*
G37*
G36*
G01*
X141430419Y-79932448D02*
X141288997Y-79791027D01*
G75*
G02*
X141288997Y-79649605I70711J70711D01*
G01*
X142261269Y-78677333D01*
G75*
G02*
X142402691Y-78677333I70711J-70711D01*
G01*
X142544113Y-78818755D01*
G75*
G02*
X142544113Y-78960177I-70711J-70711D01*
G01*
X141571841Y-79932449D01*
G75*
G02*
X141430419Y-79932449I-70711J70711D01*
G01*
G37*
G36*
G01*
X141783973Y-80286002D02*
X141642551Y-80144581D01*
G75*
G02*
X141642551Y-80003159I70711J70711D01*
G01*
X142614823Y-79030887D01*
G75*
G02*
X142756245Y-79030887I70711J-70711D01*
G01*
X142897667Y-79172309D01*
G75*
G02*
X142897667Y-79313731I-70711J-70711D01*
G01*
X141925395Y-80286003D01*
G75*
G02*
X141783973Y-80286003I-70711J70711D01*
G01*
G37*
G36*
G01*
X142137526Y-80639555D02*
X141996104Y-80498134D01*
G75*
G02*
X141996104Y-80356712I70711J70711D01*
G01*
X142968376Y-79384440D01*
G75*
G02*
X143109798Y-79384440I70711J-70711D01*
G01*
X143251220Y-79525862D01*
G75*
G02*
X143251220Y-79667284I-70711J-70711D01*
G01*
X142278948Y-80639556D01*
G75*
G02*
X142137526Y-80639556I-70711J70711D01*
G01*
G37*
G36*
G01*
X142491079Y-80993108D02*
X142349657Y-80851687D01*
G75*
G02*
X142349657Y-80710265I70711J70711D01*
G01*
X143321929Y-79737993D01*
G75*
G02*
X143463351Y-79737993I70711J-70711D01*
G01*
X143604773Y-79879415D01*
G75*
G02*
X143604773Y-80020837I-70711J-70711D01*
G01*
X142632501Y-80993109D01*
G75*
G02*
X142491079Y-80993109I-70711J70711D01*
G01*
G37*
G36*
G01*
X142844633Y-81346662D02*
X142703211Y-81205241D01*
G75*
G02*
X142703211Y-81063819I70711J70711D01*
G01*
X143675483Y-80091547D01*
G75*
G02*
X143816905Y-80091547I70711J-70711D01*
G01*
X143958327Y-80232969D01*
G75*
G02*
X143958327Y-80374391I-70711J-70711D01*
G01*
X142986055Y-81346663D01*
G75*
G02*
X142844633Y-81346663I-70711J70711D01*
G01*
G37*
G36*
G01*
X143198186Y-81700215D02*
X143056764Y-81558794D01*
G75*
G02*
X143056764Y-81417372I70711J70711D01*
G01*
X144029036Y-80445100D01*
G75*
G02*
X144170458Y-80445100I70711J-70711D01*
G01*
X144311880Y-80586522D01*
G75*
G02*
X144311880Y-80727944I-70711J-70711D01*
G01*
X143339608Y-81700216D01*
G75*
G02*
X143198186Y-81700216I-70711J70711D01*
G01*
G37*
G36*
G01*
X143551740Y-82053769D02*
X143410318Y-81912348D01*
G75*
G02*
X143410318Y-81770926I70711J70711D01*
G01*
X144382590Y-80798654D01*
G75*
G02*
X144524012Y-80798654I70711J-70711D01*
G01*
X144665434Y-80940076D01*
G75*
G02*
X144665434Y-81081498I-70711J-70711D01*
G01*
X143693162Y-82053770D01*
G75*
G02*
X143551740Y-82053770I-70711J70711D01*
G01*
G37*
G36*
G01*
X144382591Y-84051345D02*
X143410318Y-83079074D01*
G75*
G02*
X143410318Y-82937652I70711J70711D01*
G01*
X143551740Y-82796230D01*
G75*
G02*
X143693162Y-82796230I70711J-70711D01*
G01*
X144665434Y-83768502D01*
G75*
G02*
X144665434Y-83909924I-70711J-70711D01*
G01*
X144524012Y-84051346D01*
G75*
G02*
X144382590Y-84051346I-70711J70711D01*
G01*
G37*
G36*
G01*
X144029037Y-84404899D02*
X143056764Y-83432628D01*
G75*
G02*
X143056764Y-83291206I70711J70711D01*
G01*
X143198186Y-83149784D01*
G75*
G02*
X143339608Y-83149784I70711J-70711D01*
G01*
X144311880Y-84122056D01*
G75*
G02*
X144311880Y-84263478I-70711J-70711D01*
G01*
X144170458Y-84404900D01*
G75*
G02*
X144029036Y-84404900I-70711J70711D01*
G01*
G37*
G36*
G01*
X143675484Y-84758452D02*
X142703211Y-83786181D01*
G75*
G02*
X142703211Y-83644759I70711J70711D01*
G01*
X142844633Y-83503337D01*
G75*
G02*
X142986055Y-83503337I70711J-70711D01*
G01*
X143958327Y-84475609D01*
G75*
G02*
X143958327Y-84617031I-70711J-70711D01*
G01*
X143816905Y-84758453D01*
G75*
G02*
X143675483Y-84758453I-70711J70711D01*
G01*
G37*
G36*
G01*
X143321930Y-85112006D02*
X142349657Y-84139735D01*
G75*
G02*
X142349657Y-83998313I70711J70711D01*
G01*
X142491079Y-83856891D01*
G75*
G02*
X142632501Y-83856891I70711J-70711D01*
G01*
X143604773Y-84829163D01*
G75*
G02*
X143604773Y-84970585I-70711J-70711D01*
G01*
X143463351Y-85112007D01*
G75*
G02*
X143321929Y-85112007I-70711J70711D01*
G01*
G37*
G36*
G01*
X142968377Y-85465559D02*
X141996104Y-84493288D01*
G75*
G02*
X141996104Y-84351866I70711J70711D01*
G01*
X142137526Y-84210444D01*
G75*
G02*
X142278948Y-84210444I70711J-70711D01*
G01*
X143251220Y-85182716D01*
G75*
G02*
X143251220Y-85324138I-70711J-70711D01*
G01*
X143109798Y-85465560D01*
G75*
G02*
X142968376Y-85465560I-70711J70711D01*
G01*
G37*
G36*
G01*
X142614824Y-85819112D02*
X141642551Y-84846841D01*
G75*
G02*
X141642551Y-84705419I70711J70711D01*
G01*
X141783973Y-84563997D01*
G75*
G02*
X141925395Y-84563997I70711J-70711D01*
G01*
X142897667Y-85536269D01*
G75*
G02*
X142897667Y-85677691I-70711J-70711D01*
G01*
X142756245Y-85819113D01*
G75*
G02*
X142614823Y-85819113I-70711J70711D01*
G01*
G37*
G36*
G01*
X142261270Y-86172666D02*
X141288997Y-85200395D01*
G75*
G02*
X141288997Y-85058973I70711J70711D01*
G01*
X141430419Y-84917551D01*
G75*
G02*
X141571841Y-84917551I70711J-70711D01*
G01*
X142544113Y-85889823D01*
G75*
G02*
X142544113Y-86031245I-70711J-70711D01*
G01*
X142402691Y-86172667D01*
G75*
G02*
X142261269Y-86172667I-70711J70711D01*
G01*
G37*
G36*
G01*
X141907717Y-86526219D02*
X140935444Y-85553948D01*
G75*
G02*
X140935444Y-85412526I70711J70711D01*
G01*
X141076866Y-85271104D01*
G75*
G02*
X141218288Y-85271104I70711J-70711D01*
G01*
X142190560Y-86243376D01*
G75*
G02*
X142190560Y-86384798I-70711J-70711D01*
G01*
X142049138Y-86526220D01*
G75*
G02*
X141907716Y-86526220I-70711J70711D01*
G01*
G37*
G36*
G01*
X141554164Y-86879772D02*
X140581891Y-85907501D01*
G75*
G02*
X140581891Y-85766079I70711J70711D01*
G01*
X140723313Y-85624657D01*
G75*
G02*
X140864735Y-85624657I70711J-70711D01*
G01*
X141837007Y-86596929D01*
G75*
G02*
X141837007Y-86738351I-70711J-70711D01*
G01*
X141695585Y-86879773D01*
G75*
G02*
X141554163Y-86879773I-70711J70711D01*
G01*
G37*
G36*
G01*
X141200610Y-87233326D02*
X140228337Y-86261055D01*
G75*
G02*
X140228337Y-86119633I70711J70711D01*
G01*
X140369759Y-85978211D01*
G75*
G02*
X140511181Y-85978211I70711J-70711D01*
G01*
X141483453Y-86950483D01*
G75*
G02*
X141483453Y-87091905I-70711J-70711D01*
G01*
X141342031Y-87233327D01*
G75*
G02*
X141200609Y-87233327I-70711J70711D01*
G01*
G37*
G36*
G01*
X140847057Y-87586879D02*
X139874784Y-86614608D01*
G75*
G02*
X139874784Y-86473186I70711J70711D01*
G01*
X140016206Y-86331764D01*
G75*
G02*
X140157628Y-86331764I70711J-70711D01*
G01*
X141129900Y-87304036D01*
G75*
G02*
X141129900Y-87445458I-70711J-70711D01*
G01*
X140988478Y-87586880D01*
G75*
G02*
X140847056Y-87586880I-70711J70711D01*
G01*
G37*
G36*
G01*
X140493503Y-87940433D02*
X139521230Y-86968162D01*
G75*
G02*
X139521230Y-86826740I70711J70711D01*
G01*
X139662652Y-86685318D01*
G75*
G02*
X139804074Y-86685318I70711J-70711D01*
G01*
X140776346Y-87657590D01*
G75*
G02*
X140776346Y-87799012I-70711J-70711D01*
G01*
X140634924Y-87940434D01*
G75*
G02*
X140493502Y-87940434I-70711J70711D01*
G01*
G37*
G36*
G01*
X137665076Y-87940433D02*
X137523654Y-87799012D01*
G75*
G02*
X137523654Y-87657590I70711J70711D01*
G01*
X138495926Y-86685318D01*
G75*
G02*
X138637348Y-86685318I70711J-70711D01*
G01*
X138778770Y-86826740D01*
G75*
G02*
X138778770Y-86968162I-70711J-70711D01*
G01*
X137806498Y-87940434D01*
G75*
G02*
X137665076Y-87940434I-70711J70711D01*
G01*
G37*
G36*
G01*
X137311522Y-87586879D02*
X137170100Y-87445458D01*
G75*
G02*
X137170100Y-87304036I70711J70711D01*
G01*
X138142372Y-86331764D01*
G75*
G02*
X138283794Y-86331764I70711J-70711D01*
G01*
X138425216Y-86473186D01*
G75*
G02*
X138425216Y-86614608I-70711J-70711D01*
G01*
X137452944Y-87586880D01*
G75*
G02*
X137311522Y-87586880I-70711J70711D01*
G01*
G37*
G36*
G01*
X136957969Y-87233326D02*
X136816547Y-87091905D01*
G75*
G02*
X136816547Y-86950483I70711J70711D01*
G01*
X137788819Y-85978211D01*
G75*
G02*
X137930241Y-85978211I70711J-70711D01*
G01*
X138071663Y-86119633D01*
G75*
G02*
X138071663Y-86261055I-70711J-70711D01*
G01*
X137099391Y-87233327D01*
G75*
G02*
X136957969Y-87233327I-70711J70711D01*
G01*
G37*
G36*
G01*
X136604415Y-86879772D02*
X136462993Y-86738351D01*
G75*
G02*
X136462993Y-86596929I70711J70711D01*
G01*
X137435265Y-85624657D01*
G75*
G02*
X137576687Y-85624657I70711J-70711D01*
G01*
X137718109Y-85766079D01*
G75*
G02*
X137718109Y-85907501I-70711J-70711D01*
G01*
X136745837Y-86879773D01*
G75*
G02*
X136604415Y-86879773I-70711J70711D01*
G01*
G37*
G36*
G01*
X136250862Y-86526219D02*
X136109440Y-86384798D01*
G75*
G02*
X136109440Y-86243376I70711J70711D01*
G01*
X137081712Y-85271104D01*
G75*
G02*
X137223134Y-85271104I70711J-70711D01*
G01*
X137364556Y-85412526D01*
G75*
G02*
X137364556Y-85553948I-70711J-70711D01*
G01*
X136392284Y-86526220D01*
G75*
G02*
X136250862Y-86526220I-70711J70711D01*
G01*
G37*
G36*
G01*
X135897309Y-86172666D02*
X135755887Y-86031245D01*
G75*
G02*
X135755887Y-85889823I70711J70711D01*
G01*
X136728159Y-84917551D01*
G75*
G02*
X136869581Y-84917551I70711J-70711D01*
G01*
X137011003Y-85058973D01*
G75*
G02*
X137011003Y-85200395I-70711J-70711D01*
G01*
X136038731Y-86172667D01*
G75*
G02*
X135897309Y-86172667I-70711J70711D01*
G01*
G37*
G36*
G01*
X135543755Y-85819112D02*
X135402333Y-85677691D01*
G75*
G02*
X135402333Y-85536269I70711J70711D01*
G01*
X136374605Y-84563997D01*
G75*
G02*
X136516027Y-84563997I70711J-70711D01*
G01*
X136657449Y-84705419D01*
G75*
G02*
X136657449Y-84846841I-70711J-70711D01*
G01*
X135685177Y-85819113D01*
G75*
G02*
X135543755Y-85819113I-70711J70711D01*
G01*
G37*
G36*
G01*
X135190202Y-85465559D02*
X135048780Y-85324138D01*
G75*
G02*
X135048780Y-85182716I70711J70711D01*
G01*
X136021052Y-84210444D01*
G75*
G02*
X136162474Y-84210444I70711J-70711D01*
G01*
X136303896Y-84351866D01*
G75*
G02*
X136303896Y-84493288I-70711J-70711D01*
G01*
X135331624Y-85465560D01*
G75*
G02*
X135190202Y-85465560I-70711J70711D01*
G01*
G37*
G36*
G01*
X134836649Y-85112006D02*
X134695227Y-84970585D01*
G75*
G02*
X134695227Y-84829163I70711J70711D01*
G01*
X135667499Y-83856891D01*
G75*
G02*
X135808921Y-83856891I70711J-70711D01*
G01*
X135950343Y-83998313D01*
G75*
G02*
X135950343Y-84139735I-70711J-70711D01*
G01*
X134978071Y-85112007D01*
G75*
G02*
X134836649Y-85112007I-70711J70711D01*
G01*
G37*
G36*
G01*
X134483095Y-84758452D02*
X134341673Y-84617031D01*
G75*
G02*
X134341673Y-84475609I70711J70711D01*
G01*
X135313945Y-83503337D01*
G75*
G02*
X135455367Y-83503337I70711J-70711D01*
G01*
X135596789Y-83644759D01*
G75*
G02*
X135596789Y-83786181I-70711J-70711D01*
G01*
X134624517Y-84758453D01*
G75*
G02*
X134483095Y-84758453I-70711J70711D01*
G01*
G37*
G36*
G01*
X134129542Y-84404899D02*
X133988120Y-84263478D01*
G75*
G02*
X133988120Y-84122056I70711J70711D01*
G01*
X134960392Y-83149784D01*
G75*
G02*
X135101814Y-83149784I70711J-70711D01*
G01*
X135243236Y-83291206D01*
G75*
G02*
X135243236Y-83432628I-70711J-70711D01*
G01*
X134270964Y-84404900D01*
G75*
G02*
X134129542Y-84404900I-70711J70711D01*
G01*
G37*
G36*
G01*
X133775988Y-84051345D02*
X133634566Y-83909924D01*
G75*
G02*
X133634566Y-83768502I70711J70711D01*
G01*
X134606838Y-82796230D01*
G75*
G02*
X134748260Y-82796230I70711J-70711D01*
G01*
X134889682Y-82937652D01*
G75*
G02*
X134889682Y-83079074I-70711J-70711D01*
G01*
X133917410Y-84051346D01*
G75*
G02*
X133775988Y-84051346I-70711J70711D01*
G01*
G37*
%TD*%
%TO.C,C2*%
G36*
G01*
X131242853Y-87929894D02*
X130845106Y-87532146D01*
G75*
G02*
X130845106Y-87187432I172357J172357D01*
G01*
X131189820Y-86842718D01*
G75*
G02*
X131534534Y-86842718I172357J-172357D01*
G01*
X131932282Y-87240466D01*
G75*
G02*
X131932282Y-87585180I-172357J-172357D01*
G01*
X131587568Y-87929894D01*
G75*
G02*
X131242854Y-87929894I-172357J172357D01*
G01*
G37*
G36*
G01*
X130129159Y-89043588D02*
X129731412Y-88645840D01*
G75*
G02*
X129731412Y-88301126I172357J172357D01*
G01*
X130076126Y-87956412D01*
G75*
G02*
X130420840Y-87956412I172357J-172357D01*
G01*
X130818588Y-88354160D01*
G75*
G02*
X130818588Y-88698874I-172357J-172357D01*
G01*
X130473874Y-89043588D01*
G75*
G02*
X130129160Y-89043588I-172357J172357D01*
G01*
G37*
%TD*%
%TO.C,C1*%
G36*
G01*
X127161006Y-83936741D02*
X126763259Y-83538993D01*
G75*
G02*
X126763259Y-83194279I172357J172357D01*
G01*
X127107973Y-82849565D01*
G75*
G02*
X127452687Y-82849565I172357J-172357D01*
G01*
X127850435Y-83247313D01*
G75*
G02*
X127850435Y-83592027I-172357J-172357D01*
G01*
X127505721Y-83936741D01*
G75*
G02*
X127161007Y-83936741I-172357J172357D01*
G01*
G37*
G36*
G01*
X126047312Y-85050435D02*
X125649565Y-84652687D01*
G75*
G02*
X125649565Y-84307973I172357J172357D01*
G01*
X125994279Y-83963259D01*
G75*
G02*
X126338993Y-83963259I172357J-172357D01*
G01*
X126736741Y-84361007D01*
G75*
G02*
X126736741Y-84705721I-172357J-172357D01*
G01*
X126392027Y-85050435D01*
G75*
G02*
X126047313Y-85050435I-172357J172357D01*
G01*
G37*
%TD*%
%TO.C,C21*%
G36*
G01*
X113200000Y-65412500D02*
X113200000Y-64887500D01*
G75*
G02*
X113462500Y-64625000I262500J0D01*
G01*
X114087500Y-64625000D01*
G75*
G02*
X114350000Y-64887500I0J-262500D01*
G01*
X114350000Y-65412500D01*
G75*
G02*
X114087500Y-65675000I-262500J0D01*
G01*
X113462500Y-65675000D01*
G75*
G02*
X113200000Y-65412500I0J262500D01*
G01*
G37*
G36*
G01*
X111450000Y-65412500D02*
X111450000Y-64887500D01*
G75*
G02*
X111712500Y-64625000I262500J0D01*
G01*
X112337500Y-64625000D01*
G75*
G02*
X112600000Y-64887500I0J-262500D01*
G01*
X112600000Y-65412500D01*
G75*
G02*
X112337500Y-65675000I-262500J0D01*
G01*
X111712500Y-65675000D01*
G75*
G02*
X111450000Y-65412500I0J262500D01*
G01*
G37*
%TD*%
%TO.C,Buzzer*%
X152375000Y-70175000D03*
X152375000Y-72715000D03*
D14*
X152375000Y-75255000D03*
%TD*%
D15*
%TO.C,REF\u002A\u002A*%
X177500000Y-63475000D03*
%TD*%
%TO.C,C4*%
G36*
G01*
X118245000Y-66650000D02*
X119555000Y-66650000D01*
G75*
G02*
X119825000Y-66920000I0J-270000D01*
G01*
X119825000Y-67730000D01*
G75*
G02*
X119555000Y-68000000I-270000J0D01*
G01*
X118245000Y-68000000D01*
G75*
G02*
X117975000Y-67730000I0J270000D01*
G01*
X117975000Y-66920000D01*
G75*
G02*
X118245000Y-66650000I270000J0D01*
G01*
G37*
G36*
G01*
X118245000Y-63850000D02*
X119555000Y-63850000D01*
G75*
G02*
X119825000Y-64120000I0J-270000D01*
G01*
X119825000Y-64930000D01*
G75*
G02*
X119555000Y-65200000I-270000J0D01*
G01*
X118245000Y-65200000D01*
G75*
G02*
X117975000Y-64930000I0J270000D01*
G01*
X117975000Y-64120000D01*
G75*
G02*
X118245000Y-63850000I270000J0D01*
G01*
G37*
%TD*%
D17*
%TO.C,C26*%
X179550000Y-81925000D03*
D18*
X177050000Y-81925000D03*
%TD*%
%TO.C,C25*%
G36*
G01*
X131055000Y-70725000D02*
X129745000Y-70725000D01*
G75*
G02*
X129475000Y-70455000I0J270000D01*
G01*
X129475000Y-69645000D01*
G75*
G02*
X129745000Y-69375000I270000J0D01*
G01*
X131055000Y-69375000D01*
G75*
G02*
X131325000Y-69645000I0J-270000D01*
G01*
X131325000Y-70455000D01*
G75*
G02*
X131055000Y-70725000I-270000J0D01*
G01*
G37*
G36*
G01*
X131055000Y-73525000D02*
X129745000Y-73525000D01*
G75*
G02*
X129475000Y-73255000I0J270000D01*
G01*
X129475000Y-72445000D01*
G75*
G02*
X129745000Y-72175000I270000J0D01*
G01*
X131055000Y-72175000D01*
G75*
G02*
X131325000Y-72445000I0J-270000D01*
G01*
X131325000Y-73255000D01*
G75*
G02*
X131055000Y-73525000I-270000J0D01*
G01*
G37*
%TD*%
%TO.C,C24*%
G36*
G01*
X132612500Y-71775000D02*
X132087500Y-71775000D01*
G75*
G02*
X131825000Y-71512500I0J262500D01*
G01*
X131825000Y-70887500D01*
G75*
G02*
X132087500Y-70625000I262500J0D01*
G01*
X132612500Y-70625000D01*
G75*
G02*
X132875000Y-70887500I0J-262500D01*
G01*
X132875000Y-71512500D01*
G75*
G02*
X132612500Y-71775000I-262500J0D01*
G01*
G37*
G36*
G01*
X132612500Y-73525000D02*
X132087500Y-73525000D01*
G75*
G02*
X131825000Y-73262500I0J262500D01*
G01*
X131825000Y-72637500D01*
G75*
G02*
X132087500Y-72375000I262500J0D01*
G01*
X132612500Y-72375000D01*
G75*
G02*
X132875000Y-72637500I0J-262500D01*
G01*
X132875000Y-73262500D01*
G75*
G02*
X132612500Y-73525000I-262500J0D01*
G01*
G37*
%TD*%
D19*
%TO.C,SERVO *%
X177725000Y-74700000D03*
D20*
X177725000Y-69700000D03*
%TD*%
D21*
%TO.C,USB*%
X143925000Y-61787500D03*
X138125000Y-61787500D03*
D22*
X137525000Y-61787500D03*
X144525000Y-61787500D03*
D23*
X138525000Y-64487500D03*
D24*
X141025000Y-64487500D03*
X140375000Y-64487500D03*
X139725000Y-64487500D03*
X142325000Y-64487500D03*
X141675000Y-64487500D03*
D23*
X143525000Y-64487500D03*
%TD*%
%TO.C,C20*%
G36*
G01*
X113475000Y-63655000D02*
X113475000Y-62345000D01*
G75*
G02*
X113745000Y-62075000I270000J0D01*
G01*
X114555000Y-62075000D01*
G75*
G02*
X114825000Y-62345000I0J-270000D01*
G01*
X114825000Y-63655000D01*
G75*
G02*
X114555000Y-63925000I-270000J0D01*
G01*
X113745000Y-63925000D01*
G75*
G02*
X113475000Y-63655000I0J270000D01*
G01*
G37*
G36*
G01*
X110675000Y-63655000D02*
X110675000Y-62345000D01*
G75*
G02*
X110945000Y-62075000I270000J0D01*
G01*
X111755000Y-62075000D01*
G75*
G02*
X112025000Y-62345000I0J-270000D01*
G01*
X112025000Y-63655000D01*
G75*
G02*
X111755000Y-63925000I-270000J0D01*
G01*
X110945000Y-63925000D01*
G75*
G02*
X110675000Y-63655000I0J270000D01*
G01*
G37*
%TD*%
D25*
%TO.C,U4*%
X113000000Y-74100000D03*
D26*
X110720000Y-67800000D03*
X115280000Y-67800000D03*
%TD*%
D27*
%TO.C,SD card*%
X104000000Y-75500000D03*
D28*
X104000000Y-69700000D03*
D29*
X99200000Y-72500000D03*
%TD*%
%TO.C,D4*%
G36*
G01*
X135653750Y-111285000D02*
X136216250Y-111285000D01*
G75*
G02*
X136460000Y-111528750I0J-243750D01*
G01*
X136460000Y-112016250D01*
G75*
G02*
X136216250Y-112260000I-243750J0D01*
G01*
X135653750Y-112260000D01*
G75*
G02*
X135410000Y-112016250I0J243750D01*
G01*
X135410000Y-111528750D01*
G75*
G02*
X135653750Y-111285000I243750J0D01*
G01*
G37*
G36*
G01*
X135653750Y-109710000D02*
X136216250Y-109710000D01*
G75*
G02*
X136460000Y-109953750I0J-243750D01*
G01*
X136460000Y-110441250D01*
G75*
G02*
X136216250Y-110685000I-243750J0D01*
G01*
X135653750Y-110685000D01*
G75*
G02*
X135410000Y-110441250I0J243750D01*
G01*
X135410000Y-109953750D01*
G75*
G02*
X135653750Y-109710000I243750J0D01*
G01*
G37*
%TD*%
%TO.C,D3*%
G36*
G01*
X140728750Y-111185000D02*
X141291250Y-111185000D01*
G75*
G02*
X141535000Y-111428750I0J-243750D01*
G01*
X141535000Y-111916250D01*
G75*
G02*
X141291250Y-112160000I-243750J0D01*
G01*
X140728750Y-112160000D01*
G75*
G02*
X140485000Y-111916250I0J243750D01*
G01*
X140485000Y-111428750D01*
G75*
G02*
X140728750Y-111185000I243750J0D01*
G01*
G37*
G36*
G01*
X140728750Y-109610000D02*
X141291250Y-109610000D01*
G75*
G02*
X141535000Y-109853750I0J-243750D01*
G01*
X141535000Y-110341250D01*
G75*
G02*
X141291250Y-110585000I-243750J0D01*
G01*
X140728750Y-110585000D01*
G75*
G02*
X140485000Y-110341250I0J243750D01*
G01*
X140485000Y-109853750D01*
G75*
G02*
X140728750Y-109610000I243750J0D01*
G01*
G37*
%TD*%
%TO.C,R17*%
G36*
G01*
X135637500Y-114535000D02*
X136162500Y-114535000D01*
G75*
G02*
X136425000Y-114797500I0J-262500D01*
G01*
X136425000Y-115422500D01*
G75*
G02*
X136162500Y-115685000I-262500J0D01*
G01*
X135637500Y-115685000D01*
G75*
G02*
X135375000Y-115422500I0J262500D01*
G01*
X135375000Y-114797500D01*
G75*
G02*
X135637500Y-114535000I262500J0D01*
G01*
G37*
G36*
G01*
X135637500Y-112785000D02*
X136162500Y-112785000D01*
G75*
G02*
X136425000Y-113047500I0J-262500D01*
G01*
X136425000Y-113672500D01*
G75*
G02*
X136162500Y-113935000I-262500J0D01*
G01*
X135637500Y-113935000D01*
G75*
G02*
X135375000Y-113672500I0J262500D01*
G01*
X135375000Y-113047500D01*
G75*
G02*
X135637500Y-112785000I262500J0D01*
G01*
G37*
%TD*%
%TO.C,R16*%
G36*
G01*
X140787500Y-114435000D02*
X141312500Y-114435000D01*
G75*
G02*
X141575000Y-114697500I0J-262500D01*
G01*
X141575000Y-115322500D01*
G75*
G02*
X141312500Y-115585000I-262500J0D01*
G01*
X140787500Y-115585000D01*
G75*
G02*
X140525000Y-115322500I0J262500D01*
G01*
X140525000Y-114697500D01*
G75*
G02*
X140787500Y-114435000I262500J0D01*
G01*
G37*
G36*
G01*
X140787500Y-112685000D02*
X141312500Y-112685000D01*
G75*
G02*
X141575000Y-112947500I0J-262500D01*
G01*
X141575000Y-113572500D01*
G75*
G02*
X141312500Y-113835000I-262500J0D01*
G01*
X140787500Y-113835000D01*
G75*
G02*
X140525000Y-113572500I0J262500D01*
G01*
X140525000Y-112947500D01*
G75*
G02*
X140787500Y-112685000I262500J0D01*
G01*
G37*
%TD*%
%TO.C,R15*%
G36*
G01*
X146722500Y-114265000D02*
X147247500Y-114265000D01*
G75*
G02*
X147510000Y-114527500I0J-262500D01*
G01*
X147510000Y-115152500D01*
G75*
G02*
X147247500Y-115415000I-262500J0D01*
G01*
X146722500Y-115415000D01*
G75*
G02*
X146460000Y-115152500I0J262500D01*
G01*
X146460000Y-114527500D01*
G75*
G02*
X146722500Y-114265000I262500J0D01*
G01*
G37*
G36*
G01*
X146722500Y-112515000D02*
X147247500Y-112515000D01*
G75*
G02*
X147510000Y-112777500I0J-262500D01*
G01*
X147510000Y-113402500D01*
G75*
G02*
X147247500Y-113665000I-262500J0D01*
G01*
X146722500Y-113665000D01*
G75*
G02*
X146460000Y-113402500I0J262500D01*
G01*
X146460000Y-112777500D01*
G75*
G02*
X146722500Y-112515000I262500J0D01*
G01*
G37*
%TD*%
D13*
%TO.C,J10*%
X165130000Y-96975000D03*
X162590000Y-96975000D03*
D14*
X160050000Y-96975000D03*
%TD*%
D13*
%TO.C,J9*%
X165115000Y-99855000D03*
X162575000Y-99855000D03*
D14*
X160035000Y-99855000D03*
%TD*%
%TO.C,D2*%
G36*
G01*
X146718750Y-111085000D02*
X147281250Y-111085000D01*
G75*
G02*
X147525000Y-111328750I0J-243750D01*
G01*
X147525000Y-111816250D01*
G75*
G02*
X147281250Y-112060000I-243750J0D01*
G01*
X146718750Y-112060000D01*
G75*
G02*
X146475000Y-111816250I0J243750D01*
G01*
X146475000Y-111328750D01*
G75*
G02*
X146718750Y-111085000I243750J0D01*
G01*
G37*
G36*
G01*
X146718750Y-109510000D02*
X147281250Y-109510000D01*
G75*
G02*
X147525000Y-109753750I0J-243750D01*
G01*
X147525000Y-110241250D01*
G75*
G02*
X147281250Y-110485000I-243750J0D01*
G01*
X146718750Y-110485000D01*
G75*
G02*
X146475000Y-110241250I0J243750D01*
G01*
X146475000Y-109753750D01*
G75*
G02*
X146718750Y-109510000I243750J0D01*
G01*
G37*
%TD*%
%TO.C,C23*%
G36*
G01*
X119442500Y-69720000D02*
X118917500Y-69720000D01*
G75*
G02*
X118655000Y-69457500I0J262500D01*
G01*
X118655000Y-68832500D01*
G75*
G02*
X118917500Y-68570000I262500J0D01*
G01*
X119442500Y-68570000D01*
G75*
G02*
X119705000Y-68832500I0J-262500D01*
G01*
X119705000Y-69457500D01*
G75*
G02*
X119442500Y-69720000I-262500J0D01*
G01*
G37*
G36*
G01*
X119442500Y-71470000D02*
X118917500Y-71470000D01*
G75*
G02*
X118655000Y-71207500I0J262500D01*
G01*
X118655000Y-70582500D01*
G75*
G02*
X118917500Y-70320000I262500J0D01*
G01*
X119442500Y-70320000D01*
G75*
G02*
X119705000Y-70582500I0J-262500D01*
G01*
X119705000Y-71207500D01*
G75*
G02*
X119442500Y-71470000I-262500J0D01*
G01*
G37*
%TD*%
%TO.C,C22*%
G36*
G01*
X118012500Y-69700000D02*
X117487500Y-69700000D01*
G75*
G02*
X117225000Y-69437500I0J262500D01*
G01*
X117225000Y-68812500D01*
G75*
G02*
X117487500Y-68550000I262500J0D01*
G01*
X118012500Y-68550000D01*
G75*
G02*
X118275000Y-68812500I0J-262500D01*
G01*
X118275000Y-69437500D01*
G75*
G02*
X118012500Y-69700000I-262500J0D01*
G01*
G37*
G36*
G01*
X118012500Y-71450000D02*
X117487500Y-71450000D01*
G75*
G02*
X117225000Y-71187500I0J262500D01*
G01*
X117225000Y-70562500D01*
G75*
G02*
X117487500Y-70300000I262500J0D01*
G01*
X118012500Y-70300000D01*
G75*
G02*
X118275000Y-70562500I0J-262500D01*
G01*
X118275000Y-71187500D01*
G75*
G02*
X118012500Y-71450000I-262500J0D01*
G01*
G37*
%TD*%
D13*
%TO.C,GND*%
X179600000Y-99550000D03*
X179600000Y-97010000D03*
X179600000Y-94470000D03*
X179600000Y-91930000D03*
X179600000Y-89390000D03*
D14*
X179600000Y-86850000D03*
%TD*%
D13*
%TO.C,+5V*%
X176825000Y-99545000D03*
X176825000Y-97005000D03*
X176825000Y-94465000D03*
X176825000Y-91925000D03*
X176825000Y-89385000D03*
D14*
X176825000Y-86845000D03*
%TD*%
D13*
%TO.C,PWM*%
X174000000Y-86825000D03*
X174000000Y-89365000D03*
X174000000Y-91905000D03*
X174000000Y-94445000D03*
X174000000Y-96985000D03*
D14*
X174000000Y-99525000D03*
%TD*%
D13*
%TO.C,EN2*%
X168550000Y-100020000D03*
X168550000Y-97480000D03*
X168550000Y-94940000D03*
D14*
X168550000Y-92400000D03*
%TD*%
D13*
%TO.C,EN1*%
X168670000Y-77960000D03*
X168670000Y-75420000D03*
X168670000Y-72880000D03*
D14*
X168670000Y-70340000D03*
%TD*%
D13*
%TO.C,L298N*%
X168545000Y-88750000D03*
X168545000Y-86210000D03*
X168545000Y-83670000D03*
D14*
X168545000Y-81130000D03*
%TD*%
%TO.C,C19*%
G36*
G01*
X124175000Y-77762500D02*
X124175000Y-77237500D01*
G75*
G02*
X124437500Y-76975000I262500J0D01*
G01*
X125062500Y-76975000D01*
G75*
G02*
X125325000Y-77237500I0J-262500D01*
G01*
X125325000Y-77762500D01*
G75*
G02*
X125062500Y-78025000I-262500J0D01*
G01*
X124437500Y-78025000D01*
G75*
G02*
X124175000Y-77762500I0J262500D01*
G01*
G37*
G36*
G01*
X122425000Y-77762500D02*
X122425000Y-77237500D01*
G75*
G02*
X122687500Y-76975000I262500J0D01*
G01*
X123312500Y-76975000D01*
G75*
G02*
X123575000Y-77237500I0J-262500D01*
G01*
X123575000Y-77762500D01*
G75*
G02*
X123312500Y-78025000I-262500J0D01*
G01*
X122687500Y-78025000D01*
G75*
G02*
X122425000Y-77762500I0J262500D01*
G01*
G37*
%TD*%
D30*
%TO.C,Y1*%
G36*
X127506497Y-84646573D02*
G01*
X128425735Y-83727335D01*
X129486395Y-84787995D01*
X128567157Y-85707233D01*
X127506497Y-84646573D01*
G37*
G36*
X129062132Y-86202208D02*
G01*
X129981370Y-85282970D01*
X131042030Y-86343630D01*
X130122792Y-87262868D01*
X129062132Y-86202208D01*
G37*
G36*
X127860051Y-87404289D02*
G01*
X128779289Y-86485051D01*
X129839949Y-87545711D01*
X128920711Y-88464949D01*
X127860051Y-87404289D01*
G37*
G36*
X126304416Y-85848654D02*
G01*
X127223654Y-84929416D01*
X128284314Y-85990076D01*
X127365076Y-86909314D01*
X126304416Y-85848654D01*
G37*
%TD*%
D31*
%TO.C,AMS1117*%
X126050000Y-66600000D03*
X121450000Y-66600000D03*
X123750000Y-66600000D03*
D32*
X123750000Y-72900000D03*
%TD*%
%TO.C,R9*%
G36*
G01*
X116670000Y-84251250D02*
X116670000Y-83688750D01*
G75*
G02*
X116913750Y-83445000I243750J0D01*
G01*
X117401250Y-83445000D01*
G75*
G02*
X117645000Y-83688750I0J-243750D01*
G01*
X117645000Y-84251250D01*
G75*
G02*
X117401250Y-84495000I-243750J0D01*
G01*
X116913750Y-84495000D01*
G75*
G02*
X116670000Y-84251250I0J243750D01*
G01*
G37*
G36*
G01*
X115095000Y-84251250D02*
X115095000Y-83688750D01*
G75*
G02*
X115338750Y-83445000I243750J0D01*
G01*
X115826250Y-83445000D01*
G75*
G02*
X116070000Y-83688750I0J-243750D01*
G01*
X116070000Y-84251250D01*
G75*
G02*
X115826250Y-84495000I-243750J0D01*
G01*
X115338750Y-84495000D01*
G75*
G02*
X115095000Y-84251250I0J243750D01*
G01*
G37*
%TD*%
%TO.C,R8*%
G36*
G01*
X116680000Y-81266250D02*
X116680000Y-80703750D01*
G75*
G02*
X116923750Y-80460000I243750J0D01*
G01*
X117411250Y-80460000D01*
G75*
G02*
X117655000Y-80703750I0J-243750D01*
G01*
X117655000Y-81266250D01*
G75*
G02*
X117411250Y-81510000I-243750J0D01*
G01*
X116923750Y-81510000D01*
G75*
G02*
X116680000Y-81266250I0J243750D01*
G01*
G37*
G36*
G01*
X115105000Y-81266250D02*
X115105000Y-80703750D01*
G75*
G02*
X115348750Y-80460000I243750J0D01*
G01*
X115836250Y-80460000D01*
G75*
G02*
X116080000Y-80703750I0J-243750D01*
G01*
X116080000Y-81266250D01*
G75*
G02*
X115836250Y-81510000I-243750J0D01*
G01*
X115348750Y-81510000D01*
G75*
G02*
X115105000Y-81266250I0J243750D01*
G01*
G37*
%TD*%
%TO.C,R7*%
G36*
G01*
X116675000Y-82756250D02*
X116675000Y-82193750D01*
G75*
G02*
X116918750Y-81950000I243750J0D01*
G01*
X117406250Y-81950000D01*
G75*
G02*
X117650000Y-82193750I0J-243750D01*
G01*
X117650000Y-82756250D01*
G75*
G02*
X117406250Y-83000000I-243750J0D01*
G01*
X116918750Y-83000000D01*
G75*
G02*
X116675000Y-82756250I0J243750D01*
G01*
G37*
G36*
G01*
X115100000Y-82756250D02*
X115100000Y-82193750D01*
G75*
G02*
X115343750Y-81950000I243750J0D01*
G01*
X115831250Y-81950000D01*
G75*
G02*
X116075000Y-82193750I0J-243750D01*
G01*
X116075000Y-82756250D01*
G75*
G02*
X115831250Y-83000000I-243750J0D01*
G01*
X115343750Y-83000000D01*
G75*
G02*
X115100000Y-82756250I0J243750D01*
G01*
G37*
%TD*%
%TO.C,R6*%
G36*
G01*
X116400000Y-90056250D02*
X116400000Y-89493750D01*
G75*
G02*
X116643750Y-89250000I243750J0D01*
G01*
X117131250Y-89250000D01*
G75*
G02*
X117375000Y-89493750I0J-243750D01*
G01*
X117375000Y-90056250D01*
G75*
G02*
X117131250Y-90300000I-243750J0D01*
G01*
X116643750Y-90300000D01*
G75*
G02*
X116400000Y-90056250I0J243750D01*
G01*
G37*
G36*
G01*
X114825000Y-90056250D02*
X114825000Y-89493750D01*
G75*
G02*
X115068750Y-89250000I243750J0D01*
G01*
X115556250Y-89250000D01*
G75*
G02*
X115800000Y-89493750I0J-243750D01*
G01*
X115800000Y-90056250D01*
G75*
G02*
X115556250Y-90300000I-243750J0D01*
G01*
X115068750Y-90300000D01*
G75*
G02*
X114825000Y-90056250I0J243750D01*
G01*
G37*
%TD*%
%TO.C,R5*%
G36*
G01*
X143056250Y-68825000D02*
X142493750Y-68825000D01*
G75*
G02*
X142250000Y-68581250I0J243750D01*
G01*
X142250000Y-68093750D01*
G75*
G02*
X142493750Y-67850000I243750J0D01*
G01*
X143056250Y-67850000D01*
G75*
G02*
X143300000Y-68093750I0J-243750D01*
G01*
X143300000Y-68581250D01*
G75*
G02*
X143056250Y-68825000I-243750J0D01*
G01*
G37*
G36*
G01*
X143056250Y-70400000D02*
X142493750Y-70400000D01*
G75*
G02*
X142250000Y-70156250I0J243750D01*
G01*
X142250000Y-69668750D01*
G75*
G02*
X142493750Y-69425000I243750J0D01*
G01*
X143056250Y-69425000D01*
G75*
G02*
X143300000Y-69668750I0J-243750D01*
G01*
X143300000Y-70156250D01*
G75*
G02*
X143056250Y-70400000I-243750J0D01*
G01*
G37*
%TD*%
%TO.C,R4*%
G36*
G01*
X141581250Y-68800000D02*
X141018750Y-68800000D01*
G75*
G02*
X140775000Y-68556250I0J243750D01*
G01*
X140775000Y-68068750D01*
G75*
G02*
X141018750Y-67825000I243750J0D01*
G01*
X141581250Y-67825000D01*
G75*
G02*
X141825000Y-68068750I0J-243750D01*
G01*
X141825000Y-68556250D01*
G75*
G02*
X141581250Y-68800000I-243750J0D01*
G01*
G37*
G36*
G01*
X141581250Y-70375000D02*
X141018750Y-70375000D01*
G75*
G02*
X140775000Y-70131250I0J243750D01*
G01*
X140775000Y-69643750D01*
G75*
G02*
X141018750Y-69400000I243750J0D01*
G01*
X141581250Y-69400000D01*
G75*
G02*
X141825000Y-69643750I0J-243750D01*
G01*
X141825000Y-70131250D01*
G75*
G02*
X141581250Y-70375000I-243750J0D01*
G01*
G37*
%TD*%
%TO.C,R3*%
G36*
G01*
X128207500Y-72385000D02*
X128732500Y-72385000D01*
G75*
G02*
X128995000Y-72647500I0J-262500D01*
G01*
X128995000Y-73272500D01*
G75*
G02*
X128732500Y-73535000I-262500J0D01*
G01*
X128207500Y-73535000D01*
G75*
G02*
X127945000Y-73272500I0J262500D01*
G01*
X127945000Y-72647500D01*
G75*
G02*
X128207500Y-72385000I262500J0D01*
G01*
G37*
G36*
G01*
X128207500Y-70635000D02*
X128732500Y-70635000D01*
G75*
G02*
X128995000Y-70897500I0J-262500D01*
G01*
X128995000Y-71522500D01*
G75*
G02*
X128732500Y-71785000I-262500J0D01*
G01*
X128207500Y-71785000D01*
G75*
G02*
X127945000Y-71522500I0J262500D01*
G01*
X127945000Y-70897500D01*
G75*
G02*
X128207500Y-70635000I262500J0D01*
G01*
G37*
%TD*%
%TO.C,R1*%
G36*
G01*
X140106250Y-68800000D02*
X139543750Y-68800000D01*
G75*
G02*
X139300000Y-68556250I0J243750D01*
G01*
X139300000Y-68068750D01*
G75*
G02*
X139543750Y-67825000I243750J0D01*
G01*
X140106250Y-67825000D01*
G75*
G02*
X140350000Y-68068750I0J-243750D01*
G01*
X140350000Y-68556250D01*
G75*
G02*
X140106250Y-68800000I-243750J0D01*
G01*
G37*
G36*
G01*
X140106250Y-70375000D02*
X139543750Y-70375000D01*
G75*
G02*
X139300000Y-70131250I0J243750D01*
G01*
X139300000Y-69643750D01*
G75*
G02*
X139543750Y-69400000I243750J0D01*
G01*
X140106250Y-69400000D01*
G75*
G02*
X140350000Y-69643750I0J-243750D01*
G01*
X140350000Y-70131250D01*
G75*
G02*
X140106250Y-70375000I-243750J0D01*
G01*
G37*
%TD*%
D33*
%TO.C,P1*%
X113330000Y-89845000D03*
X113330000Y-88745000D03*
X113330000Y-87645000D03*
X113330000Y-86545000D03*
X113330000Y-85445000D03*
X113330000Y-84345000D03*
X113330000Y-83245000D03*
X113330000Y-82145000D03*
X113330000Y-81045000D03*
D34*
X112730000Y-79745000D03*
D35*
X103230000Y-79745000D03*
D36*
X112830000Y-94545000D03*
D35*
X103230000Y-95445000D03*
D37*
X102830000Y-82645000D03*
X102830000Y-90645000D03*
%TD*%
D13*
%TO.C,CS RS SCL SDA LED NC NC GND GND +5v     *%
X160750000Y-91900000D03*
X160750000Y-89360000D03*
X160750000Y-86820000D03*
X160750000Y-84280000D03*
X160750000Y-81740000D03*
X160750000Y-79200000D03*
X160750000Y-76660000D03*
X160750000Y-74120000D03*
X160750000Y-71580000D03*
X160750000Y-69040000D03*
D14*
X160750000Y-66500000D03*
%TD*%
D13*
%TO.C,5v GND RX TX*%
X159950000Y-62000000D03*
X157410000Y-62000000D03*
X154870000Y-62000000D03*
X152330000Y-62000000D03*
X149790000Y-62000000D03*
D14*
X147250000Y-62000000D03*
%TD*%
D13*
%TO.C,3.3v CLK DIO GND*%
X133690000Y-61990000D03*
X131150000Y-61990000D03*
X128610000Y-61990000D03*
D14*
X126070000Y-61990000D03*
%TD*%
D13*
%TO.C,BOOT*%
X122930000Y-62000000D03*
X120390000Y-62000000D03*
D14*
X117850000Y-62000000D03*
%TD*%
%TO.C,D1*%
G36*
G01*
X128198749Y-69095001D02*
X128761249Y-69095001D01*
G75*
G02*
X129004999Y-69338751I0J-243750D01*
G01*
X129004999Y-69826251D01*
G75*
G02*
X128761249Y-70070001I-243750J0D01*
G01*
X128198749Y-70070001D01*
G75*
G02*
X127954999Y-69826251I0J243750D01*
G01*
X127954999Y-69338751D01*
G75*
G02*
X128198749Y-69095001I243750J0D01*
G01*
G37*
G36*
G01*
X128198749Y-67520001D02*
X128761249Y-67520001D01*
G75*
G02*
X129004999Y-67763751I0J-243750D01*
G01*
X129004999Y-68251251D01*
G75*
G02*
X128761249Y-68495001I-243750J0D01*
G01*
X128198749Y-68495001D01*
G75*
G02*
X127954999Y-68251251I0J243750D01*
G01*
X127954999Y-67763751D01*
G75*
G02*
X128198749Y-67520001I243750J0D01*
G01*
G37*
%TD*%
%TO.C,C13*%
G36*
G01*
X133304766Y-88983535D02*
X132933535Y-89354766D01*
G75*
G02*
X132562303Y-89354766I-185616J185616D01*
G01*
X132120362Y-88912825D01*
G75*
G02*
X132120362Y-88541593I185616J185616D01*
G01*
X132491593Y-88170362D01*
G75*
G02*
X132862825Y-88170362I185616J-185616D01*
G01*
X133304766Y-88612303D01*
G75*
G02*
X133304766Y-88983535I-185616J-185616D01*
G01*
G37*
G36*
G01*
X134542202Y-90220971D02*
X134170971Y-90592202D01*
G75*
G02*
X133799739Y-90592202I-185616J185616D01*
G01*
X133357798Y-90150261D01*
G75*
G02*
X133357798Y-89779029I185616J185616D01*
G01*
X133729029Y-89407798D01*
G75*
G02*
X134100261Y-89407798I185616J-185616D01*
G01*
X134542202Y-89849739D01*
G75*
G02*
X134542202Y-90220971I-185616J-185616D01*
G01*
G37*
%TD*%
%TO.C,C12*%
G36*
G01*
X139450000Y-75382500D02*
X139450000Y-74857500D01*
G75*
G02*
X139712500Y-74595000I262500J0D01*
G01*
X140337500Y-74595000D01*
G75*
G02*
X140600000Y-74857500I0J-262500D01*
G01*
X140600000Y-75382500D01*
G75*
G02*
X140337500Y-75645000I-262500J0D01*
G01*
X139712500Y-75645000D01*
G75*
G02*
X139450000Y-75382500I0J262500D01*
G01*
G37*
G36*
G01*
X137700000Y-75382500D02*
X137700000Y-74857500D01*
G75*
G02*
X137962500Y-74595000I262500J0D01*
G01*
X138587500Y-74595000D01*
G75*
G02*
X138850000Y-74857500I0J-262500D01*
G01*
X138850000Y-75382500D01*
G75*
G02*
X138587500Y-75645000I-262500J0D01*
G01*
X137962500Y-75645000D01*
G75*
G02*
X137700000Y-75382500I0J262500D01*
G01*
G37*
%TD*%
%TO.C,C11*%
G36*
G01*
X171575000Y-107487500D02*
X171575000Y-106962500D01*
G75*
G02*
X171837500Y-106700000I262500J0D01*
G01*
X172462500Y-106700000D01*
G75*
G02*
X172725000Y-106962500I0J-262500D01*
G01*
X172725000Y-107487500D01*
G75*
G02*
X172462500Y-107750000I-262500J0D01*
G01*
X171837500Y-107750000D01*
G75*
G02*
X171575000Y-107487500I0J262500D01*
G01*
G37*
G36*
G01*
X169825000Y-107487500D02*
X169825000Y-106962500D01*
G75*
G02*
X170087500Y-106700000I262500J0D01*
G01*
X170712500Y-106700000D01*
G75*
G02*
X170975000Y-106962500I0J-262500D01*
G01*
X170975000Y-107487500D01*
G75*
G02*
X170712500Y-107750000I-262500J0D01*
G01*
X170087500Y-107750000D01*
G75*
G02*
X169825000Y-107487500I0J262500D01*
G01*
G37*
%TD*%
%TO.C,C10*%
G36*
G01*
X115825000Y-107587500D02*
X115825000Y-107062500D01*
G75*
G02*
X116087500Y-106800000I262500J0D01*
G01*
X116712500Y-106800000D01*
G75*
G02*
X116975000Y-107062500I0J-262500D01*
G01*
X116975000Y-107587500D01*
G75*
G02*
X116712500Y-107850000I-262500J0D01*
G01*
X116087500Y-107850000D01*
G75*
G02*
X115825000Y-107587500I0J262500D01*
G01*
G37*
G36*
G01*
X114075000Y-107587500D02*
X114075000Y-107062500D01*
G75*
G02*
X114337500Y-106800000I262500J0D01*
G01*
X114962500Y-106800000D01*
G75*
G02*
X115225000Y-107062500I0J-262500D01*
G01*
X115225000Y-107587500D01*
G75*
G02*
X114962500Y-107850000I-262500J0D01*
G01*
X114337500Y-107850000D01*
G75*
G02*
X114075000Y-107587500I0J262500D01*
G01*
G37*
%TD*%
%TO.C,C9*%
G36*
G01*
X125125000Y-76155000D02*
X125125000Y-74845000D01*
G75*
G02*
X125395000Y-74575000I270000J0D01*
G01*
X126205000Y-74575000D01*
G75*
G02*
X126475000Y-74845000I0J-270000D01*
G01*
X126475000Y-76155000D01*
G75*
G02*
X126205000Y-76425000I-270000J0D01*
G01*
X125395000Y-76425000D01*
G75*
G02*
X125125000Y-76155000I0J270000D01*
G01*
G37*
G36*
G01*
X122325000Y-76155000D02*
X122325000Y-74845000D01*
G75*
G02*
X122595000Y-74575000I270000J0D01*
G01*
X123405000Y-74575000D01*
G75*
G02*
X123675000Y-74845000I0J-270000D01*
G01*
X123675000Y-76155000D01*
G75*
G02*
X123405000Y-76425000I-270000J0D01*
G01*
X122595000Y-76425000D01*
G75*
G02*
X122325000Y-76155000I0J270000D01*
G01*
G37*
%TD*%
%TO.C,C8*%
G36*
G01*
X132154766Y-90058535D02*
X131783535Y-90429766D01*
G75*
G02*
X131412303Y-90429766I-185616J185616D01*
G01*
X130970362Y-89987825D01*
G75*
G02*
X130970362Y-89616593I185616J185616D01*
G01*
X131341593Y-89245362D01*
G75*
G02*
X131712825Y-89245362I185616J-185616D01*
G01*
X132154766Y-89687303D01*
G75*
G02*
X132154766Y-90058535I-185616J-185616D01*
G01*
G37*
G36*
G01*
X133392202Y-91295971D02*
X133020971Y-91667202D01*
G75*
G02*
X132649739Y-91667202I-185616J185616D01*
G01*
X132207798Y-91225261D01*
G75*
G02*
X132207798Y-90854029I185616J185616D01*
G01*
X132579029Y-90482798D01*
G75*
G02*
X132950261Y-90482798I185616J-185616D01*
G01*
X133392202Y-90924739D01*
G75*
G02*
X133392202Y-91295971I-185616J-185616D01*
G01*
G37*
%TD*%
%TO.C,C7*%
G36*
G01*
X145737500Y-83800000D02*
X146262500Y-83800000D01*
G75*
G02*
X146525000Y-84062500I0J-262500D01*
G01*
X146525000Y-84687500D01*
G75*
G02*
X146262500Y-84950000I-262500J0D01*
G01*
X145737500Y-84950000D01*
G75*
G02*
X145475000Y-84687500I0J262500D01*
G01*
X145475000Y-84062500D01*
G75*
G02*
X145737500Y-83800000I262500J0D01*
G01*
G37*
G36*
G01*
X145737500Y-82050000D02*
X146262500Y-82050000D01*
G75*
G02*
X146525000Y-82312500I0J-262500D01*
G01*
X146525000Y-82937500D01*
G75*
G02*
X146262500Y-83200000I-262500J0D01*
G01*
X145737500Y-83200000D01*
G75*
G02*
X145475000Y-82937500I0J262500D01*
G01*
X145475000Y-82312500D01*
G75*
G02*
X145737500Y-82050000I262500J0D01*
G01*
G37*
%TD*%
%TO.C,C6*%
G36*
G01*
X132062500Y-82300000D02*
X132587500Y-82300000D01*
G75*
G02*
X132850000Y-82562500I0J-262500D01*
G01*
X132850000Y-83187500D01*
G75*
G02*
X132587500Y-83450000I-262500J0D01*
G01*
X132062500Y-83450000D01*
G75*
G02*
X131800000Y-83187500I0J262500D01*
G01*
X131800000Y-82562500D01*
G75*
G02*
X132062500Y-82300000I262500J0D01*
G01*
G37*
G36*
G01*
X132062500Y-80550000D02*
X132587500Y-80550000D01*
G75*
G02*
X132850000Y-80812500I0J-262500D01*
G01*
X132850000Y-81437500D01*
G75*
G02*
X132587500Y-81700000I-262500J0D01*
G01*
X132062500Y-81700000D01*
G75*
G02*
X131800000Y-81437500I0J262500D01*
G01*
X131800000Y-80812500D01*
G75*
G02*
X132062500Y-80550000I262500J0D01*
G01*
G37*
%TD*%
%TO.C,C5*%
G36*
G01*
X122725000Y-64787500D02*
X122725000Y-64262500D01*
G75*
G02*
X122987500Y-64000000I262500J0D01*
G01*
X123612500Y-64000000D01*
G75*
G02*
X123875000Y-64262500I0J-262500D01*
G01*
X123875000Y-64787500D01*
G75*
G02*
X123612500Y-65050000I-262500J0D01*
G01*
X122987500Y-65050000D01*
G75*
G02*
X122725000Y-64787500I0J262500D01*
G01*
G37*
G36*
G01*
X120975000Y-64787500D02*
X120975000Y-64262500D01*
G75*
G02*
X121237500Y-64000000I262500J0D01*
G01*
X121862500Y-64000000D01*
G75*
G02*
X122125000Y-64262500I0J-262500D01*
G01*
X122125000Y-64787500D01*
G75*
G02*
X121862500Y-65050000I-262500J0D01*
G01*
X121237500Y-65050000D01*
G75*
G02*
X120975000Y-64787500I0J262500D01*
G01*
G37*
%TD*%
M02*
