%TF.GenerationSoftware,KiCad,Pcbnew,(5.1.6)-1*%
%TF.CreationDate,2020-09-08T21:04:45+07:00*%
%TF.ProjectId,C21_board,4332315f-626f-4617-9264-2e6b69636164,rev?*%
%TF.SameCoordinates,Original*%
%TF.FileFunction,Legend,Bot*%
%TF.FilePolarity,Positive*%
%FSLAX46Y46*%
G04 Gerber Fmt 4.6, Leading zero omitted, Abs format (unit mm)*
G04 Created by KiCad (PCBNEW (5.1.6)-1) date 2020-09-08 21:04:45*
%MOMM*%
%LPD*%
G01*
G04 APERTURE LIST*
%ADD10C,0.120000*%
%ADD11C,0.150000*%
G04 APERTURE END LIST*
D10*
%TO.C,C24*%
X157215000Y-67228733D02*
X157215000Y-67571267D01*
X158235000Y-67228733D02*
X158235000Y-67571267D01*
%TO.C,D5*%
X108410000Y-65275000D02*
X108410000Y-69160000D01*
X108410000Y-69160000D02*
X106140000Y-69160000D01*
X106140000Y-69160000D02*
X106140000Y-65275000D01*
%TO.C,R13*%
X144285000Y-105646267D02*
X144285000Y-105303733D01*
X143265000Y-105646267D02*
X143265000Y-105303733D01*
%TO.C,R12*%
X137460000Y-105696267D02*
X137460000Y-105353733D01*
X136440000Y-105696267D02*
X136440000Y-105353733D01*
%TO.C,R10*%
X150785000Y-105671267D02*
X150785000Y-105328733D01*
X149765000Y-105671267D02*
X149765000Y-105328733D01*
%TO.C,R2*%
X131135000Y-105671267D02*
X131135000Y-105328733D01*
X130115000Y-105671267D02*
X130115000Y-105328733D01*
%TO.C,C18*%
X144285000Y-102096267D02*
X144285000Y-101753733D01*
X143265000Y-102096267D02*
X143265000Y-101753733D01*
%TO.C,C17*%
X137510000Y-102046267D02*
X137510000Y-101703733D01*
X136490000Y-102046267D02*
X136490000Y-101703733D01*
%TO.C,C15*%
X167621267Y-66515000D02*
X167278733Y-66515000D01*
X167621267Y-67535000D02*
X167278733Y-67535000D01*
%TO.C,C14*%
X150785000Y-101921267D02*
X150785000Y-101578733D01*
X149765000Y-101921267D02*
X149765000Y-101578733D01*
%TO.C,C3*%
X131085000Y-102196267D02*
X131085000Y-101853733D01*
X130065000Y-102196267D02*
X130065000Y-101853733D01*
%TO.C,C24*%
D11*
X159607142Y-66932142D02*
X159654761Y-66884523D01*
X159702380Y-66741666D01*
X159702380Y-66646428D01*
X159654761Y-66503571D01*
X159559523Y-66408333D01*
X159464285Y-66360714D01*
X159273809Y-66313095D01*
X159130952Y-66313095D01*
X158940476Y-66360714D01*
X158845238Y-66408333D01*
X158750000Y-66503571D01*
X158702380Y-66646428D01*
X158702380Y-66741666D01*
X158750000Y-66884523D01*
X158797619Y-66932142D01*
X158797619Y-67313095D02*
X158750000Y-67360714D01*
X158702380Y-67455952D01*
X158702380Y-67694047D01*
X158750000Y-67789285D01*
X158797619Y-67836904D01*
X158892857Y-67884523D01*
X158988095Y-67884523D01*
X159130952Y-67836904D01*
X159702380Y-67265476D01*
X159702380Y-67884523D01*
X159035714Y-68741666D02*
X159702380Y-68741666D01*
X158654761Y-68503571D02*
X159369047Y-68265476D01*
X159369047Y-68884523D01*
%TO.C,D5*%
X109547380Y-66136904D02*
X108547380Y-66136904D01*
X108547380Y-66375000D01*
X108595000Y-66517857D01*
X108690238Y-66613095D01*
X108785476Y-66660714D01*
X108975952Y-66708333D01*
X109118809Y-66708333D01*
X109309285Y-66660714D01*
X109404523Y-66613095D01*
X109499761Y-66517857D01*
X109547380Y-66375000D01*
X109547380Y-66136904D01*
X108547380Y-67613095D02*
X108547380Y-67136904D01*
X109023571Y-67089285D01*
X108975952Y-67136904D01*
X108928333Y-67232142D01*
X108928333Y-67470238D01*
X108975952Y-67565476D01*
X109023571Y-67613095D01*
X109118809Y-67660714D01*
X109356904Y-67660714D01*
X109452142Y-67613095D01*
X109499761Y-67565476D01*
X109547380Y-67470238D01*
X109547380Y-67232142D01*
X109499761Y-67136904D01*
X109452142Y-67089285D01*
%TO.C,R13*%
X145657380Y-104832142D02*
X145181190Y-104498809D01*
X145657380Y-104260714D02*
X144657380Y-104260714D01*
X144657380Y-104641666D01*
X144705000Y-104736904D01*
X144752619Y-104784523D01*
X144847857Y-104832142D01*
X144990714Y-104832142D01*
X145085952Y-104784523D01*
X145133571Y-104736904D01*
X145181190Y-104641666D01*
X145181190Y-104260714D01*
X145657380Y-105784523D02*
X145657380Y-105213095D01*
X145657380Y-105498809D02*
X144657380Y-105498809D01*
X144800238Y-105403571D01*
X144895476Y-105308333D01*
X144943095Y-105213095D01*
X144657380Y-106117857D02*
X144657380Y-106736904D01*
X145038333Y-106403571D01*
X145038333Y-106546428D01*
X145085952Y-106641666D01*
X145133571Y-106689285D01*
X145228809Y-106736904D01*
X145466904Y-106736904D01*
X145562142Y-106689285D01*
X145609761Y-106641666D01*
X145657380Y-106546428D01*
X145657380Y-106260714D01*
X145609761Y-106165476D01*
X145562142Y-106117857D01*
%TO.C,R12*%
X138832380Y-104882142D02*
X138356190Y-104548809D01*
X138832380Y-104310714D02*
X137832380Y-104310714D01*
X137832380Y-104691666D01*
X137880000Y-104786904D01*
X137927619Y-104834523D01*
X138022857Y-104882142D01*
X138165714Y-104882142D01*
X138260952Y-104834523D01*
X138308571Y-104786904D01*
X138356190Y-104691666D01*
X138356190Y-104310714D01*
X138832380Y-105834523D02*
X138832380Y-105263095D01*
X138832380Y-105548809D02*
X137832380Y-105548809D01*
X137975238Y-105453571D01*
X138070476Y-105358333D01*
X138118095Y-105263095D01*
X137927619Y-106215476D02*
X137880000Y-106263095D01*
X137832380Y-106358333D01*
X137832380Y-106596428D01*
X137880000Y-106691666D01*
X137927619Y-106739285D01*
X138022857Y-106786904D01*
X138118095Y-106786904D01*
X138260952Y-106739285D01*
X138832380Y-106167857D01*
X138832380Y-106786904D01*
%TO.C,R10*%
X152157380Y-104857142D02*
X151681190Y-104523809D01*
X152157380Y-104285714D02*
X151157380Y-104285714D01*
X151157380Y-104666666D01*
X151205000Y-104761904D01*
X151252619Y-104809523D01*
X151347857Y-104857142D01*
X151490714Y-104857142D01*
X151585952Y-104809523D01*
X151633571Y-104761904D01*
X151681190Y-104666666D01*
X151681190Y-104285714D01*
X152157380Y-105809523D02*
X152157380Y-105238095D01*
X152157380Y-105523809D02*
X151157380Y-105523809D01*
X151300238Y-105428571D01*
X151395476Y-105333333D01*
X151443095Y-105238095D01*
X151157380Y-106428571D02*
X151157380Y-106523809D01*
X151205000Y-106619047D01*
X151252619Y-106666666D01*
X151347857Y-106714285D01*
X151538333Y-106761904D01*
X151776428Y-106761904D01*
X151966904Y-106714285D01*
X152062142Y-106666666D01*
X152109761Y-106619047D01*
X152157380Y-106523809D01*
X152157380Y-106428571D01*
X152109761Y-106333333D01*
X152062142Y-106285714D01*
X151966904Y-106238095D01*
X151776428Y-106190476D01*
X151538333Y-106190476D01*
X151347857Y-106238095D01*
X151252619Y-106285714D01*
X151205000Y-106333333D01*
X151157380Y-106428571D01*
%TO.C,R2*%
X132507380Y-105333333D02*
X132031190Y-105000000D01*
X132507380Y-104761904D02*
X131507380Y-104761904D01*
X131507380Y-105142857D01*
X131555000Y-105238095D01*
X131602619Y-105285714D01*
X131697857Y-105333333D01*
X131840714Y-105333333D01*
X131935952Y-105285714D01*
X131983571Y-105238095D01*
X132031190Y-105142857D01*
X132031190Y-104761904D01*
X131602619Y-105714285D02*
X131555000Y-105761904D01*
X131507380Y-105857142D01*
X131507380Y-106095238D01*
X131555000Y-106190476D01*
X131602619Y-106238095D01*
X131697857Y-106285714D01*
X131793095Y-106285714D01*
X131935952Y-106238095D01*
X132507380Y-105666666D01*
X132507380Y-106285714D01*
%TO.C,C18*%
X145562142Y-101282142D02*
X145609761Y-101234523D01*
X145657380Y-101091666D01*
X145657380Y-100996428D01*
X145609761Y-100853571D01*
X145514523Y-100758333D01*
X145419285Y-100710714D01*
X145228809Y-100663095D01*
X145085952Y-100663095D01*
X144895476Y-100710714D01*
X144800238Y-100758333D01*
X144705000Y-100853571D01*
X144657380Y-100996428D01*
X144657380Y-101091666D01*
X144705000Y-101234523D01*
X144752619Y-101282142D01*
X145657380Y-102234523D02*
X145657380Y-101663095D01*
X145657380Y-101948809D02*
X144657380Y-101948809D01*
X144800238Y-101853571D01*
X144895476Y-101758333D01*
X144943095Y-101663095D01*
X145085952Y-102805952D02*
X145038333Y-102710714D01*
X144990714Y-102663095D01*
X144895476Y-102615476D01*
X144847857Y-102615476D01*
X144752619Y-102663095D01*
X144705000Y-102710714D01*
X144657380Y-102805952D01*
X144657380Y-102996428D01*
X144705000Y-103091666D01*
X144752619Y-103139285D01*
X144847857Y-103186904D01*
X144895476Y-103186904D01*
X144990714Y-103139285D01*
X145038333Y-103091666D01*
X145085952Y-102996428D01*
X145085952Y-102805952D01*
X145133571Y-102710714D01*
X145181190Y-102663095D01*
X145276428Y-102615476D01*
X145466904Y-102615476D01*
X145562142Y-102663095D01*
X145609761Y-102710714D01*
X145657380Y-102805952D01*
X145657380Y-102996428D01*
X145609761Y-103091666D01*
X145562142Y-103139285D01*
X145466904Y-103186904D01*
X145276428Y-103186904D01*
X145181190Y-103139285D01*
X145133571Y-103091666D01*
X145085952Y-102996428D01*
%TO.C,C17*%
X138787142Y-101232142D02*
X138834761Y-101184523D01*
X138882380Y-101041666D01*
X138882380Y-100946428D01*
X138834761Y-100803571D01*
X138739523Y-100708333D01*
X138644285Y-100660714D01*
X138453809Y-100613095D01*
X138310952Y-100613095D01*
X138120476Y-100660714D01*
X138025238Y-100708333D01*
X137930000Y-100803571D01*
X137882380Y-100946428D01*
X137882380Y-101041666D01*
X137930000Y-101184523D01*
X137977619Y-101232142D01*
X138882380Y-102184523D02*
X138882380Y-101613095D01*
X138882380Y-101898809D02*
X137882380Y-101898809D01*
X138025238Y-101803571D01*
X138120476Y-101708333D01*
X138168095Y-101613095D01*
X137882380Y-102517857D02*
X137882380Y-103184523D01*
X138882380Y-102755952D01*
%TO.C,C15*%
X168092857Y-65952142D02*
X168140476Y-65999761D01*
X168283333Y-66047380D01*
X168378571Y-66047380D01*
X168521428Y-65999761D01*
X168616666Y-65904523D01*
X168664285Y-65809285D01*
X168711904Y-65618809D01*
X168711904Y-65475952D01*
X168664285Y-65285476D01*
X168616666Y-65190238D01*
X168521428Y-65095000D01*
X168378571Y-65047380D01*
X168283333Y-65047380D01*
X168140476Y-65095000D01*
X168092857Y-65142619D01*
X167140476Y-66047380D02*
X167711904Y-66047380D01*
X167426190Y-66047380D02*
X167426190Y-65047380D01*
X167521428Y-65190238D01*
X167616666Y-65285476D01*
X167711904Y-65333095D01*
X166235714Y-65047380D02*
X166711904Y-65047380D01*
X166759523Y-65523571D01*
X166711904Y-65475952D01*
X166616666Y-65428333D01*
X166378571Y-65428333D01*
X166283333Y-65475952D01*
X166235714Y-65523571D01*
X166188095Y-65618809D01*
X166188095Y-65856904D01*
X166235714Y-65952142D01*
X166283333Y-65999761D01*
X166378571Y-66047380D01*
X166616666Y-66047380D01*
X166711904Y-65999761D01*
X166759523Y-65952142D01*
%TO.C,C14*%
X152062142Y-101107142D02*
X152109761Y-101059523D01*
X152157380Y-100916666D01*
X152157380Y-100821428D01*
X152109761Y-100678571D01*
X152014523Y-100583333D01*
X151919285Y-100535714D01*
X151728809Y-100488095D01*
X151585952Y-100488095D01*
X151395476Y-100535714D01*
X151300238Y-100583333D01*
X151205000Y-100678571D01*
X151157380Y-100821428D01*
X151157380Y-100916666D01*
X151205000Y-101059523D01*
X151252619Y-101107142D01*
X152157380Y-102059523D02*
X152157380Y-101488095D01*
X152157380Y-101773809D02*
X151157380Y-101773809D01*
X151300238Y-101678571D01*
X151395476Y-101583333D01*
X151443095Y-101488095D01*
X151490714Y-102916666D02*
X152157380Y-102916666D01*
X151109761Y-102678571D02*
X151824047Y-102440476D01*
X151824047Y-103059523D01*
%TO.C,C3*%
X132362142Y-101858333D02*
X132409761Y-101810714D01*
X132457380Y-101667857D01*
X132457380Y-101572619D01*
X132409761Y-101429761D01*
X132314523Y-101334523D01*
X132219285Y-101286904D01*
X132028809Y-101239285D01*
X131885952Y-101239285D01*
X131695476Y-101286904D01*
X131600238Y-101334523D01*
X131505000Y-101429761D01*
X131457380Y-101572619D01*
X131457380Y-101667857D01*
X131505000Y-101810714D01*
X131552619Y-101858333D01*
X131457380Y-102191666D02*
X131457380Y-102810714D01*
X131838333Y-102477380D01*
X131838333Y-102620238D01*
X131885952Y-102715476D01*
X131933571Y-102763095D01*
X132028809Y-102810714D01*
X132266904Y-102810714D01*
X132362142Y-102763095D01*
X132409761Y-102715476D01*
X132457380Y-102620238D01*
X132457380Y-102334523D01*
X132409761Y-102239285D01*
X132362142Y-102191666D01*
%TD*%
M02*
