%TF.GenerationSoftware,KiCad,Pcbnew,(5.1.6)-1*%
%TF.CreationDate,2020-09-08T21:04:45+07:00*%
%TF.ProjectId,C21_board,4332315f-626f-4617-9264-2e6b69636164,rev?*%
%TF.SameCoordinates,Original*%
%TF.FileFunction,Soldermask,Bot*%
%TF.FilePolarity,Negative*%
%FSLAX46Y46*%
G04 Gerber Fmt 4.6, Leading zero omitted, Abs format (unit mm)*
G04 Created by KiCad (PCBNEW (5.1.6)-1) date 2020-09-08 21:04:45*
%MOMM*%
%LPD*%
G01*
G04 APERTURE LIST*
%ADD10C,1.624000*%
%ADD11R,1.624000X1.624000*%
%ADD12O,1.800000X1.800000*%
%ADD13R,1.800000X1.800000*%
%ADD14C,3.300000*%
%ADD15C,3.400000*%
%ADD16C,1.700000*%
%ADD17R,1.700000X1.700000*%
%ADD18O,4.060000X2.080000*%
%ADD19R,4.060000X2.080000*%
%ADD20O,1.300000X2.000000*%
%ADD21C,1.550000*%
%ADD22R,4.500000X1.900000*%
%ADD23O,4.100000X1.900000*%
%ADD24O,1.900000X4.100000*%
%ADD25C,1.000000*%
G04 APERTURE END LIST*
D10*
%TO.C,nRF24*%
X173720000Y-61685000D03*
X173720000Y-64225000D03*
X171180000Y-61685000D03*
X171180000Y-64225000D03*
X168640000Y-61685000D03*
X168640000Y-64225000D03*
X166100000Y-61685000D03*
D11*
X166100000Y-64225000D03*
%TD*%
D12*
%TO.C,MPU9250*%
X121835000Y-98325000D03*
X119295000Y-98325000D03*
X116755000Y-98325000D03*
X114215000Y-98325000D03*
X111675000Y-98325000D03*
X109135000Y-98325000D03*
X106595000Y-98325000D03*
X104055000Y-98325000D03*
X101515000Y-98325000D03*
D13*
X98975000Y-98325000D03*
D14*
X100075000Y-109625000D03*
%TD*%
D12*
%TO.C,J7*%
X117235000Y-104150000D03*
X114695000Y-104150000D03*
X112155000Y-104150000D03*
X109615000Y-104150000D03*
D13*
X107075000Y-104150000D03*
D15*
X122465000Y-118240000D03*
X101875000Y-118300000D03*
%TD*%
%TO.C,J4*%
X157515000Y-118375000D03*
X178105000Y-118315000D03*
D13*
X162715000Y-104225000D03*
D12*
X165255000Y-104225000D03*
X167795000Y-104225000D03*
X170335000Y-104225000D03*
X172875000Y-104225000D03*
%TD*%
%TO.C,C24*%
G36*
G01*
X157462500Y-67700000D02*
X157987500Y-67700000D01*
G75*
G02*
X158250000Y-67962500I0J-262500D01*
G01*
X158250000Y-68587500D01*
G75*
G02*
X157987500Y-68850000I-262500J0D01*
G01*
X157462500Y-68850000D01*
G75*
G02*
X157200000Y-68587500I0J262500D01*
G01*
X157200000Y-67962500D01*
G75*
G02*
X157462500Y-67700000I262500J0D01*
G01*
G37*
G36*
G01*
X157462500Y-65950000D02*
X157987500Y-65950000D01*
G75*
G02*
X158250000Y-66212500I0J-262500D01*
G01*
X158250000Y-66837500D01*
G75*
G02*
X157987500Y-67100000I-262500J0D01*
G01*
X157462500Y-67100000D01*
G75*
G02*
X157200000Y-66837500I0J262500D01*
G01*
X157200000Y-66212500D01*
G75*
G02*
X157462500Y-65950000I262500J0D01*
G01*
G37*
%TD*%
%TO.C,D5*%
G36*
G01*
X107930000Y-66150000D02*
X106620000Y-66150000D01*
G75*
G02*
X106350000Y-65880000I0J270000D01*
G01*
X106350000Y-65070000D01*
G75*
G02*
X106620000Y-64800000I270000J0D01*
G01*
X107930000Y-64800000D01*
G75*
G02*
X108200000Y-65070000I0J-270000D01*
G01*
X108200000Y-65880000D01*
G75*
G02*
X107930000Y-66150000I-270000J0D01*
G01*
G37*
G36*
G01*
X107930000Y-68950000D02*
X106620000Y-68950000D01*
G75*
G02*
X106350000Y-68680000I0J270000D01*
G01*
X106350000Y-67870000D01*
G75*
G02*
X106620000Y-67600000I270000J0D01*
G01*
X107930000Y-67600000D01*
G75*
G02*
X108200000Y-67870000I0J-270000D01*
G01*
X108200000Y-68680000D01*
G75*
G02*
X107930000Y-68950000I-270000J0D01*
G01*
G37*
%TD*%
%TO.C,Buzzer*%
X152375000Y-70175000D03*
X152375000Y-72715000D03*
D13*
X152375000Y-75255000D03*
%TD*%
D14*
%TO.C,REF\u002A\u002A*%
X177500000Y-63475000D03*
%TD*%
D16*
%TO.C,C26*%
X179550000Y-81925000D03*
D17*
X177050000Y-81925000D03*
%TD*%
D18*
%TO.C,SERVO *%
X177725000Y-74700000D03*
D19*
X177725000Y-69700000D03*
%TD*%
D20*
%TO.C,USB*%
X137525000Y-61787500D03*
X144525000Y-61787500D03*
D21*
X138525000Y-64487500D03*
X143525000Y-64487500D03*
%TD*%
D22*
%TO.C,SD card*%
X104000000Y-75500000D03*
D23*
X104000000Y-69700000D03*
D24*
X99200000Y-72500000D03*
%TD*%
D12*
%TO.C,J10*%
X165130000Y-96975000D03*
X162590000Y-96975000D03*
D13*
X160050000Y-96975000D03*
%TD*%
D12*
%TO.C,J9*%
X165115000Y-99855000D03*
X162575000Y-99855000D03*
D13*
X160035000Y-99855000D03*
%TD*%
D12*
%TO.C,GND*%
X179600000Y-99550000D03*
X179600000Y-97010000D03*
X179600000Y-94470000D03*
X179600000Y-91930000D03*
X179600000Y-89390000D03*
D13*
X179600000Y-86850000D03*
%TD*%
D12*
%TO.C,+5V*%
X176825000Y-99545000D03*
X176825000Y-97005000D03*
X176825000Y-94465000D03*
X176825000Y-91925000D03*
X176825000Y-89385000D03*
D13*
X176825000Y-86845000D03*
%TD*%
D12*
%TO.C,PWM*%
X174000000Y-86825000D03*
X174000000Y-89365000D03*
X174000000Y-91905000D03*
X174000000Y-94445000D03*
X174000000Y-96985000D03*
D13*
X174000000Y-99525000D03*
%TD*%
D12*
%TO.C,EN2*%
X168550000Y-100020000D03*
X168550000Y-97480000D03*
X168550000Y-94940000D03*
D13*
X168550000Y-92400000D03*
%TD*%
D12*
%TO.C,EN1*%
X168670000Y-77960000D03*
X168670000Y-75420000D03*
X168670000Y-72880000D03*
D13*
X168670000Y-70340000D03*
%TD*%
D12*
%TO.C,L298N*%
X168545000Y-88750000D03*
X168545000Y-86210000D03*
X168545000Y-83670000D03*
D13*
X168545000Y-81130000D03*
%TD*%
%TO.C,R13*%
G36*
G01*
X144037500Y-105175000D02*
X143512500Y-105175000D01*
G75*
G02*
X143250000Y-104912500I0J262500D01*
G01*
X143250000Y-104287500D01*
G75*
G02*
X143512500Y-104025000I262500J0D01*
G01*
X144037500Y-104025000D01*
G75*
G02*
X144300000Y-104287500I0J-262500D01*
G01*
X144300000Y-104912500D01*
G75*
G02*
X144037500Y-105175000I-262500J0D01*
G01*
G37*
G36*
G01*
X144037500Y-106925000D02*
X143512500Y-106925000D01*
G75*
G02*
X143250000Y-106662500I0J262500D01*
G01*
X143250000Y-106037500D01*
G75*
G02*
X143512500Y-105775000I262500J0D01*
G01*
X144037500Y-105775000D01*
G75*
G02*
X144300000Y-106037500I0J-262500D01*
G01*
X144300000Y-106662500D01*
G75*
G02*
X144037500Y-106925000I-262500J0D01*
G01*
G37*
%TD*%
%TO.C,R12*%
G36*
G01*
X137212500Y-105225000D02*
X136687500Y-105225000D01*
G75*
G02*
X136425000Y-104962500I0J262500D01*
G01*
X136425000Y-104337500D01*
G75*
G02*
X136687500Y-104075000I262500J0D01*
G01*
X137212500Y-104075000D01*
G75*
G02*
X137475000Y-104337500I0J-262500D01*
G01*
X137475000Y-104962500D01*
G75*
G02*
X137212500Y-105225000I-262500J0D01*
G01*
G37*
G36*
G01*
X137212500Y-106975000D02*
X136687500Y-106975000D01*
G75*
G02*
X136425000Y-106712500I0J262500D01*
G01*
X136425000Y-106087500D01*
G75*
G02*
X136687500Y-105825000I262500J0D01*
G01*
X137212500Y-105825000D01*
G75*
G02*
X137475000Y-106087500I0J-262500D01*
G01*
X137475000Y-106712500D01*
G75*
G02*
X137212500Y-106975000I-262500J0D01*
G01*
G37*
%TD*%
%TO.C,R10*%
G36*
G01*
X150537500Y-105200000D02*
X150012500Y-105200000D01*
G75*
G02*
X149750000Y-104937500I0J262500D01*
G01*
X149750000Y-104312500D01*
G75*
G02*
X150012500Y-104050000I262500J0D01*
G01*
X150537500Y-104050000D01*
G75*
G02*
X150800000Y-104312500I0J-262500D01*
G01*
X150800000Y-104937500D01*
G75*
G02*
X150537500Y-105200000I-262500J0D01*
G01*
G37*
G36*
G01*
X150537500Y-106950000D02*
X150012500Y-106950000D01*
G75*
G02*
X149750000Y-106687500I0J262500D01*
G01*
X149750000Y-106062500D01*
G75*
G02*
X150012500Y-105800000I262500J0D01*
G01*
X150537500Y-105800000D01*
G75*
G02*
X150800000Y-106062500I0J-262500D01*
G01*
X150800000Y-106687500D01*
G75*
G02*
X150537500Y-106950000I-262500J0D01*
G01*
G37*
%TD*%
%TO.C,R2*%
G36*
G01*
X130887500Y-105200000D02*
X130362500Y-105200000D01*
G75*
G02*
X130100000Y-104937500I0J262500D01*
G01*
X130100000Y-104312500D01*
G75*
G02*
X130362500Y-104050000I262500J0D01*
G01*
X130887500Y-104050000D01*
G75*
G02*
X131150000Y-104312500I0J-262500D01*
G01*
X131150000Y-104937500D01*
G75*
G02*
X130887500Y-105200000I-262500J0D01*
G01*
G37*
G36*
G01*
X130887500Y-106950000D02*
X130362500Y-106950000D01*
G75*
G02*
X130100000Y-106687500I0J262500D01*
G01*
X130100000Y-106062500D01*
G75*
G02*
X130362500Y-105800000I262500J0D01*
G01*
X130887500Y-105800000D01*
G75*
G02*
X131150000Y-106062500I0J-262500D01*
G01*
X131150000Y-106687500D01*
G75*
G02*
X130887500Y-106950000I-262500J0D01*
G01*
G37*
%TD*%
D25*
%TO.C,P1*%
X102830000Y-82645000D03*
X102830000Y-90645000D03*
%TD*%
D12*
%TO.C,CS RS SCL SDA LED NC NC GND GND +5v     *%
X160750000Y-91900000D03*
X160750000Y-89360000D03*
X160750000Y-86820000D03*
X160750000Y-84280000D03*
X160750000Y-81740000D03*
X160750000Y-79200000D03*
X160750000Y-76660000D03*
X160750000Y-74120000D03*
X160750000Y-71580000D03*
X160750000Y-69040000D03*
D13*
X160750000Y-66500000D03*
%TD*%
D12*
%TO.C,5v GND RX TX*%
X159950000Y-62000000D03*
X157410000Y-62000000D03*
X154870000Y-62000000D03*
X152330000Y-62000000D03*
X149790000Y-62000000D03*
D13*
X147250000Y-62000000D03*
%TD*%
D12*
%TO.C,3.3v CLK DIO GND*%
X133690000Y-61990000D03*
X131150000Y-61990000D03*
X128610000Y-61990000D03*
D13*
X126070000Y-61990000D03*
%TD*%
D12*
%TO.C,BOOT*%
X122930000Y-62000000D03*
X120390000Y-62000000D03*
D13*
X117850000Y-62000000D03*
%TD*%
%TO.C,C18*%
G36*
G01*
X144037500Y-101625000D02*
X143512500Y-101625000D01*
G75*
G02*
X143250000Y-101362500I0J262500D01*
G01*
X143250000Y-100737500D01*
G75*
G02*
X143512500Y-100475000I262500J0D01*
G01*
X144037500Y-100475000D01*
G75*
G02*
X144300000Y-100737500I0J-262500D01*
G01*
X144300000Y-101362500D01*
G75*
G02*
X144037500Y-101625000I-262500J0D01*
G01*
G37*
G36*
G01*
X144037500Y-103375000D02*
X143512500Y-103375000D01*
G75*
G02*
X143250000Y-103112500I0J262500D01*
G01*
X143250000Y-102487500D01*
G75*
G02*
X143512500Y-102225000I262500J0D01*
G01*
X144037500Y-102225000D01*
G75*
G02*
X144300000Y-102487500I0J-262500D01*
G01*
X144300000Y-103112500D01*
G75*
G02*
X144037500Y-103375000I-262500J0D01*
G01*
G37*
%TD*%
%TO.C,C17*%
G36*
G01*
X137262500Y-101575000D02*
X136737500Y-101575000D01*
G75*
G02*
X136475000Y-101312500I0J262500D01*
G01*
X136475000Y-100687500D01*
G75*
G02*
X136737500Y-100425000I262500J0D01*
G01*
X137262500Y-100425000D01*
G75*
G02*
X137525000Y-100687500I0J-262500D01*
G01*
X137525000Y-101312500D01*
G75*
G02*
X137262500Y-101575000I-262500J0D01*
G01*
G37*
G36*
G01*
X137262500Y-103325000D02*
X136737500Y-103325000D01*
G75*
G02*
X136475000Y-103062500I0J262500D01*
G01*
X136475000Y-102437500D01*
G75*
G02*
X136737500Y-102175000I262500J0D01*
G01*
X137262500Y-102175000D01*
G75*
G02*
X137525000Y-102437500I0J-262500D01*
G01*
X137525000Y-103062500D01*
G75*
G02*
X137262500Y-103325000I-262500J0D01*
G01*
G37*
%TD*%
%TO.C,C15*%
G36*
G01*
X167150000Y-66762500D02*
X167150000Y-67287500D01*
G75*
G02*
X166887500Y-67550000I-262500J0D01*
G01*
X166262500Y-67550000D01*
G75*
G02*
X166000000Y-67287500I0J262500D01*
G01*
X166000000Y-66762500D01*
G75*
G02*
X166262500Y-66500000I262500J0D01*
G01*
X166887500Y-66500000D01*
G75*
G02*
X167150000Y-66762500I0J-262500D01*
G01*
G37*
G36*
G01*
X168900000Y-66762500D02*
X168900000Y-67287500D01*
G75*
G02*
X168637500Y-67550000I-262500J0D01*
G01*
X168012500Y-67550000D01*
G75*
G02*
X167750000Y-67287500I0J262500D01*
G01*
X167750000Y-66762500D01*
G75*
G02*
X168012500Y-66500000I262500J0D01*
G01*
X168637500Y-66500000D01*
G75*
G02*
X168900000Y-66762500I0J-262500D01*
G01*
G37*
%TD*%
%TO.C,C14*%
G36*
G01*
X150537500Y-101450000D02*
X150012500Y-101450000D01*
G75*
G02*
X149750000Y-101187500I0J262500D01*
G01*
X149750000Y-100562500D01*
G75*
G02*
X150012500Y-100300000I262500J0D01*
G01*
X150537500Y-100300000D01*
G75*
G02*
X150800000Y-100562500I0J-262500D01*
G01*
X150800000Y-101187500D01*
G75*
G02*
X150537500Y-101450000I-262500J0D01*
G01*
G37*
G36*
G01*
X150537500Y-103200000D02*
X150012500Y-103200000D01*
G75*
G02*
X149750000Y-102937500I0J262500D01*
G01*
X149750000Y-102312500D01*
G75*
G02*
X150012500Y-102050000I262500J0D01*
G01*
X150537500Y-102050000D01*
G75*
G02*
X150800000Y-102312500I0J-262500D01*
G01*
X150800000Y-102937500D01*
G75*
G02*
X150537500Y-103200000I-262500J0D01*
G01*
G37*
%TD*%
%TO.C,C3*%
G36*
G01*
X130837500Y-101725000D02*
X130312500Y-101725000D01*
G75*
G02*
X130050000Y-101462500I0J262500D01*
G01*
X130050000Y-100837500D01*
G75*
G02*
X130312500Y-100575000I262500J0D01*
G01*
X130837500Y-100575000D01*
G75*
G02*
X131100000Y-100837500I0J-262500D01*
G01*
X131100000Y-101462500D01*
G75*
G02*
X130837500Y-101725000I-262500J0D01*
G01*
G37*
G36*
G01*
X130837500Y-103475000D02*
X130312500Y-103475000D01*
G75*
G02*
X130050000Y-103212500I0J262500D01*
G01*
X130050000Y-102587500D01*
G75*
G02*
X130312500Y-102325000I262500J0D01*
G01*
X130837500Y-102325000D01*
G75*
G02*
X131100000Y-102587500I0J-262500D01*
G01*
X131100000Y-103212500D01*
G75*
G02*
X130837500Y-103475000I-262500J0D01*
G01*
G37*
%TD*%
M02*
